<mxfile host="drawio-plugin" agent="Mozilla/5.0 (Windows NT 10.0; Win64; x64) AppleWebKit/537.36 (KHTML, like Gecko) Chrome/122.0.0.0 Safari/537.36" modified="2025-05-02T22:55:33.144Z" version="22.1.22" etag="LYD2hTt676sppL71Ugd9" type="embed">
  <diagram name="Page-1" id="SJ5KyCIBwHqDN82vWLjB">
    <mxGraphModel dx="1971" dy="2963" grid="1" gridSize="10" guides="1" tooltips="1" connect="1" arrows="1" fold="1" page="1" pageScale="1" pageWidth="850" pageHeight="1100" math="0" shadow="0">
      <root>
        <mxCell id="0" />
        <mxCell id="1" parent="0" />
        <mxCell id="FfjkxNWrbGcJP8TpGep8-1" value="&lt;pre style=&quot;font-family: &amp;quot;JetBrains Mono&amp;quot;, monospace;&quot;&gt;&lt;div style=&quot;&quot;&gt;&lt;pre style=&quot;font-family: &amp;quot;JetBrains Mono&amp;quot;, monospace;&quot;&gt;&lt;div&gt;&lt;pre style=&quot;font-family: &amp;quot;JetBrains Mono&amp;quot;, monospace;&quot;&gt;FindMiddleSign&lt;/pre&gt;&lt;/div&gt;&lt;/pre&gt;&lt;/div&gt;&lt;/pre&gt;" style="text;html=1;align=center;verticalAlign=middle;resizable=0;points=[];autosize=1;strokeColor=none;fillColor=none;fontSize=14;labelBackgroundColor=none;fontColor=#000000;" parent="1" vertex="1">
          <mxGeometry x="-411.87" y="2110" width="130" height="60" as="geometry" />
        </mxCell>
        <mxCell id="FfjkxNWrbGcJP8TpGep8-3" value="&lt;pre style=&quot;font-family: &amp;quot;JetBrains Mono&amp;quot;, monospace;&quot;&gt;input: string &lt;span style=&quot;white-space-collapse: collapse;&quot;&gt;input, &lt;/span&gt;&lt;span style=&quot;white-space-collapse: collapse;&quot;&gt;int &lt;/span&gt;&lt;span style=&quot;white-space-collapse: collapse;&quot;&gt;requiredLevel = &lt;/span&gt;&lt;span style=&quot;white-space-collapse: collapse;&quot;&gt;0&lt;/span&gt;&lt;/pre&gt;" style="text;html=1;align=center;verticalAlign=middle;resizable=0;points=[];autosize=1;strokeColor=none;fillColor=none;fontSize=14;labelBackgroundColor=none;fontColor=#000000;" parent="1" vertex="1">
          <mxGeometry x="-419.37" y="2160" width="350" height="60" as="geometry" />
        </mxCell>
        <mxCell id="FfjkxNWrbGcJP8TpGep8-4" value="&lt;pre style=&quot;font-family: &amp;quot;JetBrains Mono&amp;quot;, monospace;&quot;&gt;output: int result&lt;/pre&gt;" style="text;html=1;align=center;verticalAlign=middle;resizable=0;points=[];autosize=1;strokeColor=none;fillColor=none;fontSize=14;labelBackgroundColor=none;fontColor=#000000;" parent="1" vertex="1">
          <mxGeometry x="-411.87" y="2210" width="160" height="60" as="geometry" />
        </mxCell>
        <mxCell id="FfjkxNWrbGcJP8TpGep8-10" value="&lt;pre style=&quot;font-family: &amp;quot;JetBrains Mono&amp;quot;, monospace;&quot;&gt;&lt;div style=&quot;&quot;&gt;&lt;pre style=&quot;font-family: &amp;quot;JetBrains Mono&amp;quot;, monospace;&quot;&gt;&lt;div&gt;&lt;pre style=&quot;font-family: &amp;quot;JetBrains Mono&amp;quot;, monospace;&quot;&gt;Parse&lt;/pre&gt;&lt;/div&gt;&lt;/pre&gt;&lt;/div&gt;&lt;/pre&gt;" style="text;html=1;align=center;verticalAlign=middle;resizable=0;points=[];autosize=1;strokeColor=none;fillColor=none;fontSize=14;labelBackgroundColor=none;fontColor=#000000;" parent="1" vertex="1">
          <mxGeometry x="-320.62" y="-1450" width="60" height="60" as="geometry" />
        </mxCell>
        <mxCell id="FfjkxNWrbGcJP8TpGep8-13" style="edgeStyle=orthogonalEdgeStyle;rounded=0;orthogonalLoop=1;jettySize=auto;html=1;exitX=0.5;exitY=1;exitDx=0;exitDy=0;entryX=0.5;entryY=0;entryDx=0;entryDy=0;fontSize=14;labelBackgroundColor=none;fontColor=#000000;" parent="1" source="FfjkxNWrbGcJP8TpGep8-14" target="FfjkxNWrbGcJP8TpGep8-18" edge="1">
          <mxGeometry relative="1" as="geometry" />
        </mxCell>
        <mxCell id="FfjkxNWrbGcJP8TpGep8-14" value="&lt;div style=&quot;&quot;&gt;&lt;pre style=&quot;font-family: &amp;quot;JetBrains Mono&amp;quot;, monospace;&quot;&gt;&lt;pre style=&quot;font-family: &amp;quot;JetBrains Mono&amp;quot;, monospace;&quot;&gt;&lt;pre style=&quot;font-family: &amp;quot;JetBrains Mono&amp;quot;, monospace;&quot;&gt;&lt;pre style=&quot;font-family: &amp;quot;JetBrains Mono&amp;quot;, monospace;&quot;&gt;&lt;pre style=&quot;font-family: &amp;quot;JetBrains Mono&amp;quot;, monospace;&quot;&gt;&lt;pre style=&quot;font-family: &amp;quot;JetBrains Mono&amp;quot;, monospace;&quot;&gt;&lt;pre style=&quot;font-family: &amp;quot;JetBrains Mono&amp;quot;, monospace;&quot;&gt;&lt;pre style=&quot;font-family: &amp;quot;JetBrains Mono&amp;quot;, monospace;&quot;&gt;&lt;div&gt;&lt;pre style=&quot;font-family: &amp;quot;JetBrains Mono&amp;quot;, monospace;&quot;&gt;IEvaluatable? result = &lt;span style=&quot;&quot;&gt;null&lt;/span&gt;;&lt;/pre&gt;&lt;/div&gt;&lt;/pre&gt;&lt;/pre&gt;&lt;/pre&gt;&lt;/pre&gt;&lt;/pre&gt;&lt;/pre&gt;&lt;/pre&gt;&lt;/pre&gt;&lt;/div&gt;" style="rounded=0;whiteSpace=wrap;html=1;absoluteArcSize=1;arcSize=14;strokeWidth=2;fontSize=14;labelBackgroundColor=none;fontColor=#000000;" parent="1" vertex="1">
          <mxGeometry x="-389.37" y="-870" width="290" height="50" as="geometry" />
        </mxCell>
        <mxCell id="FfjkxNWrbGcJP8TpGep8-15" value="&lt;pre style=&quot;font-family: &amp;quot;JetBrains Mono&amp;quot;, monospace;&quot;&gt;input: string &lt;span style=&quot;white-space-collapse: collapse;&quot;&gt;input&lt;/span&gt;&lt;/pre&gt;" style="text;html=1;align=center;verticalAlign=middle;resizable=0;points=[];autosize=1;strokeColor=none;fillColor=none;fontSize=14;labelBackgroundColor=none;fontColor=#000000;" parent="1" vertex="1">
          <mxGeometry x="-315.62" y="-1400" width="170" height="60" as="geometry" />
        </mxCell>
        <mxCell id="FfjkxNWrbGcJP8TpGep8-16" value="&lt;pre style=&quot;font-family: &amp;quot;JetBrains Mono&amp;quot;, monospace;&quot;&gt;output: IEvaluatable result&lt;/pre&gt;" style="text;html=1;align=center;verticalAlign=middle;resizable=0;points=[];autosize=1;strokeColor=none;fillColor=none;fontSize=14;labelBackgroundColor=none;fontColor=#000000;" parent="1" vertex="1">
          <mxGeometry x="-310.62" y="-1350" width="230" height="60" as="geometry" />
        </mxCell>
        <mxCell id="FfjkxNWrbGcJP8TpGep8-17" style="edgeStyle=orthogonalEdgeStyle;rounded=0;orthogonalLoop=1;jettySize=auto;html=1;exitX=0.5;exitY=1;exitDx=0;exitDy=0;fontSize=14;labelBackgroundColor=none;fontColor=#000000;" parent="1" source="FfjkxNWrbGcJP8TpGep8-18" target="FfjkxNWrbGcJP8TpGep8-20" edge="1">
          <mxGeometry relative="1" as="geometry" />
        </mxCell>
        <mxCell id="FfjkxNWrbGcJP8TpGep8-18" value="&lt;div style=&quot;&quot;&gt;&lt;pre style=&quot;font-family: &amp;quot;JetBrains Mono&amp;quot;, monospace;&quot;&gt;&lt;pre style=&quot;font-family: &amp;quot;JetBrains Mono&amp;quot;, monospace;&quot;&gt;&lt;pre style=&quot;font-family: &amp;quot;JetBrains Mono&amp;quot;, monospace;&quot;&gt;&lt;pre style=&quot;font-family: &amp;quot;JetBrains Mono&amp;quot;, monospace;&quot;&gt;&lt;pre style=&quot;font-family: &amp;quot;JetBrains Mono&amp;quot;, monospace;&quot;&gt;&lt;pre style=&quot;font-family: &amp;quot;JetBrains Mono&amp;quot;, monospace;&quot;&gt;&lt;pre style=&quot;font-family: &amp;quot;JetBrains Mono&amp;quot;, monospace;&quot;&gt;&lt;pre style=&quot;font-family: &amp;quot;JetBrains Mono&amp;quot;, monospace;&quot;&gt;&lt;pre style=&quot;font-family: &amp;quot;JetBrains Mono&amp;quot;, monospace;&quot;&gt;&lt;div&gt;&lt;pre style=&quot;font-family: &amp;quot;JetBrains Mono&amp;quot;, monospace;&quot;&gt;input = input.Replace(&lt;span style=&quot;&quot;&gt;&quot; &quot;&lt;/span&gt;, &lt;span style=&quot;&quot;&gt;&quot;&quot;&lt;/span&gt;).ToLower();&lt;/pre&gt;&lt;/div&gt;&lt;/pre&gt;&lt;/pre&gt;&lt;/pre&gt;&lt;/pre&gt;&lt;/pre&gt;&lt;/pre&gt;&lt;/pre&gt;&lt;/pre&gt;&lt;/pre&gt;&lt;/div&gt;" style="rounded=0;whiteSpace=wrap;html=1;absoluteArcSize=1;arcSize=14;strokeWidth=2;fontSize=14;labelBackgroundColor=none;fontColor=#000000;" parent="1" vertex="1">
          <mxGeometry x="-435.01" y="-780" width="380" height="50" as="geometry" />
        </mxCell>
        <mxCell id="FfjkxNWrbGcJP8TpGep8-20" value="&lt;div style=&quot;&quot;&gt;&lt;pre style=&quot;font-family: &amp;quot;JetBrains Mono&amp;quot;, monospace;&quot;&gt;&lt;div&gt;&lt;pre style=&quot;font-family: &amp;quot;JetBrains Mono&amp;quot;, monospace;&quot;&gt;CheckBracketCount(input);&lt;/pre&gt;&lt;/div&gt;&lt;/pre&gt;&lt;/div&gt;" style="shape=process;whiteSpace=wrap;html=1;backgroundOutline=1;size=0.02875399361022364;fontSize=14;labelBackgroundColor=none;fontColor=#000000;" parent="1" vertex="1">
          <mxGeometry x="-387.5" y="-690" width="286.25" height="50" as="geometry" />
        </mxCell>
        <mxCell id="FfjkxNWrbGcJP8TpGep8-31" style="edgeStyle=orthogonalEdgeStyle;rounded=0;orthogonalLoop=1;jettySize=auto;html=1;exitX=0.5;exitY=1;exitDx=0;exitDy=0;entryX=0.5;entryY=0;entryDx=0;entryDy=0;fontSize=14;labelBackgroundColor=none;fontColor=#000000;" parent="1" source="FfjkxNWrbGcJP8TpGep8-32" target="FfjkxNWrbGcJP8TpGep8-35" edge="1">
          <mxGeometry relative="1" as="geometry" />
        </mxCell>
        <mxCell id="FfjkxNWrbGcJP8TpGep8-32" value="&lt;div style=&quot;&quot;&gt;&lt;pre style=&quot;font-family: &amp;quot;JetBrains Mono&amp;quot;, monospace;&quot;&gt;&lt;span style=&quot;&quot;&gt;int &lt;/span&gt;&lt;span style=&quot;&quot;&gt;i &lt;/span&gt;&lt;font&gt;= &lt;/font&gt;&lt;font&gt;0&lt;/font&gt;&lt;font&gt;;&lt;/font&gt;&lt;/pre&gt;&lt;/div&gt;" style="rounded=0;whiteSpace=wrap;html=1;absoluteArcSize=1;arcSize=14;strokeWidth=2;fontSize=14;labelBackgroundColor=none;fontColor=#000000;" parent="1" vertex="1">
          <mxGeometry x="-388.76" y="2810" width="127.5" height="50" as="geometry" />
        </mxCell>
        <mxCell id="FfjkxNWrbGcJP8TpGep8-329" style="edgeStyle=orthogonalEdgeStyle;rounded=0;orthogonalLoop=1;jettySize=auto;html=1;exitX=0.5;exitY=1;exitDx=0;exitDy=0;entryX=0.5;entryY=0;entryDx=0;entryDy=0;fontSize=14;labelBackgroundColor=none;fontColor=#000000;" parent="1" source="FfjkxNWrbGcJP8TpGep8-35" target="FfjkxNWrbGcJP8TpGep8-328" edge="1">
          <mxGeometry relative="1" as="geometry" />
        </mxCell>
        <mxCell id="FfjkxNWrbGcJP8TpGep8-330" value="yes" style="edgeLabel;html=1;align=center;verticalAlign=middle;resizable=0;points=[];fontSize=14;labelBackgroundColor=none;fontColor=#000000;" parent="FfjkxNWrbGcJP8TpGep8-329" vertex="1" connectable="0">
          <mxGeometry x="-0.1402" y="-1" relative="1" as="geometry">
            <mxPoint as="offset" />
          </mxGeometry>
        </mxCell>
        <mxCell id="FfjkxNWrbGcJP8TpGep8-365" style="edgeStyle=orthogonalEdgeStyle;rounded=0;orthogonalLoop=1;jettySize=auto;html=1;exitX=1;exitY=0.5;exitDx=0;exitDy=0;entryX=0.5;entryY=0;entryDx=0;entryDy=0;fontSize=14;labelBackgroundColor=none;fontColor=#000000;" parent="1" source="FfjkxNWrbGcJP8TpGep8-35" target="FfjkxNWrbGcJP8TpGep8-364" edge="1">
          <mxGeometry relative="1" as="geometry" />
        </mxCell>
        <mxCell id="FfjkxNWrbGcJP8TpGep8-366" value="no" style="edgeLabel;html=1;align=center;verticalAlign=middle;resizable=0;points=[];fontSize=14;labelBackgroundColor=none;fontColor=#000000;" parent="FfjkxNWrbGcJP8TpGep8-365" vertex="1" connectable="0">
          <mxGeometry x="-0.6645" y="-4" relative="1" as="geometry">
            <mxPoint as="offset" />
          </mxGeometry>
        </mxCell>
        <mxCell id="FfjkxNWrbGcJP8TpGep8-35" value="&lt;div style=&quot;&quot;&gt;&lt;pre style=&quot;font-family: &amp;quot;JetBrains Mono&amp;quot;, monospace;&quot;&gt;&lt;pre style=&quot;font-family: &amp;quot;JetBrains Mono&amp;quot;, monospace;&quot;&gt;&lt;pre style=&quot;font-family: &amp;quot;JetBrains Mono&amp;quot;, monospace;&quot;&gt;&lt;div&gt;&lt;pre style=&quot;font-family: &amp;quot;JetBrains Mono&amp;quot;, monospace;&quot;&gt;i &amp;lt; input.Length&lt;/pre&gt;&lt;/div&gt;&lt;/pre&gt;&lt;/pre&gt;&lt;/pre&gt;&lt;/div&gt;" style="rhombus;whiteSpace=wrap;html=1;fontSize=14;labelBackgroundColor=none;fontColor=#000000;" parent="1" vertex="1">
          <mxGeometry x="-482.5" y="2920" width="315" height="80" as="geometry" />
        </mxCell>
        <mxCell id="FfjkxNWrbGcJP8TpGep8-36" style="edgeStyle=orthogonalEdgeStyle;rounded=0;orthogonalLoop=1;jettySize=auto;html=1;exitX=0.5;exitY=0;exitDx=0;exitDy=0;entryX=0;entryY=0.5;entryDx=0;entryDy=0;fontSize=14;labelBackgroundColor=none;fontColor=#000000;" parent="1" source="FfjkxNWrbGcJP8TpGep8-37" target="FfjkxNWrbGcJP8TpGep8-35" edge="1">
          <mxGeometry relative="1" as="geometry" />
        </mxCell>
        <mxCell id="FfjkxNWrbGcJP8TpGep8-37" value="&lt;div style=&quot;&quot;&gt;&lt;pre style=&quot;font-family: &amp;quot;JetBrains Mono&amp;quot;, monospace;&quot;&gt;&lt;div&gt;&lt;pre style=&quot;font-family: &amp;quot;JetBrains Mono&amp;quot;, monospace;&quot;&gt;i++;&lt;/pre&gt;&lt;/div&gt;&lt;/pre&gt;&lt;/div&gt;" style="rounded=0;whiteSpace=wrap;html=1;absoluteArcSize=1;arcSize=14;strokeWidth=2;fontSize=14;labelBackgroundColor=none;fontColor=#000000;" parent="1" vertex="1">
          <mxGeometry x="-740" y="2980" width="80" height="50" as="geometry" />
        </mxCell>
        <mxCell id="FfjkxNWrbGcJP8TpGep8-43" style="edgeStyle=orthogonalEdgeStyle;rounded=0;orthogonalLoop=1;jettySize=auto;html=1;exitX=1;exitY=0.5;exitDx=0;exitDy=0;" parent="1" edge="1">
          <mxGeometry relative="1" as="geometry">
            <Array as="points">
              <mxPoint x="3460" y="2590" />
              <mxPoint x="3460" y="2810" />
              <mxPoint x="3091" y="2810" />
            </Array>
            <mxPoint x="3264.38" y="2590" as="sourcePoint" />
          </mxGeometry>
        </mxCell>
        <mxCell id="FfjkxNWrbGcJP8TpGep8-66" style="edgeStyle=orthogonalEdgeStyle;rounded=0;orthogonalLoop=1;jettySize=auto;html=1;exitX=0.5;exitY=1;exitDx=0;exitDy=0;exitPerimeter=0;fontSize=14;labelBackgroundColor=none;fontColor=#000000;" parent="1" source="FfjkxNWrbGcJP8TpGep8-61" target="FfjkxNWrbGcJP8TpGep8-63" edge="1">
          <mxGeometry relative="1" as="geometry" />
        </mxCell>
        <mxCell id="FfjkxNWrbGcJP8TpGep8-67" value="yes" style="edgeLabel;html=1;align=center;verticalAlign=middle;resizable=0;points=[];fontSize=14;labelBackgroundColor=none;fontColor=#000000;" parent="FfjkxNWrbGcJP8TpGep8-66" vertex="1" connectable="0">
          <mxGeometry x="-0.255" y="2" relative="1" as="geometry">
            <mxPoint as="offset" />
          </mxGeometry>
        </mxCell>
        <mxCell id="FfjkxNWrbGcJP8TpGep8-98" style="edgeStyle=orthogonalEdgeStyle;rounded=0;orthogonalLoop=1;jettySize=auto;html=1;exitX=0;exitY=0.5;exitDx=0;exitDy=0;exitPerimeter=0;fontSize=14;labelBackgroundColor=none;fontColor=#000000;" parent="1" source="FfjkxNWrbGcJP8TpGep8-61" target="FfjkxNWrbGcJP8TpGep8-95" edge="1">
          <mxGeometry relative="1" as="geometry" />
        </mxCell>
        <mxCell id="FfjkxNWrbGcJP8TpGep8-99" value="no" style="edgeLabel;html=1;align=center;verticalAlign=middle;resizable=0;points=[];fontSize=14;labelBackgroundColor=none;fontColor=#000000;" parent="FfjkxNWrbGcJP8TpGep8-98" vertex="1" connectable="0">
          <mxGeometry x="-0.7691" y="-1" relative="1" as="geometry">
            <mxPoint as="offset" />
          </mxGeometry>
        </mxCell>
        <mxCell id="FfjkxNWrbGcJP8TpGep8-61" value="&lt;div style=&quot;&quot;&gt;&lt;pre style=&quot;font-family: &amp;quot;JetBrains Mono&amp;quot;, monospace;&quot;&gt;!HasSign(input)&lt;/pre&gt;&lt;/div&gt;" style="strokeWidth=2;html=1;shape=mxgraph.flowchart.decision;whiteSpace=wrap;fontSize=14;labelBackgroundColor=none;fontColor=#000000;" parent="1" vertex="1">
          <mxGeometry x="-372.51" y="-580" width="255" height="100" as="geometry" />
        </mxCell>
        <mxCell id="FfjkxNWrbGcJP8TpGep8-62" style="edgeStyle=orthogonalEdgeStyle;rounded=0;orthogonalLoop=1;jettySize=auto;html=1;exitX=0.5;exitY=1;exitDx=0;exitDy=0;entryX=0.5;entryY=0;entryDx=0;entryDy=0;entryPerimeter=0;fontSize=14;labelBackgroundColor=none;fontColor=#000000;" parent="1" source="FfjkxNWrbGcJP8TpGep8-20" target="FfjkxNWrbGcJP8TpGep8-61" edge="1">
          <mxGeometry relative="1" as="geometry" />
        </mxCell>
        <mxCell id="FfjkxNWrbGcJP8TpGep8-87" style="edgeStyle=orthogonalEdgeStyle;rounded=0;orthogonalLoop=1;jettySize=auto;html=1;exitX=0.5;exitY=1;exitDx=0;exitDy=0;exitPerimeter=0;entryX=0.5;entryY=0;entryDx=0;entryDy=0;fontSize=14;labelBackgroundColor=none;fontColor=#000000;" parent="1" source="FfjkxNWrbGcJP8TpGep8-63" target="FfjkxNWrbGcJP8TpGep8-82" edge="1">
          <mxGeometry relative="1" as="geometry" />
        </mxCell>
        <mxCell id="FfjkxNWrbGcJP8TpGep8-88" value="yes" style="edgeLabel;html=1;align=center;verticalAlign=middle;resizable=0;points=[];fontSize=14;labelBackgroundColor=none;fontColor=#000000;" parent="FfjkxNWrbGcJP8TpGep8-87" vertex="1" connectable="0">
          <mxGeometry x="-0.0476" y="1" relative="1" as="geometry">
            <mxPoint as="offset" />
          </mxGeometry>
        </mxCell>
        <mxCell id="FfjkxNWrbGcJP8TpGep8-63" value="&lt;div style=&quot;&quot;&gt;&lt;pre style=&quot;font-family: &amp;quot;JetBrains Mono&amp;quot;, monospace;&quot;&gt;&lt;div&gt;&lt;pre style=&quot;font-family: &amp;quot;JetBrains Mono&amp;quot;, monospace;&quot;&gt;input == &lt;span style=&quot;&quot;&gt;&quot;1&quot;&lt;/span&gt;&lt;/pre&gt;&lt;/div&gt;&lt;/pre&gt;&lt;/div&gt;" style="strokeWidth=2;html=1;shape=mxgraph.flowchart.decision;whiteSpace=wrap;fontSize=14;labelBackgroundColor=none;fontColor=#000000;" parent="1" vertex="1">
          <mxGeometry x="54.58" y="-430" width="255" height="100" as="geometry" />
        </mxCell>
        <mxCell id="FfjkxNWrbGcJP8TpGep8-84" style="edgeStyle=orthogonalEdgeStyle;rounded=0;orthogonalLoop=1;jettySize=auto;html=1;exitX=0.5;exitY=1;exitDx=0;exitDy=0;exitPerimeter=0;entryX=0.5;entryY=0;entryDx=0;entryDy=0;fontSize=14;labelBackgroundColor=none;fontColor=#000000;" parent="1" source="FfjkxNWrbGcJP8TpGep8-64" target="FfjkxNWrbGcJP8TpGep8-83" edge="1">
          <mxGeometry relative="1" as="geometry" />
        </mxCell>
        <mxCell id="FfjkxNWrbGcJP8TpGep8-85" value="yes" style="edgeLabel;html=1;align=center;verticalAlign=middle;resizable=0;points=[];fontSize=14;labelBackgroundColor=none;fontColor=#000000;" parent="FfjkxNWrbGcJP8TpGep8-84" vertex="1" connectable="0">
          <mxGeometry x="-0.1778" y="2" relative="1" as="geometry">
            <mxPoint as="offset" />
          </mxGeometry>
        </mxCell>
        <mxCell id="cOOqguh06IZceh5hziDc-1" style="edgeStyle=orthogonalEdgeStyle;rounded=0;orthogonalLoop=1;jettySize=auto;html=1;exitX=0;exitY=0.5;exitDx=0;exitDy=0;exitPerimeter=0;fontSize=14;labelBackgroundColor=none;fontColor=#000000;" parent="1" source="FfjkxNWrbGcJP8TpGep8-64" edge="1">
          <mxGeometry relative="1" as="geometry">
            <mxPoint x="350" y="-80" as="targetPoint" />
          </mxGeometry>
        </mxCell>
        <mxCell id="cOOqguh06IZceh5hziDc-3" value="no" style="edgeLabel;html=1;align=center;verticalAlign=middle;resizable=0;points=[];fontSize=14;labelBackgroundColor=none;fontColor=#000000;" parent="cOOqguh06IZceh5hziDc-1" vertex="1" connectable="0">
          <mxGeometry x="-0.7746" y="2" relative="1" as="geometry">
            <mxPoint as="offset" />
          </mxGeometry>
        </mxCell>
        <mxCell id="FfjkxNWrbGcJP8TpGep8-64" value="&lt;div style=&quot;&quot;&gt;&lt;pre style=&quot;font-family: &amp;quot;JetBrains Mono&amp;quot;, monospace;&quot;&gt;&lt;pre style=&quot;font-family: &amp;quot;JetBrains Mono&amp;quot;, monospace;&quot;&gt;&lt;div&gt;&lt;pre style=&quot;font-family: &amp;quot;JetBrains Mono&amp;quot;, monospace;&quot;&gt;input == &lt;span style=&quot;&quot;&gt;&quot;0&quot;&lt;/span&gt;&lt;/pre&gt;&lt;/div&gt;&lt;/pre&gt;&lt;/pre&gt;&lt;/div&gt;" style="strokeWidth=2;html=1;shape=mxgraph.flowchart.decision;whiteSpace=wrap;fontSize=14;labelBackgroundColor=none;fontColor=#000000;" parent="1" vertex="1">
          <mxGeometry x="400.82" y="-305" width="255" height="100" as="geometry" />
        </mxCell>
        <mxCell id="FfjkxNWrbGcJP8TpGep8-91" style="edgeStyle=orthogonalEdgeStyle;rounded=0;orthogonalLoop=1;jettySize=auto;html=1;exitX=0;exitY=0.5;exitDx=0;exitDy=0;exitPerimeter=0;entryX=0.5;entryY=0;entryDx=0;entryDy=0;fontSize=14;labelBackgroundColor=none;fontColor=#000000;" parent="1" source="FfjkxNWrbGcJP8TpGep8-65" target="FfjkxNWrbGcJP8TpGep8-90" edge="1">
          <mxGeometry relative="1" as="geometry">
            <Array as="points">
              <mxPoint x="34" y="-10" />
              <mxPoint x="34" y="310" />
              <mxPoint x="268" y="310" />
            </Array>
          </mxGeometry>
        </mxCell>
        <mxCell id="FfjkxNWrbGcJP8TpGep8-92" value="no" style="edgeLabel;html=1;align=center;verticalAlign=middle;resizable=0;points=[];fontSize=14;labelBackgroundColor=none;fontColor=#000000;" parent="FfjkxNWrbGcJP8TpGep8-91" vertex="1" connectable="0">
          <mxGeometry x="-0.932" y="2" relative="1" as="geometry">
            <mxPoint as="offset" />
          </mxGeometry>
        </mxCell>
        <mxCell id="FfjkxNWrbGcJP8TpGep8-65" value="&lt;div style=&quot;&quot;&gt;&lt;pre style=&quot;font-family: &amp;quot;JetBrains Mono&amp;quot;, monospace;&quot;&gt;&lt;pre style=&quot;font-family: &amp;quot;JetBrains Mono&amp;quot;, monospace;&quot;&gt;&lt;div&gt;&lt;pre style=&quot;font-family: &amp;quot;JetBrains Mono&amp;quot;, monospace;&quot;&gt;result &lt;span style=&quot;&quot;&gt;is &lt;/span&gt;not &lt;span style=&quot;&quot;&gt;null&lt;/span&gt;&lt;/pre&gt;&lt;/div&gt;&lt;/pre&gt;&lt;/pre&gt;&lt;/div&gt;" style="strokeWidth=2;html=1;shape=mxgraph.flowchart.decision;whiteSpace=wrap;fontSize=14;labelBackgroundColor=none;fontColor=#000000;" parent="1" vertex="1">
          <mxGeometry x="53.94000000000001" y="-60" width="255" height="100" as="geometry" />
        </mxCell>
        <mxCell id="FfjkxNWrbGcJP8TpGep8-71" style="edgeStyle=orthogonalEdgeStyle;rounded=0;orthogonalLoop=1;jettySize=auto;html=1;exitX=1;exitY=0.5;exitDx=0;exitDy=0;exitPerimeter=0;entryX=0.5;entryY=0;entryDx=0;entryDy=0;entryPerimeter=0;fontSize=14;labelBackgroundColor=none;fontColor=#000000;" parent="1" source="FfjkxNWrbGcJP8TpGep8-63" target="FfjkxNWrbGcJP8TpGep8-64" edge="1">
          <mxGeometry relative="1" as="geometry" />
        </mxCell>
        <mxCell id="FfjkxNWrbGcJP8TpGep8-72" value="no" style="edgeLabel;html=1;align=center;verticalAlign=middle;resizable=0;points=[];fontSize=14;labelBackgroundColor=none;fontColor=#000000;" parent="FfjkxNWrbGcJP8TpGep8-71" vertex="1" connectable="0">
          <mxGeometry x="-0.3362" y="1" relative="1" as="geometry">
            <mxPoint as="offset" />
          </mxGeometry>
        </mxCell>
        <mxCell id="FfjkxNWrbGcJP8TpGep8-80" style="edgeStyle=orthogonalEdgeStyle;rounded=0;orthogonalLoop=1;jettySize=auto;html=1;exitX=0.5;exitY=1;exitDx=0;exitDy=0;exitPerimeter=0;fontSize=14;labelBackgroundColor=none;fontColor=#000000;" parent="1" source="FfjkxNWrbGcJP8TpGep8-65" target="bbl1epnfbIa33jh1_Hoh-14" edge="1">
          <mxGeometry relative="1" as="geometry">
            <mxPoint x="181" y="100" as="targetPoint" />
          </mxGeometry>
        </mxCell>
        <mxCell id="FfjkxNWrbGcJP8TpGep8-81" value="yes" style="edgeLabel;html=1;align=center;verticalAlign=middle;resizable=0;points=[];fontSize=14;labelBackgroundColor=none;fontColor=#000000;" parent="FfjkxNWrbGcJP8TpGep8-80" vertex="1" connectable="0">
          <mxGeometry x="-0.1809" y="1" relative="1" as="geometry">
            <mxPoint as="offset" />
          </mxGeometry>
        </mxCell>
        <mxCell id="FfjkxNWrbGcJP8TpGep8-82" value="&lt;div style=&quot;&quot;&gt;&lt;pre style=&quot;font-family: &amp;quot;JetBrains Mono&amp;quot;, monospace;&quot;&gt;&lt;pre style=&quot;font-family: &amp;quot;JetBrains Mono&amp;quot;, monospace;&quot;&gt;&lt;pre style=&quot;font-family: &amp;quot;JetBrains Mono&amp;quot;, monospace;&quot;&gt;result = &lt;span style=&quot;&quot;&gt;new &lt;/span&gt;Truth();&lt;/pre&gt;&lt;/pre&gt;&lt;/pre&gt;&lt;/div&gt;" style="shape=process;whiteSpace=wrap;html=1;backgroundOutline=1;size=0.02875399361022364;fontSize=14;labelBackgroundColor=none;fontColor=#000000;" parent="1" vertex="1">
          <mxGeometry x="68.33" y="-270" width="227.49" height="50" as="geometry" />
        </mxCell>
        <mxCell id="FfjkxNWrbGcJP8TpGep8-86" style="edgeStyle=orthogonalEdgeStyle;rounded=0;orthogonalLoop=1;jettySize=auto;html=1;exitX=0.5;exitY=1;exitDx=0;exitDy=0;fontSize=14;labelBackgroundColor=none;fontColor=#000000;" parent="1" source="FfjkxNWrbGcJP8TpGep8-83" edge="1">
          <mxGeometry relative="1" as="geometry">
            <Array as="points">
              <mxPoint x="528" y="-80" />
            </Array>
            <mxPoint x="180" y="-80" as="targetPoint" />
          </mxGeometry>
        </mxCell>
        <mxCell id="FfjkxNWrbGcJP8TpGep8-83" value="&lt;div style=&quot;&quot;&gt;&lt;pre style=&quot;font-family: &amp;quot;JetBrains Mono&amp;quot;, monospace;&quot;&gt;&lt;pre style=&quot;font-family: &amp;quot;JetBrains Mono&amp;quot;, monospace;&quot;&gt;&lt;pre style=&quot;font-family: &amp;quot;JetBrains Mono&amp;quot;, monospace;&quot;&gt;&lt;pre style=&quot;font-family: &amp;quot;JetBrains Mono&amp;quot;, monospace;&quot;&gt;result = &lt;span style=&quot;&quot;&gt;new &lt;/span&gt;False();&lt;/pre&gt;&lt;/pre&gt;&lt;/pre&gt;&lt;/pre&gt;&lt;/div&gt;" style="shape=process;whiteSpace=wrap;html=1;backgroundOutline=1;size=0.02875399361022364;fontSize=14;labelBackgroundColor=none;fontColor=#000000;" parent="1" vertex="1">
          <mxGeometry x="405.83" y="-160" width="244.99" height="50" as="geometry" />
        </mxCell>
        <mxCell id="FfjkxNWrbGcJP8TpGep8-89" style="edgeStyle=orthogonalEdgeStyle;rounded=0;orthogonalLoop=1;jettySize=auto;html=1;exitX=0.5;exitY=1;exitDx=0;exitDy=0;entryX=0.5;entryY=0;entryDx=0;entryDy=0;entryPerimeter=0;fontSize=14;labelBackgroundColor=none;fontColor=#000000;" parent="1" source="FfjkxNWrbGcJP8TpGep8-82" target="FfjkxNWrbGcJP8TpGep8-65" edge="1">
          <mxGeometry relative="1" as="geometry" />
        </mxCell>
        <mxCell id="bbl1epnfbIa33jh1_Hoh-12" style="edgeStyle=orthogonalEdgeStyle;rounded=0;orthogonalLoop=1;jettySize=auto;html=1;exitX=0.5;exitY=1;exitDx=0;exitDy=0;entryX=0.5;entryY=0;entryDx=0;entryDy=0;fontSize=14;labelBackgroundColor=none;fontColor=#000000;" parent="1" source="FfjkxNWrbGcJP8TpGep8-90" target="bbl1epnfbIa33jh1_Hoh-11" edge="1">
          <mxGeometry relative="1" as="geometry" />
        </mxCell>
        <mxCell id="FfjkxNWrbGcJP8TpGep8-90" value="&lt;div style=&quot;&quot;&gt;&lt;pre style=&quot;font-family: &amp;quot;JetBrains Mono&amp;quot;, monospace;&quot;&gt;&lt;pre style=&quot;font-family: &amp;quot;JetBrains Mono&amp;quot;, monospace;&quot;&gt;&lt;div&gt;&lt;pre style=&quot;font-family: &amp;quot;JetBrains Mono&amp;quot;, monospace;&quot;&gt;result = &lt;span style=&quot;&quot;&gt;new &lt;/span&gt;PropositionalVariable(input);&lt;/pre&gt;&lt;/div&gt;&lt;/pre&gt;&lt;/pre&gt;&lt;/div&gt;" style="shape=process;whiteSpace=wrap;html=1;backgroundOutline=1;size=0.02875399361022364;fontSize=14;labelBackgroundColor=none;fontColor=#000000;" parent="1" vertex="1">
          <mxGeometry x="38.959999999999994" y="350" width="457.49" height="50" as="geometry" />
        </mxCell>
        <mxCell id="FfjkxNWrbGcJP8TpGep8-101" style="edgeStyle=orthogonalEdgeStyle;rounded=0;orthogonalLoop=1;jettySize=auto;html=1;exitX=0.5;exitY=1;exitDx=0;exitDy=0;entryX=0.5;entryY=0;entryDx=0;entryDy=0;fontSize=14;labelBackgroundColor=none;fontColor=#000000;" parent="1" source="FfjkxNWrbGcJP8TpGep8-95" target="FfjkxNWrbGcJP8TpGep8-96" edge="1">
          <mxGeometry relative="1" as="geometry" />
        </mxCell>
        <mxCell id="FfjkxNWrbGcJP8TpGep8-95" value="&lt;div style=&quot;&quot;&gt;&lt;pre style=&quot;font-family: &amp;quot;JetBrains Mono&amp;quot;, monospace;&quot;&gt;&lt;pre style=&quot;font-family: &amp;quot;JetBrains Mono&amp;quot;, monospace;&quot;&gt;&lt;pre style=&quot;font-family: &amp;quot;JetBrains Mono&amp;quot;, monospace;&quot;&gt;&lt;div&gt;&lt;pre style=&quot;font-family: &amp;quot;JetBrains Mono&amp;quot;, monospace;&quot;&gt;&lt;span style=&quot;&quot;&gt;string &lt;/span&gt;left = FindLeftSubFormula(input);&lt;/pre&gt;&lt;/div&gt;&lt;/pre&gt;&lt;/pre&gt;&lt;/pre&gt;&lt;/div&gt;" style="shape=process;whiteSpace=wrap;html=1;backgroundOutline=1;size=0.02875399361022364;fontSize=14;labelBackgroundColor=none;fontColor=#000000;" parent="1" vertex="1">
          <mxGeometry x="-642.49" y="-380" width="457.49" height="50" as="geometry" />
        </mxCell>
        <mxCell id="FfjkxNWrbGcJP8TpGep8-102" style="edgeStyle=orthogonalEdgeStyle;rounded=0;orthogonalLoop=1;jettySize=auto;html=1;exitX=0.5;exitY=1;exitDx=0;exitDy=0;fontSize=14;labelBackgroundColor=none;fontColor=#000000;" parent="1" source="FfjkxNWrbGcJP8TpGep8-96" target="FfjkxNWrbGcJP8TpGep8-97" edge="1">
          <mxGeometry relative="1" as="geometry" />
        </mxCell>
        <mxCell id="FfjkxNWrbGcJP8TpGep8-96" value="&lt;div style=&quot;&quot;&gt;&lt;pre style=&quot;font-family: &amp;quot;JetBrains Mono&amp;quot;, monospace;&quot;&gt;&lt;pre style=&quot;font-family: &amp;quot;JetBrains Mono&amp;quot;, monospace;&quot;&gt;&lt;pre style=&quot;font-family: &amp;quot;JetBrains Mono&amp;quot;, monospace;&quot;&gt;&lt;pre style=&quot;font-family: &amp;quot;JetBrains Mono&amp;quot;, monospace;&quot;&gt;&lt;div&gt;&lt;pre style=&quot;font-family: &amp;quot;JetBrains Mono&amp;quot;, monospace;&quot;&gt;&lt;span style=&quot;&quot;&gt;string &lt;/span&gt;right = FindRightSubFormula(input);&lt;/pre&gt;&lt;/div&gt;&lt;/pre&gt;&lt;/pre&gt;&lt;/pre&gt;&lt;/pre&gt;&lt;/div&gt;" style="shape=process;whiteSpace=wrap;html=1;backgroundOutline=1;size=0.02875399361022364;fontSize=14;labelBackgroundColor=none;fontColor=#000000;" parent="1" vertex="1">
          <mxGeometry x="-642.49" y="-290" width="457.49" height="50" as="geometry" />
        </mxCell>
        <mxCell id="FfjkxNWrbGcJP8TpGep8-306" style="edgeStyle=orthogonalEdgeStyle;rounded=0;orthogonalLoop=1;jettySize=auto;html=1;exitX=0.5;exitY=1;exitDx=0;exitDy=0;entryX=0.5;entryY=0;entryDx=0;entryDy=0;fontSize=14;labelBackgroundColor=none;fontColor=#000000;" parent="1" source="FfjkxNWrbGcJP8TpGep8-97" target="FfjkxNWrbGcJP8TpGep8-255" edge="1">
          <mxGeometry relative="1" as="geometry" />
        </mxCell>
        <mxCell id="FfjkxNWrbGcJP8TpGep8-97" value="&lt;div style=&quot;&quot;&gt;&lt;pre style=&quot;font-family: &amp;quot;JetBrains Mono&amp;quot;, monospace;&quot;&gt;&lt;pre style=&quot;font-family: &amp;quot;JetBrains Mono&amp;quot;, monospace;&quot;&gt;&lt;pre style=&quot;font-family: &amp;quot;JetBrains Mono&amp;quot;, monospace;&quot;&gt;&lt;pre style=&quot;font-family: &amp;quot;JetBrains Mono&amp;quot;, monospace;&quot;&gt;&lt;pre style=&quot;font-family: &amp;quot;JetBrains Mono&amp;quot;, monospace;&quot;&gt;&lt;div&gt;&lt;pre style=&quot;font-family: &amp;quot;JetBrains Mono&amp;quot;, monospace;&quot;&gt;&lt;span style=&quot;&quot;&gt;char &lt;/span&gt;sign = input[FindMiddleSign(input)];&lt;/pre&gt;&lt;/div&gt;&lt;/pre&gt;&lt;/pre&gt;&lt;/pre&gt;&lt;/pre&gt;&lt;/pre&gt;&lt;/div&gt;" style="shape=process;whiteSpace=wrap;html=1;backgroundOutline=1;size=0.02875399361022364;fontSize=14;labelBackgroundColor=none;fontColor=#000000;" parent="1" vertex="1">
          <mxGeometry x="-642.49" y="-200" width="457.49" height="50" as="geometry" />
        </mxCell>
        <mxCell id="FfjkxNWrbGcJP8TpGep8-313" style="edgeStyle=orthogonalEdgeStyle;rounded=0;orthogonalLoop=1;jettySize=auto;html=1;exitX=1;exitY=0.5;exitDx=0;exitDy=0;exitPerimeter=0;fontSize=14;labelBackgroundColor=none;fontColor=#000000;" parent="1" source="FfjkxNWrbGcJP8TpGep8-100" edge="1">
          <mxGeometry relative="1" as="geometry">
            <mxPoint x="-200" y="1220" as="targetPoint" />
          </mxGeometry>
        </mxCell>
        <mxCell id="FfjkxNWrbGcJP8TpGep8-314" value="yes" style="edgeLabel;html=1;align=center;verticalAlign=middle;resizable=0;points=[];fontSize=14;labelBackgroundColor=none;fontColor=#000000;" parent="FfjkxNWrbGcJP8TpGep8-313" vertex="1" connectable="0">
          <mxGeometry x="0.0574" y="-1" relative="1" as="geometry">
            <mxPoint as="offset" />
          </mxGeometry>
        </mxCell>
        <mxCell id="FfjkxNWrbGcJP8TpGep8-317" style="edgeStyle=orthogonalEdgeStyle;rounded=0;orthogonalLoop=1;jettySize=auto;html=1;exitX=0.5;exitY=1;exitDx=0;exitDy=0;exitPerimeter=0;entryX=0.5;entryY=0;entryDx=0;entryDy=0;fontSize=14;labelBackgroundColor=none;fontColor=#000000;" parent="1" source="FfjkxNWrbGcJP8TpGep8-100" target="FfjkxNWrbGcJP8TpGep8-315" edge="1">
          <mxGeometry relative="1" as="geometry" />
        </mxCell>
        <mxCell id="FfjkxNWrbGcJP8TpGep8-318" value="no" style="edgeLabel;html=1;align=center;verticalAlign=middle;resizable=0;points=[];fontSize=14;labelBackgroundColor=none;fontColor=#000000;" parent="FfjkxNWrbGcJP8TpGep8-317" vertex="1" connectable="0">
          <mxGeometry x="-0.16" y="3" relative="1" as="geometry">
            <mxPoint as="offset" />
          </mxGeometry>
        </mxCell>
        <mxCell id="FfjkxNWrbGcJP8TpGep8-100" value="&lt;div style=&quot;&quot;&gt;&lt;pre style=&quot;font-family: &amp;quot;JetBrains Mono&amp;quot;, monospace;&quot;&gt;&lt;pre style=&quot;font-family: &amp;quot;JetBrains Mono&amp;quot;, monospace;&quot;&gt;&lt;div&gt;&lt;pre style=&quot;font-family: &amp;quot;JetBrains Mono&amp;quot;, monospace;&quot;&gt;result &lt;span style=&quot;&quot;&gt;is &lt;/span&gt;not &lt;span style=&quot;&quot;&gt;null&lt;/span&gt;&lt;/pre&gt;&lt;/div&gt;&lt;/pre&gt;&lt;/pre&gt;&lt;/div&gt;" style="strokeWidth=2;html=1;shape=mxgraph.flowchart.decision;whiteSpace=wrap;fontSize=14;labelBackgroundColor=none;fontColor=#000000;" parent="1" vertex="1">
          <mxGeometry x="-546.33" y="1170" width="255" height="100" as="geometry" />
        </mxCell>
        <mxCell id="FfjkxNWrbGcJP8TpGep8-250" style="edgeStyle=orthogonalEdgeStyle;rounded=0;orthogonalLoop=1;jettySize=auto;html=1;exitX=1;exitY=0.5;exitDx=0;exitDy=0;" parent="1" edge="1">
          <mxGeometry relative="1" as="geometry">
            <Array as="points">
              <mxPoint x="4400" y="2670" />
              <mxPoint x="4400" y="2890" />
              <mxPoint x="4031" y="2890" />
            </Array>
            <mxPoint x="4204.38" y="2670" as="sourcePoint" />
          </mxGeometry>
        </mxCell>
        <mxCell id="FfjkxNWrbGcJP8TpGep8-292" style="edgeStyle=orthogonalEdgeStyle;rounded=0;orthogonalLoop=1;jettySize=auto;html=1;exitX=0.5;exitY=1;exitDx=0;exitDy=0;entryX=0.5;entryY=0;entryDx=0;entryDy=0;fontSize=14;labelBackgroundColor=none;fontColor=#000000;" parent="1" source="FfjkxNWrbGcJP8TpGep8-255" target="FfjkxNWrbGcJP8TpGep8-291" edge="1">
          <mxGeometry relative="1" as="geometry" />
        </mxCell>
        <mxCell id="FfjkxNWrbGcJP8TpGep8-293" value="yes" style="edgeLabel;html=1;align=center;verticalAlign=middle;resizable=0;points=[];fontSize=14;labelBackgroundColor=none;fontColor=#000000;" parent="FfjkxNWrbGcJP8TpGep8-292" vertex="1" connectable="0">
          <mxGeometry x="0.066" y="1" relative="1" as="geometry">
            <mxPoint as="offset" />
          </mxGeometry>
        </mxCell>
        <mxCell id="FfjkxNWrbGcJP8TpGep8-255" value="&lt;div style=&quot;&quot;&gt;&lt;pre style=&quot;font-family: &amp;quot;JetBrains Mono&amp;quot;, monospace;&quot;&gt;&lt;div&gt;&lt;pre style=&quot;font-family: &amp;quot;JetBrains Mono&amp;quot;, monospace;&quot;&gt;sign == &#39;!&#39;&lt;/pre&gt;&lt;/div&gt;&lt;/pre&gt;&lt;/div&gt;" style="rhombus;whiteSpace=wrap;html=1;fontSize=14;labelBackgroundColor=none;fontColor=#000000;" parent="1" vertex="1">
          <mxGeometry x="-536.33" y="-60" width="235" height="80" as="geometry" />
        </mxCell>
        <mxCell id="FfjkxNWrbGcJP8TpGep8-261" style="edgeStyle=orthogonalEdgeStyle;rounded=0;orthogonalLoop=1;jettySize=auto;html=1;exitX=1;exitY=0.5;exitDx=0;exitDy=0;fontSize=14;labelBackgroundColor=none;fontColor=#000000;" parent="1" source="FfjkxNWrbGcJP8TpGep8-263" target="FfjkxNWrbGcJP8TpGep8-279" edge="1">
          <mxGeometry relative="1" as="geometry">
            <Array as="points">
              <mxPoint x="-38.03" y="200" />
              <mxPoint x="-38.03" y="350" />
              <mxPoint x="-425.03" y="350" />
            </Array>
          </mxGeometry>
        </mxCell>
        <mxCell id="FfjkxNWrbGcJP8TpGep8-262" value="no" style="edgeLabel;html=1;align=center;verticalAlign=middle;resizable=0;points=[];fontSize=14;labelBackgroundColor=none;fontColor=#000000;" parent="FfjkxNWrbGcJP8TpGep8-261" vertex="1" connectable="0">
          <mxGeometry x="-0.905" y="1" relative="1" as="geometry">
            <mxPoint as="offset" />
          </mxGeometry>
        </mxCell>
        <mxCell id="FfjkxNWrbGcJP8TpGep8-297" style="edgeStyle=orthogonalEdgeStyle;rounded=0;orthogonalLoop=1;jettySize=auto;html=1;exitX=0.5;exitY=1;exitDx=0;exitDy=0;entryX=0.5;entryY=0;entryDx=0;entryDy=0;fontSize=14;labelBackgroundColor=none;fontColor=#000000;" parent="1" source="FfjkxNWrbGcJP8TpGep8-263" target="FfjkxNWrbGcJP8TpGep8-294" edge="1">
          <mxGeometry relative="1" as="geometry" />
        </mxCell>
        <mxCell id="FfjkxNWrbGcJP8TpGep8-298" value="yes" style="edgeLabel;html=1;align=center;verticalAlign=middle;resizable=0;points=[];fontSize=14;labelBackgroundColor=none;fontColor=#000000;" parent="FfjkxNWrbGcJP8TpGep8-297" vertex="1" connectable="0">
          <mxGeometry x="-0.2046" y="-1" relative="1" as="geometry">
            <mxPoint as="offset" />
          </mxGeometry>
        </mxCell>
        <mxCell id="FfjkxNWrbGcJP8TpGep8-263" value="&lt;div style=&quot;&quot;&gt;&lt;pre style=&quot;font-family: &amp;quot;JetBrains Mono&amp;quot;, monospace;&quot;&gt;&lt;pre style=&quot;font-family: &amp;quot;JetBrains Mono&amp;quot;, monospace;&quot;&gt;sign == &#39;&amp;amp;&#39;&lt;/pre&gt;&lt;/pre&gt;&lt;/div&gt;" style="rhombus;whiteSpace=wrap;html=1;fontSize=14;labelBackgroundColor=none;fontColor=#000000;" parent="1" vertex="1">
          <mxGeometry x="-542.61" y="160" width="235" height="80" as="geometry" />
        </mxCell>
        <mxCell id="FfjkxNWrbGcJP8TpGep8-289" style="edgeStyle=orthogonalEdgeStyle;rounded=0;orthogonalLoop=1;jettySize=auto;html=1;exitX=1;exitY=0.5;exitDx=0;exitDy=0;fontSize=14;labelBackgroundColor=none;fontColor=#000000;" parent="1" source="FfjkxNWrbGcJP8TpGep8-269" target="FfjkxNWrbGcJP8TpGep8-285" edge="1">
          <mxGeometry relative="1" as="geometry">
            <Array as="points">
              <mxPoint x="-40" y="690" />
              <mxPoint x="-40" y="860" />
              <mxPoint x="-437" y="860" />
            </Array>
          </mxGeometry>
        </mxCell>
        <mxCell id="FfjkxNWrbGcJP8TpGep8-290" value="no" style="edgeLabel;html=1;align=center;verticalAlign=middle;resizable=0;points=[];fontSize=14;labelBackgroundColor=none;fontColor=#000000;" parent="FfjkxNWrbGcJP8TpGep8-289" vertex="1" connectable="0">
          <mxGeometry x="-0.9082" y="1" relative="1" as="geometry">
            <mxPoint as="offset" />
          </mxGeometry>
        </mxCell>
        <mxCell id="FfjkxNWrbGcJP8TpGep8-301" style="edgeStyle=orthogonalEdgeStyle;rounded=0;orthogonalLoop=1;jettySize=auto;html=1;exitX=0.5;exitY=1;exitDx=0;exitDy=0;entryX=0.5;entryY=0;entryDx=0;entryDy=0;fontSize=14;labelBackgroundColor=none;fontColor=#000000;" parent="1" source="FfjkxNWrbGcJP8TpGep8-269" target="FfjkxNWrbGcJP8TpGep8-296" edge="1">
          <mxGeometry relative="1" as="geometry" />
        </mxCell>
        <mxCell id="FfjkxNWrbGcJP8TpGep8-302" value="yes" style="edgeLabel;html=1;align=center;verticalAlign=middle;resizable=0;points=[];fontSize=14;labelBackgroundColor=none;fontColor=#000000;" parent="FfjkxNWrbGcJP8TpGep8-301" vertex="1" connectable="0">
          <mxGeometry x="-0.1711" y="2" relative="1" as="geometry">
            <mxPoint as="offset" />
          </mxGeometry>
        </mxCell>
        <mxCell id="FfjkxNWrbGcJP8TpGep8-269" value="&lt;div style=&quot;&quot;&gt;&lt;pre style=&quot;font-family: &amp;quot;JetBrains Mono&amp;quot;, monospace;&quot;&gt;&lt;pre style=&quot;font-family: &amp;quot;JetBrains Mono&amp;quot;, monospace;&quot;&gt;sign == &#39;-&#39;&lt;/pre&gt;&lt;/pre&gt;&lt;/div&gt;" style="rhombus;whiteSpace=wrap;html=1;fontSize=14;labelBackgroundColor=none;fontColor=#000000;" parent="1" vertex="1">
          <mxGeometry x="-548.36" y="650" width="235" height="80" as="geometry" />
        </mxCell>
        <mxCell id="FfjkxNWrbGcJP8TpGep8-275" style="edgeStyle=orthogonalEdgeStyle;rounded=0;orthogonalLoop=1;jettySize=auto;html=1;exitX=1;exitY=0.5;exitDx=0;exitDy=0;entryX=0.537;entryY=0.019;entryDx=0;entryDy=0;entryPerimeter=0;fontSize=14;labelBackgroundColor=none;fontColor=#000000;" parent="1" source="FfjkxNWrbGcJP8TpGep8-255" target="FfjkxNWrbGcJP8TpGep8-263" edge="1">
          <mxGeometry relative="1" as="geometry">
            <Array as="points">
              <mxPoint x="-38" y="-20" />
              <mxPoint x="-38" y="130" />
              <mxPoint x="-416" y="130" />
            </Array>
          </mxGeometry>
        </mxCell>
        <mxCell id="FfjkxNWrbGcJP8TpGep8-276" value="no" style="edgeLabel;html=1;align=center;verticalAlign=middle;resizable=0;points=[];fontSize=14;labelBackgroundColor=none;fontColor=#000000;" parent="FfjkxNWrbGcJP8TpGep8-275" vertex="1" connectable="0">
          <mxGeometry x="-0.9063" y="2" relative="1" as="geometry">
            <mxPoint as="offset" />
          </mxGeometry>
        </mxCell>
        <mxCell id="FfjkxNWrbGcJP8TpGep8-277" style="edgeStyle=orthogonalEdgeStyle;rounded=0;orthogonalLoop=1;jettySize=auto;html=1;exitX=1;exitY=0.5;exitDx=0;exitDy=0;fontSize=14;labelBackgroundColor=none;fontColor=#000000;" parent="1" source="FfjkxNWrbGcJP8TpGep8-279" target="FfjkxNWrbGcJP8TpGep8-269" edge="1">
          <mxGeometry relative="1" as="geometry">
            <Array as="points">
              <mxPoint x="-37.53" y="440" />
              <mxPoint x="-37.53" y="600" />
              <mxPoint x="-425.53" y="600" />
            </Array>
          </mxGeometry>
        </mxCell>
        <mxCell id="FfjkxNWrbGcJP8TpGep8-278" value="no" style="edgeLabel;html=1;align=center;verticalAlign=middle;resizable=0;points=[];fontSize=14;labelBackgroundColor=none;fontColor=#000000;" parent="FfjkxNWrbGcJP8TpGep8-277" vertex="1" connectable="0">
          <mxGeometry x="-0.9304" y="1" relative="1" as="geometry">
            <mxPoint as="offset" />
          </mxGeometry>
        </mxCell>
        <mxCell id="FfjkxNWrbGcJP8TpGep8-299" style="edgeStyle=orthogonalEdgeStyle;rounded=0;orthogonalLoop=1;jettySize=auto;html=1;exitX=0.5;exitY=1;exitDx=0;exitDy=0;entryX=0.5;entryY=0;entryDx=0;entryDy=0;fontSize=14;labelBackgroundColor=none;fontColor=#000000;" parent="1" source="FfjkxNWrbGcJP8TpGep8-279" target="FfjkxNWrbGcJP8TpGep8-295" edge="1">
          <mxGeometry relative="1" as="geometry" />
        </mxCell>
        <mxCell id="FfjkxNWrbGcJP8TpGep8-300" value="yes" style="edgeLabel;html=1;align=center;verticalAlign=middle;resizable=0;points=[];fontSize=14;labelBackgroundColor=none;fontColor=#000000;" parent="FfjkxNWrbGcJP8TpGep8-299" vertex="1" connectable="0">
          <mxGeometry x="-0.1863" relative="1" as="geometry">
            <mxPoint as="offset" />
          </mxGeometry>
        </mxCell>
        <mxCell id="FfjkxNWrbGcJP8TpGep8-279" value="&lt;div style=&quot;&quot;&gt;&lt;pre style=&quot;font-family: &amp;quot;JetBrains Mono&amp;quot;, monospace;&quot;&gt;&lt;pre style=&quot;font-family: &amp;quot;JetBrains Mono&amp;quot;, monospace;&quot;&gt;sign == &#39;|&#39;&lt;/pre&gt;&lt;/pre&gt;&lt;/div&gt;" style="rhombus;whiteSpace=wrap;html=1;fontSize=14;labelBackgroundColor=none;fontColor=#000000;" parent="1" vertex="1">
          <mxGeometry x="-542.11" y="400" width="235" height="80" as="geometry" />
        </mxCell>
        <mxCell id="FfjkxNWrbGcJP8TpGep8-304" style="edgeStyle=orthogonalEdgeStyle;rounded=0;orthogonalLoop=1;jettySize=auto;html=1;exitX=0.5;exitY=1;exitDx=0;exitDy=0;entryX=0.5;entryY=0;entryDx=0;entryDy=0;fontSize=14;labelBackgroundColor=none;fontColor=#000000;" parent="1" source="FfjkxNWrbGcJP8TpGep8-285" target="FfjkxNWrbGcJP8TpGep8-303" edge="1">
          <mxGeometry relative="1" as="geometry" />
        </mxCell>
        <mxCell id="FfjkxNWrbGcJP8TpGep8-305" value="yes" style="edgeLabel;html=1;align=center;verticalAlign=middle;resizable=0;points=[];fontSize=14;labelBackgroundColor=none;fontColor=#000000;" parent="FfjkxNWrbGcJP8TpGep8-304" vertex="1" connectable="0">
          <mxGeometry x="-0.0803" y="-1" relative="1" as="geometry">
            <mxPoint as="offset" />
          </mxGeometry>
        </mxCell>
        <mxCell id="FfjkxNWrbGcJP8TpGep8-285" value="&lt;div style=&quot;&quot;&gt;&lt;pre style=&quot;font-family: &amp;quot;JetBrains Mono&amp;quot;, monospace;&quot;&gt;&lt;pre style=&quot;font-family: &amp;quot;JetBrains Mono&amp;quot;, monospace;&quot;&gt;sign == &#39;~&#39;&lt;/pre&gt;&lt;/pre&gt;&lt;/div&gt;" style="rhombus;whiteSpace=wrap;html=1;fontSize=14;labelBackgroundColor=none;fontColor=#000000;" parent="1" vertex="1">
          <mxGeometry x="-554.61" y="910" width="235" height="80" as="geometry" />
        </mxCell>
        <mxCell id="FfjkxNWrbGcJP8TpGep8-307" style="edgeStyle=orthogonalEdgeStyle;rounded=0;orthogonalLoop=1;jettySize=auto;html=1;exitX=0.5;exitY=1;exitDx=0;exitDy=0;entryX=0.5;entryY=0;entryDx=0;entryDy=0;entryPerimeter=0;fontSize=14;labelBackgroundColor=none;fontColor=#000000;" parent="1" source="FfjkxNWrbGcJP8TpGep8-291" target="FfjkxNWrbGcJP8TpGep8-100" edge="1">
          <mxGeometry relative="1" as="geometry">
            <Array as="points">
              <mxPoint x="-419" y="120" />
              <mxPoint x="-720" y="120" />
              <mxPoint x="-720" y="1120" />
              <mxPoint x="-419" y="1120" />
            </Array>
          </mxGeometry>
        </mxCell>
        <mxCell id="FfjkxNWrbGcJP8TpGep8-291" value="&lt;div style=&quot;&quot;&gt;&lt;pre style=&quot;font-family: &amp;quot;JetBrains Mono&amp;quot;, monospace;&quot;&gt;&lt;pre style=&quot;font-family: &amp;quot;JetBrains Mono&amp;quot;, monospace;&quot;&gt;&lt;pre style=&quot;font-family: &amp;quot;JetBrains Mono&amp;quot;, monospace;&quot;&gt;&lt;div&gt;&lt;pre style=&quot;font-family: &amp;quot;JetBrains Mono&amp;quot;, monospace;&quot;&gt;result = &lt;span style=&quot;&quot;&gt;new &lt;/span&gt;Negation(Parse(right));&lt;/pre&gt;&lt;/div&gt;&lt;/pre&gt;&lt;/pre&gt;&lt;/pre&gt;&lt;/div&gt;" style="shape=process;whiteSpace=wrap;html=1;backgroundOutline=1;size=0.02875399361022364;fontSize=14;labelBackgroundColor=none;fontColor=#000000;" parent="1" vertex="1">
          <mxGeometry x="-622.39" y="60" width="407.11" height="50" as="geometry" />
        </mxCell>
        <mxCell id="cOOqguh06IZceh5hziDc-9" style="edgeStyle=orthogonalEdgeStyle;rounded=0;orthogonalLoop=1;jettySize=auto;html=1;exitX=0.5;exitY=1;exitDx=0;exitDy=0;fontSize=14;labelBackgroundColor=none;fontColor=#000000;" parent="1" source="FfjkxNWrbGcJP8TpGep8-294" edge="1">
          <mxGeometry relative="1" as="geometry">
            <mxPoint x="-720" y="340" as="targetPoint" />
            <Array as="points">
              <mxPoint x="-379" y="340" />
            </Array>
          </mxGeometry>
        </mxCell>
        <mxCell id="FfjkxNWrbGcJP8TpGep8-294" value="&lt;div style=&quot;&quot;&gt;&lt;pre style=&quot;font-family: &amp;quot;JetBrains Mono&amp;quot;, monospace;&quot;&gt;&lt;pre style=&quot;font-family: &amp;quot;JetBrains Mono&amp;quot;, monospace;&quot;&gt;&lt;pre style=&quot;font-family: &amp;quot;JetBrains Mono&amp;quot;, monospace;&quot;&gt;&lt;pre style=&quot;font-family: &amp;quot;JetBrains Mono&amp;quot;, monospace;&quot;&gt;&lt;div&gt;&lt;pre style=&quot;font-family: &amp;quot;JetBrains Mono&amp;quot;, monospace;&quot;&gt;result = &lt;span style=&quot;&quot;&gt;new &lt;/span&gt;Conjunction(Parse(left), Parse(right));&lt;/pre&gt;&lt;/div&gt;&lt;/pre&gt;&lt;/pre&gt;&lt;/pre&gt;&lt;/pre&gt;&lt;/div&gt;" style="shape=process;whiteSpace=wrap;html=1;backgroundOutline=1;size=0.02875399361022364;fontSize=14;labelBackgroundColor=none;fontColor=#000000;" parent="1" vertex="1">
          <mxGeometry x="-628.17" y="270" width="498.17" height="50" as="geometry" />
        </mxCell>
        <mxCell id="cOOqguh06IZceh5hziDc-7" style="edgeStyle=orthogonalEdgeStyle;rounded=0;orthogonalLoop=1;jettySize=auto;html=1;exitX=0.5;exitY=1;exitDx=0;exitDy=0;fontSize=14;labelBackgroundColor=none;fontColor=#000000;" parent="1" source="FfjkxNWrbGcJP8TpGep8-295" edge="1">
          <mxGeometry relative="1" as="geometry">
            <mxPoint x="-720" y="580" as="targetPoint" />
            <Array as="points">
              <mxPoint x="-375" y="580" />
              <mxPoint x="-720" y="580" />
            </Array>
          </mxGeometry>
        </mxCell>
        <mxCell id="FfjkxNWrbGcJP8TpGep8-295" value="&lt;div style=&quot;&quot;&gt;&lt;pre style=&quot;font-family: &amp;quot;JetBrains Mono&amp;quot;, monospace;&quot;&gt;&lt;pre style=&quot;font-family: &amp;quot;JetBrains Mono&amp;quot;, monospace;&quot;&gt;&lt;pre style=&quot;font-family: &amp;quot;JetBrains Mono&amp;quot;, monospace;&quot;&gt;&lt;pre style=&quot;font-family: &amp;quot;JetBrains Mono&amp;quot;, monospace;&quot;&gt;&lt;div&gt;&lt;pre style=&quot;font-family: &amp;quot;JetBrains Mono&amp;quot;, monospace;&quot;&gt;result = &lt;span style=&quot;&quot;&gt;new &lt;/span&gt;Disjunction(Parse(left), Parse(right));&lt;/pre&gt;&lt;/div&gt;&lt;/pre&gt;&lt;/pre&gt;&lt;/pre&gt;&lt;/pre&gt;&lt;/div&gt;" style="shape=process;whiteSpace=wrap;html=1;backgroundOutline=1;size=0.02875399361022364;fontSize=14;labelBackgroundColor=none;fontColor=#000000;" parent="1" vertex="1">
          <mxGeometry x="-630" y="510" width="510" height="50" as="geometry" />
        </mxCell>
        <mxCell id="cOOqguh06IZceh5hziDc-6" style="edgeStyle=orthogonalEdgeStyle;rounded=0;orthogonalLoop=1;jettySize=auto;html=1;exitX=0.5;exitY=1;exitDx=0;exitDy=0;fontSize=14;labelBackgroundColor=none;fontColor=#000000;" parent="1" edge="1">
          <mxGeometry relative="1" as="geometry">
            <mxPoint x="-720" y="840" as="targetPoint" />
            <mxPoint x="-372.51000000000005" y="820" as="sourcePoint" />
            <Array as="points">
              <mxPoint x="-372" y="840" />
              <mxPoint x="-710" y="840" />
            </Array>
          </mxGeometry>
        </mxCell>
        <mxCell id="FfjkxNWrbGcJP8TpGep8-296" value="&lt;div style=&quot;&quot;&gt;&lt;pre style=&quot;font-family: &amp;quot;JetBrains Mono&amp;quot;, monospace;&quot;&gt;&lt;pre style=&quot;font-family: &amp;quot;JetBrains Mono&amp;quot;, monospace;&quot;&gt;&lt;pre style=&quot;font-family: &amp;quot;JetBrains Mono&amp;quot;, monospace;&quot;&gt;&lt;pre style=&quot;font-family: &amp;quot;JetBrains Mono&amp;quot;, monospace;&quot;&gt;&lt;div&gt;&lt;pre style=&quot;font-family: &amp;quot;JetBrains Mono&amp;quot;, monospace;&quot;&gt;result = &lt;span style=&quot;&quot;&gt;new &lt;/span&gt;Implication(Parse(left), Parse(right));&lt;/pre&gt;&lt;/div&gt;&lt;/pre&gt;&lt;/pre&gt;&lt;/pre&gt;&lt;/pre&gt;&lt;/div&gt;" style="shape=process;whiteSpace=wrap;html=1;backgroundOutline=1;size=0.02875399361022364;fontSize=14;labelBackgroundColor=none;fontColor=#000000;" parent="1" vertex="1">
          <mxGeometry x="-633.36" y="770" width="513.36" height="50" as="geometry" />
        </mxCell>
        <mxCell id="cOOqguh06IZceh5hziDc-4" style="edgeStyle=orthogonalEdgeStyle;rounded=0;orthogonalLoop=1;jettySize=auto;html=1;exitX=0.5;exitY=1;exitDx=0;exitDy=0;fontSize=14;labelBackgroundColor=none;fontColor=#000000;" parent="1" source="FfjkxNWrbGcJP8TpGep8-303" edge="1">
          <mxGeometry relative="1" as="geometry">
            <mxPoint x="-420" y="1120" as="targetPoint" />
          </mxGeometry>
        </mxCell>
        <mxCell id="FfjkxNWrbGcJP8TpGep8-303" value="&lt;div style=&quot;&quot;&gt;&lt;pre style=&quot;font-family: &amp;quot;JetBrains Mono&amp;quot;, monospace;&quot;&gt;&lt;pre style=&quot;font-family: &amp;quot;JetBrains Mono&amp;quot;, monospace;&quot;&gt;&lt;pre style=&quot;font-family: &amp;quot;JetBrains Mono&amp;quot;, monospace;&quot;&gt;&lt;pre style=&quot;font-family: &amp;quot;JetBrains Mono&amp;quot;, monospace;&quot;&gt;&lt;div&gt;&lt;pre style=&quot;font-family: &amp;quot;JetBrains Mono&amp;quot;, monospace;&quot;&gt;result = &lt;span style=&quot;&quot;&gt;new &lt;/span&gt;Equivalence(Parse(left), Parse(right));&lt;/pre&gt;&lt;/div&gt;&lt;/pre&gt;&lt;/pre&gt;&lt;/pre&gt;&lt;/pre&gt;&lt;/div&gt;" style="shape=process;whiteSpace=wrap;html=1;backgroundOutline=1;size=0.02875399361022364;fontSize=14;labelBackgroundColor=none;fontColor=#000000;" parent="1" vertex="1">
          <mxGeometry x="-642.49" y="1030" width="512.49" height="40" as="geometry" />
        </mxCell>
        <mxCell id="12" style="edgeStyle=orthogonalEdgeStyle;rounded=0;orthogonalLoop=1;jettySize=auto;html=1;exitX=0.5;exitY=1;exitDx=0;exitDy=0;entryX=0.5;entryY=0;entryDx=0;entryDy=0;" edge="1" parent="1" source="FfjkxNWrbGcJP8TpGep8-315" target="11">
          <mxGeometry relative="1" as="geometry" />
        </mxCell>
        <mxCell id="FfjkxNWrbGcJP8TpGep8-315" value="&lt;div style=&quot;&quot;&gt;&lt;pre style=&quot;font-family: &amp;quot;JetBrains Mono&amp;quot;, monospace;&quot;&gt;&lt;pre style=&quot;font-family: &amp;quot;JetBrains Mono&amp;quot;, monospace;&quot;&gt;&lt;pre style=&quot;font-family: &amp;quot;JetBrains Mono&amp;quot;, monospace;&quot;&gt;&lt;pre style=&quot;font-family: &amp;quot;JetBrains Mono&amp;quot;, monospace;&quot;&gt;&lt;pre style=&quot;font-family: &amp;quot;JetBrains Mono&amp;quot;, monospace;&quot;&gt;&lt;pre style=&quot;font-family: &amp;quot;JetBrains Mono&amp;quot;, monospace;&quot;&gt;&lt;pre style=&quot;font-family: &amp;quot;JetBrains Mono&amp;quot;, monospace;&quot;&gt;&lt;pre style=&quot;font-family: &amp;quot;JetBrains Mono&amp;quot;, monospace;&quot;&gt;&lt;pre style=&quot;font-family: &amp;quot;JetBrains Mono&amp;quot;, monospace;&quot;&gt;&lt;div&gt;&lt;pre style=&quot;font-family: &amp;quot;JetBrains Mono&amp;quot;, monospace;&quot;&gt;&lt;span style=&quot;&quot;&gt;throw &lt;/span&gt;&lt;span style=&quot;&quot;&gt;new &lt;/span&gt;FormatException(&lt;span style=&quot;&quot;&gt;&quot;Invalid formula&quot;&lt;/span&gt;);&lt;/pre&gt;&lt;/div&gt;&lt;/pre&gt;&lt;/pre&gt;&lt;/pre&gt;&lt;/pre&gt;&lt;/pre&gt;&lt;/pre&gt;&lt;/pre&gt;&lt;/pre&gt;&lt;/pre&gt;&lt;/div&gt;" style="rounded=0;whiteSpace=wrap;html=1;absoluteArcSize=1;arcSize=14;strokeWidth=2;fontSize=14;labelBackgroundColor=none;fontColor=#000000;" parent="1" vertex="1">
          <mxGeometry x="-648.25" y="1320" width="458.83" height="40" as="geometry" />
        </mxCell>
        <mxCell id="FfjkxNWrbGcJP8TpGep8-325" style="edgeStyle=orthogonalEdgeStyle;rounded=0;orthogonalLoop=1;jettySize=auto;html=1;exitX=0.5;exitY=1;exitDx=0;exitDy=0;entryX=0.5;entryY=0;entryDx=0;entryDy=0;fontSize=14;labelBackgroundColor=none;fontColor=#000000;" parent="1" source="FfjkxNWrbGcJP8TpGep8-321" target="FfjkxNWrbGcJP8TpGep8-323" edge="1">
          <mxGeometry relative="1" as="geometry" />
        </mxCell>
        <mxCell id="FfjkxNWrbGcJP8TpGep8-321" value="&lt;div style=&quot;&quot;&gt;&lt;pre style=&quot;font-family: &amp;quot;JetBrains Mono&amp;quot;, monospace;&quot;&gt;&lt;div&gt;&lt;pre style=&quot;font-family: &amp;quot;JetBrains Mono&amp;quot;, monospace;&quot;&gt;&lt;span style=&quot;&quot;&gt;int &lt;/span&gt;index = &lt;span style=&quot;&quot;&gt;0&lt;/span&gt;;&lt;/pre&gt;&lt;/div&gt;&lt;/pre&gt;&lt;/div&gt;" style="rounded=0;whiteSpace=wrap;html=1;absoluteArcSize=1;arcSize=14;strokeWidth=2;fontSize=14;labelBackgroundColor=none;fontColor=#000000;" parent="1" vertex="1">
          <mxGeometry x="-401.25" y="2530" width="150" height="50" as="geometry" />
        </mxCell>
        <mxCell id="FfjkxNWrbGcJP8TpGep8-326" style="edgeStyle=orthogonalEdgeStyle;rounded=0;orthogonalLoop=1;jettySize=auto;html=1;exitX=0.5;exitY=1;exitDx=0;exitDy=0;fontSize=14;labelBackgroundColor=none;fontColor=#000000;" parent="1" source="FfjkxNWrbGcJP8TpGep8-323" target="FfjkxNWrbGcJP8TpGep8-324" edge="1">
          <mxGeometry relative="1" as="geometry" />
        </mxCell>
        <mxCell id="FfjkxNWrbGcJP8TpGep8-323" value="&lt;div style=&quot;&quot;&gt;&lt;pre style=&quot;font-family: &amp;quot;JetBrains Mono&amp;quot;, monospace;&quot;&gt;&lt;pre style=&quot;font-family: &amp;quot;JetBrains Mono&amp;quot;, monospace;&quot;&gt;&lt;div&gt;&lt;pre style=&quot;font-family: &amp;quot;JetBrains Mono&amp;quot;, monospace;&quot;&gt;&lt;span style=&quot;&quot;&gt;int &lt;/span&gt;level = &lt;span style=&quot;&quot;&gt;0&lt;/span&gt;;&lt;/pre&gt;&lt;/div&gt;&lt;/pre&gt;&lt;/pre&gt;&lt;/div&gt;" style="rounded=0;whiteSpace=wrap;html=1;absoluteArcSize=1;arcSize=14;strokeWidth=2;fontSize=14;labelBackgroundColor=none;fontColor=#000000;" parent="1" vertex="1">
          <mxGeometry x="-401.25" y="2610" width="150" height="50" as="geometry" />
        </mxCell>
        <mxCell id="FfjkxNWrbGcJP8TpGep8-327" style="edgeStyle=orthogonalEdgeStyle;rounded=0;orthogonalLoop=1;jettySize=auto;html=1;exitX=0.5;exitY=1;exitDx=0;exitDy=0;entryX=0.5;entryY=0;entryDx=0;entryDy=0;fontSize=14;labelBackgroundColor=none;fontColor=#000000;" parent="1" source="FfjkxNWrbGcJP8TpGep8-324" target="FfjkxNWrbGcJP8TpGep8-32" edge="1">
          <mxGeometry relative="1" as="geometry" />
        </mxCell>
        <mxCell id="FfjkxNWrbGcJP8TpGep8-324" value="&lt;div style=&quot;&quot;&gt;&lt;pre style=&quot;font-family: &amp;quot;JetBrains Mono&amp;quot;, monospace;&quot;&gt;&lt;pre style=&quot;font-family: &amp;quot;JetBrains Mono&amp;quot;, monospace;&quot;&gt;&lt;pre style=&quot;font-family: &amp;quot;JetBrains Mono&amp;quot;, monospace;&quot;&gt;&lt;div&gt;&lt;pre style=&quot;font-family: &amp;quot;JetBrains Mono&amp;quot;, monospace;&quot;&gt;List&amp;lt;&lt;span style=&quot;&quot;&gt;int&lt;/span&gt;&amp;gt; signs = [];&lt;/pre&gt;&lt;/div&gt;&lt;/pre&gt;&lt;/pre&gt;&lt;/pre&gt;&lt;/div&gt;" style="rounded=0;whiteSpace=wrap;html=1;absoluteArcSize=1;arcSize=14;strokeWidth=2;fontSize=14;labelBackgroundColor=none;fontColor=#000000;" parent="1" vertex="1">
          <mxGeometry x="-431.87" y="2690" width="211.25" height="50" as="geometry" />
        </mxCell>
        <mxCell id="FfjkxNWrbGcJP8TpGep8-332" style="edgeStyle=orthogonalEdgeStyle;rounded=0;orthogonalLoop=1;jettySize=auto;html=1;exitX=0.5;exitY=1;exitDx=0;exitDy=0;entryX=0.5;entryY=0;entryDx=0;entryDy=0;fontSize=14;labelBackgroundColor=none;fontColor=#000000;" parent="1" source="FfjkxNWrbGcJP8TpGep8-328" target="FfjkxNWrbGcJP8TpGep8-331" edge="1">
          <mxGeometry relative="1" as="geometry" />
        </mxCell>
        <mxCell id="FfjkxNWrbGcJP8TpGep8-333" value="yes" style="edgeLabel;html=1;align=center;verticalAlign=middle;resizable=0;points=[];fontSize=14;labelBackgroundColor=none;fontColor=#000000;" parent="FfjkxNWrbGcJP8TpGep8-332" vertex="1" connectable="0">
          <mxGeometry x="-0.0048" y="-1" relative="1" as="geometry">
            <mxPoint as="offset" />
          </mxGeometry>
        </mxCell>
        <mxCell id="FfjkxNWrbGcJP8TpGep8-338" style="edgeStyle=orthogonalEdgeStyle;rounded=0;orthogonalLoop=1;jettySize=auto;html=1;exitX=1;exitY=0.5;exitDx=0;exitDy=0;fontSize=14;labelBackgroundColor=none;fontColor=#000000;" parent="1" source="FfjkxNWrbGcJP8TpGep8-328" target="FfjkxNWrbGcJP8TpGep8-337" edge="1">
          <mxGeometry relative="1" as="geometry">
            <Array as="points">
              <mxPoint x="-120" y="3100" />
              <mxPoint x="-120" y="3360" />
              <mxPoint x="-326" y="3360" />
            </Array>
          </mxGeometry>
        </mxCell>
        <mxCell id="FfjkxNWrbGcJP8TpGep8-339" value="no" style="edgeLabel;html=1;align=center;verticalAlign=middle;resizable=0;points=[];fontSize=14;labelBackgroundColor=none;fontColor=#000000;" parent="FfjkxNWrbGcJP8TpGep8-338" vertex="1" connectable="0">
          <mxGeometry x="-0.896" y="1" relative="1" as="geometry">
            <mxPoint as="offset" />
          </mxGeometry>
        </mxCell>
        <mxCell id="FfjkxNWrbGcJP8TpGep8-328" value="&lt;div style=&quot;&quot;&gt;&lt;pre style=&quot;font-family: &amp;quot;JetBrains Mono&amp;quot;, monospace;&quot;&gt;&lt;pre style=&quot;font-family: &amp;quot;JetBrains Mono&amp;quot;, monospace;&quot;&gt;&lt;pre style=&quot;font-family: &amp;quot;JetBrains Mono&amp;quot;, monospace;&quot;&gt;&lt;div&gt;&lt;pre style=&quot;font-family: &amp;quot;JetBrains Mono&amp;quot;, monospace;&quot;&gt;input[i] == &lt;span style=&quot;&quot;&gt;&#39;(&#39;&lt;/span&gt;&lt;/pre&gt;&lt;/div&gt;&lt;/pre&gt;&lt;/pre&gt;&lt;/pre&gt;&lt;/div&gt;" style="rhombus;whiteSpace=wrap;html=1;fontSize=14;labelBackgroundColor=none;fontColor=#000000;" parent="1" vertex="1">
          <mxGeometry x="-482.51" y="3060" width="315" height="80" as="geometry" />
        </mxCell>
        <mxCell id="FfjkxNWrbGcJP8TpGep8-335" style="edgeStyle=orthogonalEdgeStyle;rounded=0;orthogonalLoop=1;jettySize=auto;html=1;exitX=0.5;exitY=1;exitDx=0;exitDy=0;entryX=0.5;entryY=0;entryDx=0;entryDy=0;fontSize=14;labelBackgroundColor=none;fontColor=#000000;" parent="1" source="FfjkxNWrbGcJP8TpGep8-331" target="FfjkxNWrbGcJP8TpGep8-334" edge="1">
          <mxGeometry relative="1" as="geometry" />
        </mxCell>
        <mxCell id="FfjkxNWrbGcJP8TpGep8-331" value="&lt;div style=&quot;&quot;&gt;&lt;pre style=&quot;font-family: &amp;quot;JetBrains Mono&amp;quot;, monospace;&quot;&gt;&lt;pre style=&quot;font-family: &amp;quot;JetBrains Mono&amp;quot;, monospace;&quot;&gt;&lt;div&gt;&lt;pre style=&quot;font-family: &amp;quot;JetBrains Mono&amp;quot;, monospace;&quot;&gt;level++;&lt;/pre&gt;&lt;/div&gt;&lt;/pre&gt;&lt;/pre&gt;&lt;/div&gt;" style="rounded=0;whiteSpace=wrap;html=1;absoluteArcSize=1;arcSize=14;strokeWidth=2;fontSize=14;labelBackgroundColor=none;fontColor=#000000;" parent="1" vertex="1">
          <mxGeometry x="-400" y="3180" width="150" height="50" as="geometry" />
        </mxCell>
        <mxCell id="cOOqguh06IZceh5hziDc-10" style="edgeStyle=orthogonalEdgeStyle;rounded=0;orthogonalLoop=1;jettySize=auto;html=1;exitX=0.5;exitY=1;exitDx=0;exitDy=0;fontSize=14;labelBackgroundColor=none;fontColor=#000000;" parent="1" source="FfjkxNWrbGcJP8TpGep8-334" edge="1">
          <mxGeometry relative="1" as="geometry">
            <mxPoint x="-700" y="3310" as="targetPoint" />
            <Array as="points">
              <mxPoint x="-326" y="3330" />
              <mxPoint x="-680" y="3330" />
              <mxPoint x="-680" y="3310" />
            </Array>
          </mxGeometry>
        </mxCell>
        <mxCell id="FfjkxNWrbGcJP8TpGep8-334" value="&lt;div style=&quot;&quot;&gt;&lt;pre style=&quot;font-family: &amp;quot;JetBrains Mono&amp;quot;, monospace;&quot;&gt;&lt;pre style=&quot;font-family: &amp;quot;JetBrains Mono&amp;quot;, monospace;&quot;&gt;&lt;pre style=&quot;font-family: &amp;quot;JetBrains Mono&amp;quot;, monospace;&quot;&gt;&lt;div&gt;&lt;pre style=&quot;font-family: &amp;quot;JetBrains Mono&amp;quot;, monospace;&quot;&gt;index++;&lt;/pre&gt;&lt;/div&gt;&lt;/pre&gt;&lt;/pre&gt;&lt;/pre&gt;&lt;/div&gt;" style="rounded=0;whiteSpace=wrap;html=1;absoluteArcSize=1;arcSize=14;strokeWidth=2;fontSize=14;labelBackgroundColor=none;fontColor=#000000;" parent="1" vertex="1">
          <mxGeometry x="-401.25" y="3260" width="150" height="50" as="geometry" />
        </mxCell>
        <mxCell id="FfjkxNWrbGcJP8TpGep8-341" style="edgeStyle=orthogonalEdgeStyle;rounded=0;orthogonalLoop=1;jettySize=auto;html=1;exitX=0.5;exitY=1;exitDx=0;exitDy=0;entryX=0.5;entryY=0;entryDx=0;entryDy=0;fontSize=14;labelBackgroundColor=none;fontColor=#000000;" parent="1" source="FfjkxNWrbGcJP8TpGep8-337" target="FfjkxNWrbGcJP8TpGep8-340" edge="1">
          <mxGeometry relative="1" as="geometry" />
        </mxCell>
        <mxCell id="FfjkxNWrbGcJP8TpGep8-345" value="yes" style="edgeLabel;html=1;align=center;verticalAlign=middle;resizable=0;points=[];fontSize=14;labelBackgroundColor=none;fontColor=#000000;" parent="FfjkxNWrbGcJP8TpGep8-341" vertex="1" connectable="0">
          <mxGeometry x="-0.1175" relative="1" as="geometry">
            <mxPoint as="offset" />
          </mxGeometry>
        </mxCell>
        <mxCell id="FfjkxNWrbGcJP8TpGep8-360" style="edgeStyle=orthogonalEdgeStyle;rounded=0;orthogonalLoop=1;jettySize=auto;html=1;exitX=1;exitY=0.5;exitDx=0;exitDy=0;entryX=0.5;entryY=0;entryDx=0;entryDy=0;fontSize=14;labelBackgroundColor=none;fontColor=#000000;" parent="1" source="FfjkxNWrbGcJP8TpGep8-337" target="FfjkxNWrbGcJP8TpGep8-346" edge="1">
          <mxGeometry relative="1" as="geometry">
            <Array as="points">
              <mxPoint x="-149" y="3440" />
              <mxPoint x="-149" y="3720" />
              <mxPoint x="-254" y="3720" />
            </Array>
          </mxGeometry>
        </mxCell>
        <mxCell id="FfjkxNWrbGcJP8TpGep8-361" value="no" style="edgeLabel;html=1;align=center;verticalAlign=middle;resizable=0;points=[];fontSize=14;labelBackgroundColor=none;fontColor=#000000;" parent="FfjkxNWrbGcJP8TpGep8-360" vertex="1" connectable="0">
          <mxGeometry x="-0.7608" y="-2" relative="1" as="geometry">
            <mxPoint as="offset" />
          </mxGeometry>
        </mxCell>
        <mxCell id="FfjkxNWrbGcJP8TpGep8-337" value="&lt;div style=&quot;&quot;&gt;&lt;pre style=&quot;font-family: &amp;quot;JetBrains Mono&amp;quot;, monospace;&quot;&gt;&lt;pre style=&quot;font-family: &amp;quot;JetBrains Mono&amp;quot;, monospace;&quot;&gt;&lt;pre style=&quot;font-family: &amp;quot;JetBrains Mono&amp;quot;, monospace;&quot;&gt;&lt;pre style=&quot;font-family: &amp;quot;JetBrains Mono&amp;quot;, monospace;&quot;&gt;&lt;div&gt;&lt;pre style=&quot;font-family: &amp;quot;JetBrains Mono&amp;quot;, monospace;&quot;&gt;input[i] == &lt;span style=&quot;&quot;&gt;&#39;)&#39;&lt;/span&gt;&lt;/pre&gt;&lt;/div&gt;&lt;/pre&gt;&lt;/pre&gt;&lt;/pre&gt;&lt;/pre&gt;&lt;/div&gt;" style="rhombus;whiteSpace=wrap;html=1;fontSize=14;labelBackgroundColor=none;fontColor=#000000;" parent="1" vertex="1">
          <mxGeometry x="-483.75" y="3400" width="315" height="80" as="geometry" />
        </mxCell>
        <mxCell id="FfjkxNWrbGcJP8TpGep8-343" style="edgeStyle=orthogonalEdgeStyle;rounded=0;orthogonalLoop=1;jettySize=auto;html=1;exitX=0.5;exitY=1;exitDx=0;exitDy=0;entryX=0.5;entryY=0;entryDx=0;entryDy=0;fontSize=14;labelBackgroundColor=none;fontColor=#000000;" parent="1" source="FfjkxNWrbGcJP8TpGep8-340" target="FfjkxNWrbGcJP8TpGep8-342" edge="1">
          <mxGeometry relative="1" as="geometry" />
        </mxCell>
        <mxCell id="FfjkxNWrbGcJP8TpGep8-340" value="&lt;div style=&quot;&quot;&gt;&lt;pre style=&quot;font-family: &amp;quot;JetBrains Mono&amp;quot;, monospace;&quot;&gt;&lt;pre style=&quot;font-family: &amp;quot;JetBrains Mono&amp;quot;, monospace;&quot;&gt;&lt;pre style=&quot;font-family: &amp;quot;JetBrains Mono&amp;quot;, monospace;&quot;&gt;&lt;div&gt;&lt;pre style=&quot;font-family: &amp;quot;JetBrains Mono&amp;quot;, monospace;&quot;&gt;level--;&lt;/pre&gt;&lt;/div&gt;&lt;/pre&gt;&lt;/pre&gt;&lt;/pre&gt;&lt;/div&gt;" style="rounded=0;whiteSpace=wrap;html=1;absoluteArcSize=1;arcSize=14;strokeWidth=2;fontSize=14;labelBackgroundColor=none;fontColor=#000000;" parent="1" vertex="1">
          <mxGeometry x="-401.25" y="3520" width="150" height="50" as="geometry" />
        </mxCell>
        <mxCell id="cOOqguh06IZceh5hziDc-11" style="edgeStyle=orthogonalEdgeStyle;rounded=0;orthogonalLoop=1;jettySize=auto;html=1;exitX=0.5;exitY=1;exitDx=0;exitDy=0;fontSize=14;labelBackgroundColor=none;fontColor=#000000;" parent="1" source="FfjkxNWrbGcJP8TpGep8-342" edge="1">
          <mxGeometry relative="1" as="geometry">
            <mxPoint x="-700" y="3650" as="targetPoint" />
            <Array as="points">
              <mxPoint x="-326" y="3670" />
              <mxPoint x="-680" y="3670" />
              <mxPoint x="-680" y="3650" />
            </Array>
          </mxGeometry>
        </mxCell>
        <mxCell id="FfjkxNWrbGcJP8TpGep8-342" value="&lt;div style=&quot;&quot;&gt;&lt;pre style=&quot;font-family: &amp;quot;JetBrains Mono&amp;quot;, monospace;&quot;&gt;&lt;pre style=&quot;font-family: &amp;quot;JetBrains Mono&amp;quot;, monospace;&quot;&gt;&lt;pre style=&quot;font-family: &amp;quot;JetBrains Mono&amp;quot;, monospace;&quot;&gt;&lt;div&gt;&lt;pre style=&quot;font-family: &amp;quot;JetBrains Mono&amp;quot;, monospace;&quot;&gt;index++;&lt;/pre&gt;&lt;/div&gt;&lt;/pre&gt;&lt;/pre&gt;&lt;/pre&gt;&lt;/div&gt;" style="rounded=0;whiteSpace=wrap;html=1;absoluteArcSize=1;arcSize=14;strokeWidth=2;fontSize=14;labelBackgroundColor=none;fontColor=#000000;" parent="1" vertex="1">
          <mxGeometry x="-401.25" y="3600" width="150" height="50" as="geometry" />
        </mxCell>
        <mxCell id="FfjkxNWrbGcJP8TpGep8-350" style="edgeStyle=orthogonalEdgeStyle;rounded=0;orthogonalLoop=1;jettySize=auto;html=1;exitX=0.5;exitY=1;exitDx=0;exitDy=0;fontSize=14;labelBackgroundColor=none;fontColor=#000000;" parent="1" source="FfjkxNWrbGcJP8TpGep8-346" target="FfjkxNWrbGcJP8TpGep8-349" edge="1">
          <mxGeometry relative="1" as="geometry" />
        </mxCell>
        <mxCell id="FfjkxNWrbGcJP8TpGep8-351" value="yes" style="edgeLabel;html=1;align=center;verticalAlign=middle;resizable=0;points=[];fontSize=14;labelBackgroundColor=none;fontColor=#000000;" parent="FfjkxNWrbGcJP8TpGep8-350" vertex="1" connectable="0">
          <mxGeometry x="-0.1497" y="2" relative="1" as="geometry">
            <mxPoint as="offset" />
          </mxGeometry>
        </mxCell>
        <mxCell id="FfjkxNWrbGcJP8TpGep8-358" style="edgeStyle=orthogonalEdgeStyle;rounded=0;orthogonalLoop=1;jettySize=auto;html=1;exitX=0;exitY=0.5;exitDx=0;exitDy=0;entryX=0.5;entryY=0;entryDx=0;entryDy=0;fontSize=14;labelBackgroundColor=none;fontColor=#000000;" parent="1" source="FfjkxNWrbGcJP8TpGep8-346" target="FfjkxNWrbGcJP8TpGep8-355" edge="1">
          <mxGeometry relative="1" as="geometry">
            <Array as="points">
              <mxPoint x="-650" y="3800" />
              <mxPoint x="-650" y="3970" />
              <mxPoint x="-451" y="3970" />
            </Array>
          </mxGeometry>
        </mxCell>
        <mxCell id="FfjkxNWrbGcJP8TpGep8-359" value="no" style="edgeLabel;html=1;align=center;verticalAlign=middle;resizable=0;points=[];fontSize=14;labelBackgroundColor=none;fontColor=#000000;" parent="FfjkxNWrbGcJP8TpGep8-358" vertex="1" connectable="0">
          <mxGeometry x="-0.9734" relative="1" as="geometry">
            <mxPoint as="offset" />
          </mxGeometry>
        </mxCell>
        <mxCell id="FfjkxNWrbGcJP8TpGep8-346" value="&lt;div style=&quot;&quot;&gt;&lt;pre style=&quot;font-family: &amp;quot;JetBrains Mono&amp;quot;, monospace;&quot;&gt;&lt;pre style=&quot;font-family: &amp;quot;JetBrains Mono&amp;quot;, monospace;&quot;&gt;&lt;pre style=&quot;font-family: &amp;quot;JetBrains Mono&amp;quot;, monospace;&quot;&gt;&lt;pre style=&quot;font-family: &amp;quot;JetBrains Mono&amp;quot;, monospace;&quot;&gt;&lt;pre style=&quot;font-family: &amp;quot;JetBrains Mono&amp;quot;, monospace;&quot;&gt;&lt;div&gt;&lt;pre style=&quot;font-family: &amp;quot;JetBrains Mono&amp;quot;, monospace;&quot;&gt;level == requiredLevel &amp;amp;&amp;amp; IsLogicalSign(input[i])&lt;/pre&gt;&lt;/div&gt;&lt;/pre&gt;&lt;/pre&gt;&lt;/pre&gt;&lt;/pre&gt;&lt;/pre&gt;&lt;/div&gt;" style="rhombus;whiteSpace=wrap;html=1;fontSize=14;labelBackgroundColor=none;fontColor=#000000;" parent="1" vertex="1">
          <mxGeometry x="-620" y="3760" width="732.5" height="80" as="geometry" />
        </mxCell>
        <mxCell id="cOOqguh06IZceh5hziDc-12" style="edgeStyle=orthogonalEdgeStyle;rounded=0;orthogonalLoop=1;jettySize=auto;html=1;exitX=0.5;exitY=1;exitDx=0;exitDy=0;fontSize=14;labelBackgroundColor=none;fontColor=#000000;" parent="1" source="FfjkxNWrbGcJP8TpGep8-349" edge="1">
          <mxGeometry relative="1" as="geometry">
            <mxPoint x="-450" y="3970" as="targetPoint" />
            <Array as="points">
              <mxPoint x="-326" y="3950" />
              <mxPoint x="-450" y="3950" />
            </Array>
          </mxGeometry>
        </mxCell>
        <mxCell id="FfjkxNWrbGcJP8TpGep8-349" value="&lt;div style=&quot;&quot;&gt;&lt;pre style=&quot;font-family: &amp;quot;JetBrains Mono&amp;quot;, monospace;&quot;&gt;&lt;pre style=&quot;font-family: &amp;quot;JetBrains Mono&amp;quot;, monospace;&quot;&gt;&lt;pre style=&quot;font-family: &amp;quot;JetBrains Mono&amp;quot;, monospace;&quot;&gt;&lt;pre style=&quot;font-family: &amp;quot;JetBrains Mono&amp;quot;, monospace;&quot;&gt;&lt;div&gt;&lt;pre style=&quot;font-family: &amp;quot;JetBrains Mono&amp;quot;, monospace;&quot;&gt;signs.Add(index);&lt;/pre&gt;&lt;/div&gt;&lt;/pre&gt;&lt;/pre&gt;&lt;/pre&gt;&lt;/pre&gt;&lt;/div&gt;" style="rounded=0;whiteSpace=wrap;html=1;absoluteArcSize=1;arcSize=14;strokeWidth=2;fontSize=14;labelBackgroundColor=none;fontColor=#000000;" parent="1" vertex="1">
          <mxGeometry x="-421.87" y="3880" width="191.25" height="50" as="geometry" />
        </mxCell>
        <mxCell id="FfjkxNWrbGcJP8TpGep8-363" style="edgeStyle=orthogonalEdgeStyle;rounded=0;orthogonalLoop=1;jettySize=auto;html=1;exitX=0.5;exitY=1;exitDx=0;exitDy=0;entryX=0.5;entryY=1;entryDx=0;entryDy=0;fontSize=14;labelBackgroundColor=none;fontColor=#000000;" parent="1" source="FfjkxNWrbGcJP8TpGep8-355" target="FfjkxNWrbGcJP8TpGep8-37" edge="1">
          <mxGeometry relative="1" as="geometry" />
        </mxCell>
        <mxCell id="FfjkxNWrbGcJP8TpGep8-355" value="&lt;div style=&quot;&quot;&gt;&lt;pre style=&quot;font-family: &amp;quot;JetBrains Mono&amp;quot;, monospace;&quot;&gt;&lt;pre style=&quot;font-family: &amp;quot;JetBrains Mono&amp;quot;, monospace;&quot;&gt;&lt;pre style=&quot;font-family: &amp;quot;JetBrains Mono&amp;quot;, monospace;&quot;&gt;&lt;pre style=&quot;font-family: &amp;quot;JetBrains Mono&amp;quot;, monospace;&quot;&gt;&lt;pre style=&quot;font-family: &amp;quot;JetBrains Mono&amp;quot;, monospace;&quot;&gt;&lt;div&gt;&lt;pre style=&quot;font-family: &amp;quot;JetBrains Mono&amp;quot;, monospace;&quot;&gt;index++;&lt;/pre&gt;&lt;/div&gt;&lt;/pre&gt;&lt;/pre&gt;&lt;/pre&gt;&lt;/pre&gt;&lt;/pre&gt;&lt;/div&gt;" style="rounded=0;whiteSpace=wrap;html=1;absoluteArcSize=1;arcSize=14;strokeWidth=2;fontSize=14;labelBackgroundColor=none;fontColor=#000000;" parent="1" vertex="1">
          <mxGeometry x="-546.49" y="4020" width="191.25" height="50" as="geometry" />
        </mxCell>
        <mxCell id="FfjkxNWrbGcJP8TpGep8-368" style="edgeStyle=orthogonalEdgeStyle;rounded=0;orthogonalLoop=1;jettySize=auto;html=1;exitX=0.5;exitY=1;exitDx=0;exitDy=0;entryX=0.5;entryY=0;entryDx=0;entryDy=0;fontSize=14;labelBackgroundColor=none;fontColor=#000000;" parent="1" source="FfjkxNWrbGcJP8TpGep8-364" target="FfjkxNWrbGcJP8TpGep8-367" edge="1">
          <mxGeometry relative="1" as="geometry" />
        </mxCell>
        <mxCell id="FfjkxNWrbGcJP8TpGep8-369" value="yes" style="edgeLabel;html=1;align=center;verticalAlign=middle;resizable=0;points=[];fontSize=14;labelBackgroundColor=none;fontColor=#000000;" parent="FfjkxNWrbGcJP8TpGep8-368" vertex="1" connectable="0">
          <mxGeometry x="-0.1667" y="-1" relative="1" as="geometry">
            <mxPoint as="offset" />
          </mxGeometry>
        </mxCell>
        <mxCell id="FfjkxNWrbGcJP8TpGep8-371" style="edgeStyle=orthogonalEdgeStyle;rounded=0;orthogonalLoop=1;jettySize=auto;html=1;exitX=1;exitY=0.5;exitDx=0;exitDy=0;fontSize=14;labelBackgroundColor=none;fontColor=#000000;" parent="1" source="FfjkxNWrbGcJP8TpGep8-364" target="FfjkxNWrbGcJP8TpGep8-370" edge="1">
          <mxGeometry relative="1" as="geometry" />
        </mxCell>
        <mxCell id="FfjkxNWrbGcJP8TpGep8-372" value="no" style="edgeLabel;html=1;align=center;verticalAlign=middle;resizable=0;points=[];fontSize=14;labelBackgroundColor=none;fontColor=#000000;" parent="FfjkxNWrbGcJP8TpGep8-371" vertex="1" connectable="0">
          <mxGeometry x="-0.3343" y="-1" relative="1" as="geometry">
            <mxPoint as="offset" />
          </mxGeometry>
        </mxCell>
        <mxCell id="FfjkxNWrbGcJP8TpGep8-364" value="&lt;div style=&quot;&quot;&gt;&lt;pre style=&quot;font-family: &amp;quot;JetBrains Mono&amp;quot;, monospace;&quot;&gt;&lt;pre style=&quot;font-family: &amp;quot;JetBrains Mono&amp;quot;, monospace;&quot;&gt;&lt;pre style=&quot;font-family: &amp;quot;JetBrains Mono&amp;quot;, monospace;&quot;&gt;&lt;pre style=&quot;font-family: &amp;quot;JetBrains Mono&amp;quot;, monospace;&quot;&gt;&lt;div&gt;&lt;pre style=&quot;font-family: &amp;quot;JetBrains Mono&amp;quot;, monospace;&quot;&gt;signs.Count != &lt;span style=&quot;&quot;&gt;0&lt;/span&gt;&lt;/pre&gt;&lt;/div&gt;&lt;/pre&gt;&lt;/pre&gt;&lt;/pre&gt;&lt;/pre&gt;&lt;/div&gt;" style="rhombus;whiteSpace=wrap;html=1;fontSize=14;labelBackgroundColor=none;fontColor=#000000;" parent="1" vertex="1">
          <mxGeometry x="-40" y="3000" width="315" height="80" as="geometry" />
        </mxCell>
        <mxCell id="bbl1epnfbIa33jh1_Hoh-23" style="edgeStyle=orthogonalEdgeStyle;rounded=0;orthogonalLoop=1;jettySize=auto;html=1;exitX=0.5;exitY=1;exitDx=0;exitDy=0;entryX=0.5;entryY=0;entryDx=0;entryDy=0;fontSize=14;labelBackgroundColor=none;fontColor=#000000;" parent="1" source="FfjkxNWrbGcJP8TpGep8-367" target="bbl1epnfbIa33jh1_Hoh-18" edge="1">
          <mxGeometry relative="1" as="geometry">
            <Array as="points">
              <mxPoint x="118" y="3210" />
              <mxPoint x="290" y="3210" />
            </Array>
          </mxGeometry>
        </mxCell>
        <mxCell id="FfjkxNWrbGcJP8TpGep8-367" value="&lt;div style=&quot;&quot;&gt;&lt;pre style=&quot;font-family: &amp;quot;JetBrains Mono&amp;quot;, monospace;&quot;&gt;&lt;pre style=&quot;font-family: &amp;quot;JetBrains Mono&amp;quot;, monospace;&quot;&gt;&lt;pre style=&quot;font-family: &amp;quot;JetBrains Mono&amp;quot;, monospace;&quot;&gt;&lt;div&gt;&lt;pre style=&quot;font-family: &amp;quot;JetBrains Mono&amp;quot;, monospace;&quot;&gt;result = signs[&lt;span style=&quot;&quot;&gt;0&lt;/span&gt;];&lt;/pre&gt;&lt;/div&gt;&lt;/pre&gt;&lt;/pre&gt;&lt;/pre&gt;&lt;/div&gt;" style="rounded=0;whiteSpace=wrap;html=1;absoluteArcSize=1;arcSize=14;strokeWidth=2;fontSize=14;labelBackgroundColor=none;fontColor=#000000;" parent="1" vertex="1">
          <mxGeometry x="22.439999999999998" y="3120" width="190.12" height="50" as="geometry" />
        </mxCell>
        <mxCell id="cOOqguh06IZceh5hziDc-13" style="edgeStyle=orthogonalEdgeStyle;rounded=0;orthogonalLoop=1;jettySize=auto;html=1;exitX=0.5;exitY=1;exitDx=0;exitDy=0;fontSize=14;labelBackgroundColor=none;fontColor=#000000;" parent="1" source="FfjkxNWrbGcJP8TpGep8-370" edge="1">
          <mxGeometry relative="1" as="geometry">
            <mxPoint x="290" y="3210" as="targetPoint" />
          </mxGeometry>
        </mxCell>
        <mxCell id="FfjkxNWrbGcJP8TpGep8-370" value="&lt;div style=&quot;&quot;&gt;&lt;pre style=&quot;font-family: &amp;quot;JetBrains Mono&amp;quot;, monospace;&quot;&gt;&lt;pre style=&quot;font-family: &amp;quot;JetBrains Mono&amp;quot;, monospace;&quot;&gt;&lt;pre style=&quot;font-family: &amp;quot;JetBrains Mono&amp;quot;, monospace;&quot;&gt;&lt;pre style=&quot;font-family: &amp;quot;JetBrains Mono&amp;quot;, monospace;&quot;&gt;&lt;div&gt;&lt;pre style=&quot;font-family: &amp;quot;JetBrains Mono&amp;quot;, monospace;&quot;&gt;result = FindMiddleSign(input, requiredLevel + &lt;span style=&quot;&quot;&gt;1&lt;/span&gt;);&lt;/pre&gt;&lt;/div&gt;&lt;/pre&gt;&lt;/pre&gt;&lt;/pre&gt;&lt;/pre&gt;&lt;/div&gt;" style="rounded=0;whiteSpace=wrap;html=1;absoluteArcSize=1;arcSize=14;strokeWidth=2;fontSize=14;labelBackgroundColor=none;fontColor=#000000;" parent="1" vertex="1">
          <mxGeometry x="262.62" y="3120" width="480" height="50" as="geometry" />
        </mxCell>
        <mxCell id="FfjkxNWrbGcJP8TpGep8-376" value="&lt;pre style=&quot;font-family: &amp;quot;JetBrains Mono&amp;quot;, monospace;&quot;&gt;&lt;div style=&quot;&quot;&gt;&lt;pre style=&quot;font-family: &amp;quot;JetBrains Mono&amp;quot;, monospace;&quot;&gt;&lt;pre style=&quot;font-family: &amp;quot;JetBrains Mono&amp;quot;, monospace;&quot;&gt;&lt;div&gt;&lt;pre style=&quot;font-family: &amp;quot;JetBrains Mono&amp;quot;, monospace;&quot;&gt;IsLogicalSign&lt;/pre&gt;&lt;/div&gt;&lt;/pre&gt;&lt;/pre&gt;&lt;/div&gt;&lt;/pre&gt;" style="text;html=1;align=center;verticalAlign=middle;resizable=0;points=[];autosize=1;strokeColor=none;fillColor=none;fontSize=14;labelBackgroundColor=none;fontColor=#000000;" parent="1" vertex="1">
          <mxGeometry x="1245" y="-2150" width="120" height="60" as="geometry" />
        </mxCell>
        <mxCell id="FfjkxNWrbGcJP8TpGep8-379" value="&lt;pre style=&quot;font-family: &amp;quot;JetBrains Mono&amp;quot;, monospace;&quot;&gt;input: char &lt;span style=&quot;white-space-collapse: collapse;&quot;&gt;c&lt;/span&gt;&lt;/pre&gt;" style="text;html=1;align=center;verticalAlign=middle;resizable=0;points=[];autosize=1;strokeColor=none;fillColor=none;fontSize=14;labelBackgroundColor=none;fontColor=#000000;" parent="1" vertex="1">
          <mxGeometry x="1245" y="-2095" width="120" height="60" as="geometry" />
        </mxCell>
        <mxCell id="FfjkxNWrbGcJP8TpGep8-380" value="&lt;pre style=&quot;font-family: &amp;quot;JetBrains Mono&amp;quot;, monospace;&quot;&gt;output: bool result&lt;/pre&gt;" style="text;html=1;align=center;verticalAlign=middle;resizable=0;points=[];autosize=1;strokeColor=none;fillColor=none;fontSize=14;labelBackgroundColor=none;fontColor=#000000;" parent="1" vertex="1">
          <mxGeometry x="1245" y="-2045" width="170" height="60" as="geometry" />
        </mxCell>
        <mxCell id="bbl1epnfbIa33jh1_Hoh-2" style="edgeStyle=orthogonalEdgeStyle;rounded=0;orthogonalLoop=1;jettySize=auto;html=1;exitX=0.5;exitY=1;exitDx=0;exitDy=0;entryX=0.5;entryY=0;entryDx=0;entryDy=0;fontSize=14;labelBackgroundColor=none;fontColor=#000000;" parent="1" source="FfjkxNWrbGcJP8TpGep8-381" target="bbl1epnfbIa33jh1_Hoh-1" edge="1">
          <mxGeometry relative="1" as="geometry" />
        </mxCell>
        <mxCell id="FfjkxNWrbGcJP8TpGep8-381" value="&lt;div style=&quot;&quot;&gt;&lt;pre style=&quot;font-family: &amp;quot;JetBrains Mono&amp;quot;, monospace;&quot;&gt;&lt;pre style=&quot;font-family: &amp;quot;JetBrains Mono&amp;quot;, monospace;&quot;&gt;&lt;div&gt;&lt;pre style=&quot;font-family: &amp;quot;JetBrains Mono&amp;quot;, monospace;&quot;&gt;&lt;span style=&quot;&quot;&gt;bool &lt;/span&gt;result = c == &lt;span style=&quot;&quot;&gt;&#39;&amp;amp;&#39; &lt;/span&gt;|| c == &lt;span style=&quot;&quot;&gt;&#39;|&#39; &lt;/span&gt;|| c == &lt;span style=&quot;&quot;&gt;&#39;!&#39; &lt;/span&gt;|| c == &lt;span style=&quot;&quot;&gt;&#39;~&#39; &lt;/span&gt;|| c == &lt;span style=&quot;&quot;&gt;&#39;-&#39; &lt;/span&gt;|| c == &lt;span style=&quot;&quot;&gt;&#39;&amp;gt;&#39;&lt;/span&gt;;&lt;/pre&gt;&lt;/div&gt;&lt;/pre&gt;&lt;/pre&gt;&lt;/div&gt;" style="rounded=0;whiteSpace=wrap;html=1;absoluteArcSize=1;arcSize=14;strokeWidth=2;fontSize=14;labelBackgroundColor=none;fontColor=#000000;" parent="1" vertex="1">
          <mxGeometry x="861.25" y="-1795" width="840" height="50" as="geometry" />
        </mxCell>
        <mxCell id="FfjkxNWrbGcJP8TpGep8-384" value="&lt;pre style=&quot;font-family: &amp;quot;JetBrains Mono&amp;quot;, monospace;&quot;&gt;&lt;div style=&quot;&quot;&gt;&lt;pre style=&quot;font-family: &amp;quot;JetBrains Mono&amp;quot;, monospace;&quot;&gt;&lt;pre style=&quot;font-family: &amp;quot;JetBrains Mono&amp;quot;, monospace;&quot;&gt;&lt;pre style=&quot;font-family: &amp;quot;JetBrains Mono&amp;quot;, monospace;&quot;&gt;&lt;div&gt;&lt;pre style=&quot;font-family: &amp;quot;JetBrains Mono&amp;quot;, monospace;&quot;&gt;HasSign&lt;/pre&gt;&lt;/div&gt;&lt;/pre&gt;&lt;/pre&gt;&lt;/pre&gt;&lt;/div&gt;&lt;/pre&gt;" style="text;html=1;align=center;verticalAlign=middle;resizable=0;points=[];autosize=1;strokeColor=none;fillColor=none;fontSize=14;labelBackgroundColor=none;fontColor=#000000;" parent="1" vertex="1">
          <mxGeometry x="1211.86" y="-1435" width="80" height="60" as="geometry" />
        </mxCell>
        <mxCell id="FfjkxNWrbGcJP8TpGep8-387" value="&lt;pre style=&quot;font-family: &amp;quot;JetBrains Mono&amp;quot;, monospace;&quot;&gt;input: string &lt;span style=&quot;white-space-collapse: collapse;&quot;&gt;input&lt;/span&gt;&lt;/pre&gt;" style="text;html=1;align=center;verticalAlign=middle;resizable=0;points=[];autosize=1;strokeColor=none;fillColor=none;fontSize=14;labelBackgroundColor=none;fontColor=#000000;" parent="1" vertex="1">
          <mxGeometry x="1216.86" y="-1395" width="170" height="60" as="geometry" />
        </mxCell>
        <mxCell id="FfjkxNWrbGcJP8TpGep8-388" value="&lt;pre style=&quot;font-family: &amp;quot;JetBrains Mono&amp;quot;, monospace;&quot;&gt;output: bool result&lt;/pre&gt;" style="text;html=1;align=center;verticalAlign=middle;resizable=0;points=[];autosize=1;strokeColor=none;fillColor=none;fontSize=14;labelBackgroundColor=none;fontColor=#000000;" parent="1" vertex="1">
          <mxGeometry x="1218.11" y="-1350" width="170" height="60" as="geometry" />
        </mxCell>
        <mxCell id="FfjkxNWrbGcJP8TpGep8-417" style="edgeStyle=orthogonalEdgeStyle;rounded=0;orthogonalLoop=1;jettySize=auto;html=1;exitX=0.5;exitY=1;exitDx=0;exitDy=0;entryX=0.5;entryY=0;entryDx=0;entryDy=0;fontSize=14;labelBackgroundColor=none;fontColor=#000000;" parent="1" source="FfjkxNWrbGcJP8TpGep8-389" target="FfjkxNWrbGcJP8TpGep8-403" edge="1">
          <mxGeometry relative="1" as="geometry" />
        </mxCell>
        <mxCell id="FfjkxNWrbGcJP8TpGep8-389" value="&lt;div style=&quot;&quot;&gt;&lt;pre style=&quot;font-family: &amp;quot;JetBrains Mono&amp;quot;, monospace;&quot;&gt;&lt;pre style=&quot;font-family: &amp;quot;JetBrains Mono&amp;quot;, monospace;&quot;&gt;&lt;pre style=&quot;font-family: &amp;quot;JetBrains Mono&amp;quot;, monospace;&quot;&gt;&lt;div&gt;&lt;pre style=&quot;font-family: &amp;quot;JetBrains Mono&amp;quot;, monospace;&quot;&gt;&lt;span style=&quot;&quot;&gt;bool &lt;/span&gt;result = &lt;span style=&quot;&quot;&gt;false&lt;/span&gt;;&lt;/pre&gt;&lt;/div&gt;&lt;/pre&gt;&lt;/pre&gt;&lt;/pre&gt;&lt;/div&gt;" style="rounded=0;whiteSpace=wrap;html=1;absoluteArcSize=1;arcSize=14;strokeWidth=2;fontSize=14;labelBackgroundColor=none;fontColor=#000000;" parent="1" vertex="1">
          <mxGeometry x="1088.8500000000001" y="-1075" width="270" height="50" as="geometry" />
        </mxCell>
        <mxCell id="FfjkxNWrbGcJP8TpGep8-407" style="edgeStyle=orthogonalEdgeStyle;rounded=0;orthogonalLoop=1;jettySize=auto;html=1;exitX=1;exitY=0.5;exitDx=0;exitDy=0;entryX=0.5;entryY=0;entryDx=0;entryDy=0;fontSize=14;labelBackgroundColor=none;fontColor=#000000;" parent="1" source="FfjkxNWrbGcJP8TpGep8-396" target="FfjkxNWrbGcJP8TpGep8-406" edge="1">
          <mxGeometry relative="1" as="geometry" />
        </mxCell>
        <mxCell id="FfjkxNWrbGcJP8TpGep8-408" value="yes" style="edgeLabel;html=1;align=center;verticalAlign=middle;resizable=0;points=[];fontSize=14;labelBackgroundColor=none;fontColor=#000000;" parent="FfjkxNWrbGcJP8TpGep8-407" vertex="1" connectable="0">
          <mxGeometry x="-0.1636" y="-1" relative="1" as="geometry">
            <mxPoint as="offset" />
          </mxGeometry>
        </mxCell>
        <mxCell id="cOOqguh06IZceh5hziDc-17" style="edgeStyle=orthogonalEdgeStyle;rounded=0;orthogonalLoop=1;jettySize=auto;html=1;exitX=0;exitY=0.5;exitDx=0;exitDy=0;fontSize=14;labelBackgroundColor=none;fontColor=#000000;" parent="1" source="FfjkxNWrbGcJP8TpGep8-396" edge="1">
          <mxGeometry relative="1" as="geometry">
            <mxPoint x="1468.8500000000001" y="-530" as="targetPoint" />
            <Array as="points">
              <mxPoint x="1046.8500000000001" y="-825" />
              <mxPoint x="1046.8500000000001" y="-530" />
            </Array>
          </mxGeometry>
        </mxCell>
        <mxCell id="cOOqguh06IZceh5hziDc-18" value="no" style="edgeLabel;html=1;align=center;verticalAlign=middle;resizable=0;points=[];fontSize=14;labelBackgroundColor=none;fontColor=#000000;" parent="cOOqguh06IZceh5hziDc-17" vertex="1" connectable="0">
          <mxGeometry x="-0.9653" relative="1" as="geometry">
            <mxPoint as="offset" />
          </mxGeometry>
        </mxCell>
        <mxCell id="FfjkxNWrbGcJP8TpGep8-396" value="&lt;div style=&quot;&quot;&gt;&lt;pre style=&quot;font-family: &amp;quot;JetBrains Mono&amp;quot;, monospace;&quot;&gt;&lt;pre style=&quot;font-family: &amp;quot;JetBrains Mono&amp;quot;, monospace;&quot;&gt;&lt;pre style=&quot;font-family: &amp;quot;JetBrains Mono&amp;quot;, monospace;&quot;&gt;&lt;div&gt;&lt;pre style=&quot;font-family: &amp;quot;JetBrains Mono&amp;quot;, monospace;&quot;&gt;&lt;span style=&quot;&quot;&gt;i &lt;/span&gt;&amp;lt; &lt;span style=&quot;&quot;&gt;input&lt;/span&gt;.Length&lt;/pre&gt;&lt;/div&gt;&lt;/pre&gt;&lt;/pre&gt;&lt;/pre&gt;&lt;/div&gt;" style="rhombus;whiteSpace=wrap;html=1;fontSize=14;labelBackgroundColor=none;fontColor=#000000;" parent="1" vertex="1">
          <mxGeometry x="1066.3500000000001" y="-865" width="315" height="80" as="geometry" />
        </mxCell>
        <mxCell id="FfjkxNWrbGcJP8TpGep8-397" style="edgeStyle=orthogonalEdgeStyle;rounded=0;orthogonalLoop=1;jettySize=auto;html=1;exitX=0.5;exitY=0;exitDx=0;exitDy=0;entryX=0.5;entryY=1;entryDx=0;entryDy=0;fontSize=14;labelBackgroundColor=none;fontColor=#000000;" parent="1" source="FfjkxNWrbGcJP8TpGep8-398" target="FfjkxNWrbGcJP8TpGep8-396" edge="1">
          <mxGeometry relative="1" as="geometry" />
        </mxCell>
        <mxCell id="FfjkxNWrbGcJP8TpGep8-398" value="&lt;div style=&quot;&quot;&gt;&lt;pre style=&quot;font-family: &amp;quot;JetBrains Mono&amp;quot;, monospace;&quot;&gt;&lt;div&gt;&lt;pre style=&quot;font-family: &amp;quot;JetBrains Mono&amp;quot;, monospace;&quot;&gt;i++;&lt;/pre&gt;&lt;/div&gt;&lt;/pre&gt;&lt;/div&gt;" style="rounded=0;whiteSpace=wrap;html=1;absoluteArcSize=1;arcSize=14;strokeWidth=2;fontSize=14;labelBackgroundColor=none;fontColor=#000000;" parent="1" vertex="1">
          <mxGeometry x="1118.8500000000001" y="-740" width="80" height="50" as="geometry" />
        </mxCell>
        <mxCell id="FfjkxNWrbGcJP8TpGep8-405" style="edgeStyle=orthogonalEdgeStyle;rounded=0;orthogonalLoop=1;jettySize=auto;html=1;exitX=0.5;exitY=1;exitDx=0;exitDy=0;entryX=0.5;entryY=0;entryDx=0;entryDy=0;fontSize=14;labelBackgroundColor=none;fontColor=#000000;" parent="1" source="FfjkxNWrbGcJP8TpGep8-403" target="FfjkxNWrbGcJP8TpGep8-396" edge="1">
          <mxGeometry relative="1" as="geometry" />
        </mxCell>
        <mxCell id="FfjkxNWrbGcJP8TpGep8-403" value="&lt;div style=&quot;&quot;&gt;&lt;pre style=&quot;font-family: &amp;quot;JetBrains Mono&amp;quot;, monospace;&quot;&gt;&lt;span style=&quot;&quot;&gt;int &lt;/span&gt;&lt;span style=&quot;&quot;&gt;i &lt;/span&gt;&lt;font&gt;= &lt;/font&gt;&lt;font&gt;0&lt;/font&gt;&lt;font&gt;;&lt;/font&gt;&lt;/pre&gt;&lt;/div&gt;" style="rounded=0;whiteSpace=wrap;html=1;absoluteArcSize=1;arcSize=14;strokeWidth=2;fontSize=14;labelBackgroundColor=none;fontColor=#000000;" parent="1" vertex="1">
          <mxGeometry x="1160.1000000000001" y="-965" width="127.5" height="50" as="geometry" />
        </mxCell>
        <mxCell id="FfjkxNWrbGcJP8TpGep8-410" style="edgeStyle=orthogonalEdgeStyle;rounded=0;orthogonalLoop=1;jettySize=auto;html=1;exitX=0.5;exitY=1;exitDx=0;exitDy=0;entryX=0.5;entryY=0;entryDx=0;entryDy=0;fontSize=14;labelBackgroundColor=none;fontColor=#000000;" parent="1" source="FfjkxNWrbGcJP8TpGep8-406" target="FfjkxNWrbGcJP8TpGep8-409" edge="1">
          <mxGeometry relative="1" as="geometry" />
        </mxCell>
        <mxCell id="FfjkxNWrbGcJP8TpGep8-411" value="yes" style="edgeLabel;html=1;align=center;verticalAlign=middle;resizable=0;points=[];fontSize=14;labelBackgroundColor=none;fontColor=#000000;" parent="FfjkxNWrbGcJP8TpGep8-410" vertex="1" connectable="0">
          <mxGeometry x="-0.3071" y="-3" relative="1" as="geometry">
            <mxPoint as="offset" />
          </mxGeometry>
        </mxCell>
        <mxCell id="cOOqguh06IZceh5hziDc-15" style="edgeStyle=orthogonalEdgeStyle;rounded=0;orthogonalLoop=1;jettySize=auto;html=1;exitX=0;exitY=0.5;exitDx=0;exitDy=0;fontSize=14;labelBackgroundColor=none;fontColor=#000000;" parent="1" source="FfjkxNWrbGcJP8TpGep8-406" target="FfjkxNWrbGcJP8TpGep8-398" edge="1">
          <mxGeometry relative="1" as="geometry" />
        </mxCell>
        <mxCell id="cOOqguh06IZceh5hziDc-16" value="no" style="edgeLabel;html=1;align=center;verticalAlign=middle;resizable=0;points=[];fontSize=14;labelBackgroundColor=none;fontColor=#000000;" parent="cOOqguh06IZceh5hziDc-15" vertex="1" connectable="0">
          <mxGeometry x="-0.323" relative="1" as="geometry">
            <mxPoint as="offset" />
          </mxGeometry>
        </mxCell>
        <mxCell id="FfjkxNWrbGcJP8TpGep8-406" value="&lt;div style=&quot;&quot;&gt;&lt;pre style=&quot;font-family: &amp;quot;JetBrains Mono&amp;quot;, monospace;&quot;&gt;&lt;pre style=&quot;font-family: &amp;quot;JetBrains Mono&amp;quot;, monospace;&quot;&gt;&lt;pre style=&quot;font-family: &amp;quot;JetBrains Mono&amp;quot;, monospace;&quot;&gt;&lt;pre style=&quot;font-family: &amp;quot;JetBrains Mono&amp;quot;, monospace;&quot;&gt;&lt;div&gt;&lt;pre style=&quot;font-family: &amp;quot;JetBrains Mono&amp;quot;, monospace;&quot;&gt;IsLogicalSign(input[i])&lt;/pre&gt;&lt;/div&gt;&lt;/pre&gt;&lt;/pre&gt;&lt;/pre&gt;&lt;/pre&gt;&lt;/div&gt;" style="rhombus;whiteSpace=wrap;html=1;fontSize=14;labelBackgroundColor=none;fontColor=#000000;" parent="1" vertex="1">
          <mxGeometry x="1311.88" y="-765" width="315" height="80" as="geometry" />
        </mxCell>
        <mxCell id="bbl1epnfbIa33jh1_Hoh-5" style="edgeStyle=orthogonalEdgeStyle;rounded=0;orthogonalLoop=1;jettySize=auto;html=1;exitX=0.5;exitY=1;exitDx=0;exitDy=0;entryX=0.5;entryY=0;entryDx=0;entryDy=0;fontSize=14;labelBackgroundColor=none;fontColor=#000000;" parent="1" source="FfjkxNWrbGcJP8TpGep8-409" target="bbl1epnfbIa33jh1_Hoh-4" edge="1">
          <mxGeometry relative="1" as="geometry" />
        </mxCell>
        <mxCell id="FfjkxNWrbGcJP8TpGep8-409" value="&lt;div style=&quot;&quot;&gt;&lt;pre style=&quot;font-family: &amp;quot;JetBrains Mono&amp;quot;, monospace;&quot;&gt;&lt;pre style=&quot;font-family: &amp;quot;JetBrains Mono&amp;quot;, monospace;&quot;&gt;&lt;div&gt;&lt;pre style=&quot;font-family: &amp;quot;JetBrains Mono&amp;quot;, monospace;&quot;&gt;result = &lt;span style=&quot;&quot;&gt;true&lt;/span&gt;;&lt;/pre&gt;&lt;/div&gt;&lt;/pre&gt;&lt;/pre&gt;&lt;/div&gt;" style="rounded=0;whiteSpace=wrap;html=1;absoluteArcSize=1;arcSize=14;strokeWidth=2;fontSize=14;labelBackgroundColor=none;fontColor=#000000;" parent="1" vertex="1">
          <mxGeometry x="1386.88" y="-625" width="165" height="50" as="geometry" />
        </mxCell>
        <mxCell id="FfjkxNWrbGcJP8TpGep8-418" value="&lt;pre style=&quot;font-family: &amp;quot;JetBrains Mono&amp;quot;, monospace;&quot;&gt;&lt;div style=&quot;&quot;&gt;&lt;pre style=&quot;font-family: &amp;quot;JetBrains Mono&amp;quot;, monospace;&quot;&gt;&lt;pre style=&quot;font-family: &amp;quot;JetBrains Mono&amp;quot;, monospace;&quot;&gt;&lt;pre style=&quot;font-family: &amp;quot;JetBrains Mono&amp;quot;, monospace;&quot;&gt;&lt;pre style=&quot;font-family: &amp;quot;JetBrains Mono&amp;quot;, monospace;&quot;&gt;&lt;div&gt;&lt;pre style=&quot;font-family: &amp;quot;JetBrains Mono&amp;quot;, monospace;&quot;&gt;NormalizeBrackets&lt;/pre&gt;&lt;/div&gt;&lt;/pre&gt;&lt;/pre&gt;&lt;/pre&gt;&lt;/pre&gt;&lt;/div&gt;&lt;/pre&gt;" style="text;html=1;align=center;verticalAlign=middle;resizable=0;points=[];autosize=1;strokeColor=none;fillColor=none;fontSize=14;labelBackgroundColor=none;fontColor=#000000;" parent="1" vertex="1">
          <mxGeometry x="1685" y="-180" width="150" height="60" as="geometry" />
        </mxCell>
        <mxCell id="FfjkxNWrbGcJP8TpGep8-421" value="&lt;pre style=&quot;font-family: &amp;quot;JetBrains Mono&amp;quot;, monospace;&quot;&gt;input: string &lt;span style=&quot;white-space-collapse: collapse;&quot;&gt;input&lt;/span&gt;&lt;/pre&gt;" style="text;html=1;align=center;verticalAlign=middle;resizable=0;points=[];autosize=1;strokeColor=none;fillColor=none;fontSize=14;labelBackgroundColor=none;fontColor=#000000;" parent="1" vertex="1">
          <mxGeometry x="1703.75" y="-140" width="170" height="60" as="geometry" />
        </mxCell>
        <mxCell id="FfjkxNWrbGcJP8TpGep8-422" value="&lt;pre style=&quot;font-family: &amp;quot;JetBrains Mono&amp;quot;, monospace;&quot;&gt;output: string result&lt;/pre&gt;" style="text;html=1;align=center;verticalAlign=middle;resizable=0;points=[];autosize=1;strokeColor=none;fillColor=none;fontSize=14;labelBackgroundColor=none;fontColor=#000000;" parent="1" vertex="1">
          <mxGeometry x="1703.75" y="-90" width="190" height="60" as="geometry" />
        </mxCell>
        <mxCell id="FfjkxNWrbGcJP8TpGep8-423" style="edgeStyle=orthogonalEdgeStyle;rounded=0;orthogonalLoop=1;jettySize=auto;html=1;exitX=0.5;exitY=1;exitDx=0;exitDy=0;entryX=0.5;entryY=0;entryDx=0;entryDy=0;fontSize=14;labelBackgroundColor=none;fontColor=#000000;" parent="1" source="FfjkxNWrbGcJP8TpGep8-424" target="FfjkxNWrbGcJP8TpGep8-434" edge="1">
          <mxGeometry relative="1" as="geometry" />
        </mxCell>
        <mxCell id="FfjkxNWrbGcJP8TpGep8-424" value="&lt;div style=&quot;&quot;&gt;&lt;pre style=&quot;font-family: &amp;quot;JetBrains Mono&amp;quot;, monospace;&quot;&gt;&lt;pre style=&quot;font-family: &amp;quot;JetBrains Mono&amp;quot;, monospace;&quot;&gt;&lt;pre style=&quot;font-family: &amp;quot;JetBrains Mono&amp;quot;, monospace;&quot;&gt;&lt;pre style=&quot;font-family: &amp;quot;JetBrains Mono&amp;quot;, monospace;&quot;&gt;&lt;div&gt;&lt;pre style=&quot;font-family: &amp;quot;JetBrains Mono&amp;quot;, monospace;&quot;&gt;&lt;span style=&quot;&quot;&gt;string &lt;/span&gt;result;&lt;/pre&gt;&lt;/div&gt;&lt;/pre&gt;&lt;/pre&gt;&lt;/pre&gt;&lt;/pre&gt;&lt;/div&gt;" style="rounded=0;whiteSpace=wrap;html=1;absoluteArcSize=1;arcSize=14;strokeWidth=2;fontSize=14;labelBackgroundColor=none;fontColor=#000000;" parent="1" vertex="1">
          <mxGeometry x="1709.99" y="210" width="130" height="50" as="geometry" />
        </mxCell>
        <mxCell id="FfjkxNWrbGcJP8TpGep8-426" style="edgeStyle=orthogonalEdgeStyle;rounded=0;orthogonalLoop=1;jettySize=auto;html=1;exitX=0.5;exitY=1;exitDx=0;exitDy=0;entryX=0.5;entryY=0;entryDx=0;entryDy=0;fontSize=14;labelBackgroundColor=none;fontColor=#000000;" parent="1" source="FfjkxNWrbGcJP8TpGep8-430" target="FfjkxNWrbGcJP8TpGep8-437" edge="1">
          <mxGeometry relative="1" as="geometry" />
        </mxCell>
        <mxCell id="FfjkxNWrbGcJP8TpGep8-427" value="yes" style="edgeLabel;html=1;align=center;verticalAlign=middle;resizable=0;points=[];fontSize=14;labelBackgroundColor=none;fontColor=#000000;" parent="FfjkxNWrbGcJP8TpGep8-426" vertex="1" connectable="0">
          <mxGeometry x="-0.1636" y="-1" relative="1" as="geometry">
            <mxPoint as="offset" />
          </mxGeometry>
        </mxCell>
        <mxCell id="5xs730mzjVMXNToaB0Cd-21" style="edgeStyle=orthogonalEdgeStyle;rounded=0;orthogonalLoop=1;jettySize=auto;html=1;exitX=1;exitY=0.5;exitDx=0;exitDy=0;entryX=0.5;entryY=0;entryDx=0;entryDy=0;fontSize=14;labelBackgroundColor=none;fontColor=#000000;" parent="1" source="FfjkxNWrbGcJP8TpGep8-430" target="5xs730mzjVMXNToaB0Cd-5" edge="1">
          <mxGeometry relative="1" as="geometry">
            <Array as="points">
              <mxPoint x="2440" y="550" />
              <mxPoint x="2440" y="1040" />
              <mxPoint x="1897" y="1040" />
            </Array>
          </mxGeometry>
        </mxCell>
        <mxCell id="5xs730mzjVMXNToaB0Cd-23" value="no" style="edgeLabel;html=1;align=center;verticalAlign=middle;resizable=0;points=[];fontSize=14;labelBackgroundColor=none;fontColor=#000000;" parent="5xs730mzjVMXNToaB0Cd-21" vertex="1" connectable="0">
          <mxGeometry x="-0.9241" relative="1" as="geometry">
            <mxPoint as="offset" />
          </mxGeometry>
        </mxCell>
        <mxCell id="FfjkxNWrbGcJP8TpGep8-430" value="&lt;div style=&quot;&quot;&gt;&lt;pre style=&quot;font-family: &amp;quot;JetBrains Mono&amp;quot;, monospace;&quot;&gt;&lt;pre style=&quot;font-family: &amp;quot;JetBrains Mono&amp;quot;, monospace;&quot;&gt;&lt;pre style=&quot;font-family: &amp;quot;JetBrains Mono&amp;quot;, monospace;&quot;&gt;&lt;div&gt;&lt;pre style=&quot;font-family: &amp;quot;JetBrains Mono&amp;quot;, monospace;&quot;&gt;&lt;span style=&quot;&quot;&gt;i &lt;/span&gt;&amp;lt; &lt;span style=&quot;&quot;&gt;input&lt;/span&gt;.Length&lt;/pre&gt;&lt;/div&gt;&lt;/pre&gt;&lt;/pre&gt;&lt;/pre&gt;&lt;/div&gt;" style="rhombus;whiteSpace=wrap;html=1;fontSize=14;labelBackgroundColor=none;fontColor=#000000;" parent="1" vertex="1">
          <mxGeometry x="1617.5" y="510" width="315" height="80" as="geometry" />
        </mxCell>
        <mxCell id="FfjkxNWrbGcJP8TpGep8-431" style="edgeStyle=orthogonalEdgeStyle;rounded=0;orthogonalLoop=1;jettySize=auto;html=1;exitX=0.5;exitY=0;exitDx=0;exitDy=0;entryX=0;entryY=0.5;entryDx=0;entryDy=0;fontSize=14;labelBackgroundColor=none;fontColor=#000000;" parent="1" source="FfjkxNWrbGcJP8TpGep8-432" target="FfjkxNWrbGcJP8TpGep8-430" edge="1">
          <mxGeometry relative="1" as="geometry" />
        </mxCell>
        <mxCell id="FfjkxNWrbGcJP8TpGep8-432" value="&lt;div style=&quot;&quot;&gt;&lt;pre style=&quot;font-family: &amp;quot;JetBrains Mono&amp;quot;, monospace;&quot;&gt;&lt;div&gt;&lt;pre style=&quot;font-family: &amp;quot;JetBrains Mono&amp;quot;, monospace;&quot;&gt;i++;&lt;/pre&gt;&lt;/div&gt;&lt;/pre&gt;&lt;/div&gt;" style="rounded=0;whiteSpace=wrap;html=1;absoluteArcSize=1;arcSize=14;strokeWidth=2;fontSize=14;labelBackgroundColor=none;fontColor=#000000;" parent="1" vertex="1">
          <mxGeometry x="1450" y="570" width="80" height="50" as="geometry" />
        </mxCell>
        <mxCell id="bbl1epnfbIa33jh1_Hoh-25" style="edgeStyle=orthogonalEdgeStyle;rounded=0;orthogonalLoop=1;jettySize=auto;html=1;exitX=0.5;exitY=1;exitDx=0;exitDy=0;entryX=0.5;entryY=0;entryDx=0;entryDy=0;fontSize=14;labelBackgroundColor=none;fontColor=#000000;" parent="1" source="FfjkxNWrbGcJP8TpGep8-434" target="bbl1epnfbIa33jh1_Hoh-24" edge="1">
          <mxGeometry relative="1" as="geometry" />
        </mxCell>
        <mxCell id="FfjkxNWrbGcJP8TpGep8-434" value="&lt;div style=&quot;&quot;&gt;&lt;pre style=&quot;font-family: &amp;quot;JetBrains Mono&amp;quot;, monospace;&quot;&gt;&lt;div&gt;&lt;pre style=&quot;font-family: &amp;quot;JetBrains Mono&amp;quot;, monospace;&quot;&gt;&lt;span style=&quot;&quot;&gt;int &lt;/span&gt;openBrackets = &lt;span style=&quot;&quot;&gt;0&lt;/span&gt;;&lt;/pre&gt;&lt;/div&gt;&lt;/pre&gt;&lt;/div&gt;" style="rounded=0;whiteSpace=wrap;html=1;absoluteArcSize=1;arcSize=14;strokeWidth=2;fontSize=14;labelBackgroundColor=none;fontColor=#000000;" parent="1" vertex="1">
          <mxGeometry x="1675.6200000000001" y="280" width="198.75" height="50" as="geometry" />
        </mxCell>
        <mxCell id="FfjkxNWrbGcJP8TpGep8-435" style="edgeStyle=orthogonalEdgeStyle;rounded=0;orthogonalLoop=1;jettySize=auto;html=1;exitX=0.5;exitY=1;exitDx=0;exitDy=0;entryX=0.5;entryY=0;entryDx=0;entryDy=0;fontSize=14;labelBackgroundColor=none;fontColor=#000000;" parent="1" source="FfjkxNWrbGcJP8TpGep8-437" target="FfjkxNWrbGcJP8TpGep8-438" edge="1">
          <mxGeometry relative="1" as="geometry" />
        </mxCell>
        <mxCell id="FfjkxNWrbGcJP8TpGep8-436" value="yes" style="edgeLabel;html=1;align=center;verticalAlign=middle;resizable=0;points=[];fontSize=14;labelBackgroundColor=none;fontColor=#000000;" parent="FfjkxNWrbGcJP8TpGep8-435" vertex="1" connectable="0">
          <mxGeometry x="-0.3071" y="-3" relative="1" as="geometry">
            <mxPoint as="offset" />
          </mxGeometry>
        </mxCell>
        <mxCell id="bbl1epnfbIa33jh1_Hoh-30" style="edgeStyle=orthogonalEdgeStyle;rounded=0;orthogonalLoop=1;jettySize=auto;html=1;exitX=1;exitY=0.5;exitDx=0;exitDy=0;entryX=0.5;entryY=0;entryDx=0;entryDy=0;fontSize=14;labelBackgroundColor=none;fontColor=#000000;" parent="1" source="FfjkxNWrbGcJP8TpGep8-437" target="bbl1epnfbIa33jh1_Hoh-29" edge="1">
          <mxGeometry relative="1" as="geometry" />
        </mxCell>
        <mxCell id="bbl1epnfbIa33jh1_Hoh-32" value="no" style="edgeLabel;html=1;align=center;verticalAlign=middle;resizable=0;points=[];fontSize=14;labelBackgroundColor=none;fontColor=#000000;" parent="bbl1epnfbIa33jh1_Hoh-30" vertex="1" connectable="0">
          <mxGeometry x="-0.4448" y="-3" relative="1" as="geometry">
            <mxPoint as="offset" />
          </mxGeometry>
        </mxCell>
        <mxCell id="FfjkxNWrbGcJP8TpGep8-437" value="&lt;div style=&quot;&quot;&gt;&lt;pre style=&quot;font-family: &amp;quot;JetBrains Mono&amp;quot;, monospace;&quot;&gt;&lt;pre style=&quot;font-family: &amp;quot;JetBrains Mono&amp;quot;, monospace;&quot;&gt;&lt;pre style=&quot;font-family: &amp;quot;JetBrains Mono&amp;quot;, monospace;&quot;&gt;&lt;pre style=&quot;font-family: &amp;quot;JetBrains Mono&amp;quot;, monospace;&quot;&gt;&lt;pre style=&quot;font-family: &amp;quot;JetBrains Mono&amp;quot;, monospace;&quot;&gt;&lt;div&gt;&lt;pre style=&quot;font-family: &amp;quot;JetBrains Mono&amp;quot;, monospace;&quot;&gt;input[i] == &lt;span style=&quot;&quot;&gt;&#39;(&#39;&lt;/span&gt;&lt;/pre&gt;&lt;/div&gt;&lt;/pre&gt;&lt;/pre&gt;&lt;/pre&gt;&lt;/pre&gt;&lt;/pre&gt;&lt;/div&gt;" style="rhombus;whiteSpace=wrap;html=1;fontSize=14;labelBackgroundColor=none;fontColor=#000000;" parent="1" vertex="1">
          <mxGeometry x="1740" y="645" width="315" height="80" as="geometry" />
        </mxCell>
        <mxCell id="bbl1epnfbIa33jh1_Hoh-36" style="edgeStyle=orthogonalEdgeStyle;rounded=0;orthogonalLoop=1;jettySize=auto;html=1;exitX=0.5;exitY=1;exitDx=0;exitDy=0;fontSize=14;labelBackgroundColor=none;fontColor=#000000;" parent="1" source="FfjkxNWrbGcJP8TpGep8-438" edge="1">
          <mxGeometry relative="1" as="geometry">
            <mxPoint x="1490" y="820" as="targetPoint" />
          </mxGeometry>
        </mxCell>
        <mxCell id="FfjkxNWrbGcJP8TpGep8-438" value="&lt;div style=&quot;&quot;&gt;&lt;pre style=&quot;font-family: &amp;quot;JetBrains Mono&amp;quot;, monospace;&quot;&gt;&lt;pre style=&quot;font-family: &amp;quot;JetBrains Mono&amp;quot;, monospace;&quot;&gt;&lt;pre style=&quot;font-family: &amp;quot;JetBrains Mono&amp;quot;, monospace;&quot;&gt;&lt;div&gt;&lt;pre style=&quot;font-family: &amp;quot;JetBrains Mono&amp;quot;, monospace;&quot;&gt;openBrackets++;&lt;/pre&gt;&lt;/div&gt;&lt;/pre&gt;&lt;/pre&gt;&lt;/pre&gt;&lt;/div&gt;" style="rounded=0;whiteSpace=wrap;html=1;absoluteArcSize=1;arcSize=14;strokeWidth=2;fontSize=14;labelBackgroundColor=none;fontColor=#000000;" parent="1" vertex="1">
          <mxGeometry x="1815" y="785" width="165" height="50" as="geometry" />
        </mxCell>
        <mxCell id="16" style="edgeStyle=orthogonalEdgeStyle;rounded=0;orthogonalLoop=1;jettySize=auto;html=1;exitX=0.5;exitY=1;exitDx=0;exitDy=0;entryX=0.5;entryY=0;entryDx=0;entryDy=0;" edge="1" parent="1" source="bbl1epnfbIa33jh1_Hoh-1" target="15">
          <mxGeometry relative="1" as="geometry" />
        </mxCell>
        <mxCell id="bbl1epnfbIa33jh1_Hoh-1" value="return result;" style="rounded=0;whiteSpace=wrap;html=1;fontSize=14;labelBackgroundColor=none;fontColor=#000000;" parent="1" vertex="1">
          <mxGeometry x="1221.25" y="-1715" width="120" height="60" as="geometry" />
        </mxCell>
        <mxCell id="20" style="edgeStyle=orthogonalEdgeStyle;rounded=0;orthogonalLoop=1;jettySize=auto;html=1;exitX=0.5;exitY=1;exitDx=0;exitDy=0;" edge="1" parent="1" source="bbl1epnfbIa33jh1_Hoh-4" target="19">
          <mxGeometry relative="1" as="geometry" />
        </mxCell>
        <mxCell id="bbl1epnfbIa33jh1_Hoh-4" value="return result;" style="rounded=0;whiteSpace=wrap;html=1;fontSize=14;labelBackgroundColor=none;fontColor=#000000;" parent="1" vertex="1">
          <mxGeometry x="1409.38" y="-500" width="120" height="60" as="geometry" />
        </mxCell>
        <mxCell id="24" style="edgeStyle=orthogonalEdgeStyle;rounded=0;orthogonalLoop=1;jettySize=auto;html=1;exitX=0.5;exitY=1;exitDx=0;exitDy=0;entryX=0.5;entryY=0;entryDx=0;entryDy=0;" edge="1" parent="1" source="bbl1epnfbIa33jh1_Hoh-7" target="23">
          <mxGeometry relative="1" as="geometry" />
        </mxCell>
        <mxCell id="bbl1epnfbIa33jh1_Hoh-7" value="return result;" style="rounded=0;whiteSpace=wrap;html=1;fontSize=14;labelBackgroundColor=none;fontColor=#000000;" parent="1" vertex="1">
          <mxGeometry x="1835" y="1510" width="120" height="40" as="geometry" />
        </mxCell>
        <mxCell id="8" style="edgeStyle=orthogonalEdgeStyle;rounded=0;orthogonalLoop=1;jettySize=auto;html=1;exitX=0.5;exitY=1;exitDx=0;exitDy=0;entryX=0.5;entryY=0;entryDx=0;entryDy=0;" edge="1" parent="1" source="bbl1epnfbIa33jh1_Hoh-11" target="7">
          <mxGeometry relative="1" as="geometry" />
        </mxCell>
        <mxCell id="bbl1epnfbIa33jh1_Hoh-11" value="return result;" style="rounded=0;whiteSpace=wrap;html=1;fontSize=14;labelBackgroundColor=none;fontColor=#000000;" parent="1" vertex="1">
          <mxGeometry x="207.7" y="450" width="120" height="60" as="geometry" />
        </mxCell>
        <mxCell id="6" style="edgeStyle=orthogonalEdgeStyle;rounded=0;orthogonalLoop=1;jettySize=auto;html=1;exitX=0.5;exitY=1;exitDx=0;exitDy=0;entryX=0.5;entryY=0;entryDx=0;entryDy=0;" edge="1" parent="1" source="bbl1epnfbIa33jh1_Hoh-14" target="5">
          <mxGeometry relative="1" as="geometry" />
        </mxCell>
        <mxCell id="bbl1epnfbIa33jh1_Hoh-14" value="return result;" style="rounded=0;whiteSpace=wrap;html=1;fontSize=14;labelBackgroundColor=none;fontColor=#000000;" parent="1" vertex="1">
          <mxGeometry x="122.07999999999998" y="100" width="120" height="60" as="geometry" />
        </mxCell>
        <mxCell id="10" style="edgeStyle=orthogonalEdgeStyle;rounded=0;orthogonalLoop=1;jettySize=auto;html=1;exitX=1;exitY=0.5;exitDx=0;exitDy=0;entryX=0;entryY=0.5;entryDx=0;entryDy=0;" edge="1" parent="1" source="bbl1epnfbIa33jh1_Hoh-16" target="9">
          <mxGeometry relative="1" as="geometry" />
        </mxCell>
        <mxCell id="bbl1epnfbIa33jh1_Hoh-16" value="return result;" style="rounded=0;whiteSpace=wrap;html=1;fontSize=14;labelBackgroundColor=none;fontColor=#000000;" parent="1" vertex="1">
          <mxGeometry x="-200.62" y="1190" width="120" height="60" as="geometry" />
        </mxCell>
        <mxCell id="28" style="edgeStyle=orthogonalEdgeStyle;rounded=0;orthogonalLoop=1;jettySize=auto;html=1;exitX=0.5;exitY=1;exitDx=0;exitDy=0;" edge="1" parent="1" source="bbl1epnfbIa33jh1_Hoh-18" target="27">
          <mxGeometry relative="1" as="geometry" />
        </mxCell>
        <mxCell id="bbl1epnfbIa33jh1_Hoh-18" value="return result;" style="rounded=0;whiteSpace=wrap;html=1;fontSize=14;labelBackgroundColor=none;fontColor=#000000;" parent="1" vertex="1">
          <mxGeometry x="230" y="3270" width="120" height="60" as="geometry" />
        </mxCell>
        <mxCell id="5xs730mzjVMXNToaB0Cd-2" style="edgeStyle=orthogonalEdgeStyle;rounded=0;orthogonalLoop=1;jettySize=auto;html=1;exitX=0.5;exitY=1;exitDx=0;exitDy=0;entryX=0.5;entryY=0;entryDx=0;entryDy=0;fontSize=14;labelBackgroundColor=none;fontColor=#000000;" parent="1" source="bbl1epnfbIa33jh1_Hoh-24" target="5xs730mzjVMXNToaB0Cd-1" edge="1">
          <mxGeometry relative="1" as="geometry" />
        </mxCell>
        <mxCell id="bbl1epnfbIa33jh1_Hoh-24" value="&lt;div style=&quot;&quot;&gt;&lt;pre style=&quot;font-family: &amp;quot;JetBrains Mono&amp;quot;, monospace;&quot;&gt;&lt;pre style=&quot;font-family: &amp;quot;JetBrains Mono&amp;quot;, monospace;&quot;&gt;&lt;div&gt;&lt;pre style=&quot;font-family: &amp;quot;JetBrains Mono&amp;quot;, monospace;&quot;&gt;&lt;span style=&quot;&quot;&gt;int &lt;/span&gt;closeBrackets = &lt;span style=&quot;&quot;&gt;0&lt;/span&gt;;&lt;/pre&gt;&lt;/div&gt;&lt;/pre&gt;&lt;/pre&gt;&lt;/div&gt;" style="rounded=0;whiteSpace=wrap;html=1;absoluteArcSize=1;arcSize=14;strokeWidth=2;fontSize=14;labelBackgroundColor=none;fontColor=#000000;" parent="1" vertex="1">
          <mxGeometry x="1675.6200000000001" y="355" width="198.75" height="50" as="geometry" />
        </mxCell>
        <mxCell id="bbl1epnfbIa33jh1_Hoh-34" style="edgeStyle=orthogonalEdgeStyle;rounded=0;orthogonalLoop=1;jettySize=auto;html=1;exitX=0.5;exitY=1;exitDx=0;exitDy=0;entryX=0.5;entryY=0;entryDx=0;entryDy=0;fontSize=14;labelBackgroundColor=none;fontColor=#000000;" parent="1" source="bbl1epnfbIa33jh1_Hoh-29" target="bbl1epnfbIa33jh1_Hoh-33" edge="1">
          <mxGeometry relative="1" as="geometry" />
        </mxCell>
        <mxCell id="bbl1epnfbIa33jh1_Hoh-35" value="yes" style="edgeLabel;html=1;align=center;verticalAlign=middle;resizable=0;points=[];fontSize=14;labelBackgroundColor=none;fontColor=#000000;" parent="bbl1epnfbIa33jh1_Hoh-34" vertex="1" connectable="0">
          <mxGeometry x="-0.2" y="1" relative="1" as="geometry">
            <mxPoint as="offset" />
          </mxGeometry>
        </mxCell>
        <mxCell id="bbl1epnfbIa33jh1_Hoh-39" style="edgeStyle=orthogonalEdgeStyle;rounded=0;orthogonalLoop=1;jettySize=auto;html=1;exitX=0;exitY=0.5;exitDx=0;exitDy=0;fontSize=14;labelBackgroundColor=none;fontColor=#000000;" parent="1" source="bbl1epnfbIa33jh1_Hoh-29" edge="1">
          <mxGeometry relative="1" as="geometry">
            <Array as="points">
              <mxPoint x="2100" y="915" />
              <mxPoint x="1490" y="915" />
            </Array>
            <mxPoint x="1490" y="915" as="targetPoint" />
          </mxGeometry>
        </mxCell>
        <mxCell id="bbl1epnfbIa33jh1_Hoh-40" value="no" style="edgeLabel;html=1;align=center;verticalAlign=middle;resizable=0;points=[];fontSize=14;labelBackgroundColor=none;fontColor=#000000;" parent="bbl1epnfbIa33jh1_Hoh-39" vertex="1" connectable="0">
          <mxGeometry x="-0.8929" y="-4" relative="1" as="geometry">
            <mxPoint y="-1" as="offset" />
          </mxGeometry>
        </mxCell>
        <mxCell id="bbl1epnfbIa33jh1_Hoh-29" value="&lt;div style=&quot;&quot;&gt;&lt;pre style=&quot;font-family: &amp;quot;JetBrains Mono&amp;quot;, monospace;&quot;&gt;&lt;pre style=&quot;font-family: &amp;quot;JetBrains Mono&amp;quot;, monospace;&quot;&gt;&lt;pre style=&quot;font-family: &amp;quot;JetBrains Mono&amp;quot;, monospace;&quot;&gt;&lt;pre style=&quot;font-family: &amp;quot;JetBrains Mono&amp;quot;, monospace;&quot;&gt;&lt;pre style=&quot;font-family: &amp;quot;JetBrains Mono&amp;quot;, monospace;&quot;&gt;&lt;pre style=&quot;font-family: &amp;quot;JetBrains Mono&amp;quot;, monospace;&quot;&gt;&lt;div&gt;&lt;pre style=&quot;font-family: &amp;quot;JetBrains Mono&amp;quot;, monospace;&quot;&gt;input[i] == &lt;span style=&quot;&quot;&gt;&#39;)&#39;&lt;/span&gt;&lt;/pre&gt;&lt;/div&gt;&lt;/pre&gt;&lt;/pre&gt;&lt;/pre&gt;&lt;/pre&gt;&lt;/pre&gt;&lt;/pre&gt;&lt;/div&gt;" style="rhombus;whiteSpace=wrap;html=1;fontSize=14;labelBackgroundColor=none;fontColor=#000000;" parent="1" vertex="1">
          <mxGeometry x="2100" y="725" width="225" height="80" as="geometry" />
        </mxCell>
        <mxCell id="5xs730mzjVMXNToaB0Cd-4" style="edgeStyle=orthogonalEdgeStyle;rounded=0;orthogonalLoop=1;jettySize=auto;html=1;exitX=0.5;exitY=1;exitDx=0;exitDy=0;entryX=0.5;entryY=1;entryDx=0;entryDy=0;fontSize=14;labelBackgroundColor=none;fontColor=#000000;" parent="1" source="bbl1epnfbIa33jh1_Hoh-33" target="FfjkxNWrbGcJP8TpGep8-432" edge="1">
          <mxGeometry relative="1" as="geometry" />
        </mxCell>
        <mxCell id="bbl1epnfbIa33jh1_Hoh-33" value="&lt;div style=&quot;&quot;&gt;&lt;pre style=&quot;font-family: &amp;quot;JetBrains Mono&amp;quot;, monospace;&quot;&gt;&lt;pre style=&quot;font-family: &amp;quot;JetBrains Mono&amp;quot;, monospace;&quot;&gt;&lt;pre style=&quot;font-family: &amp;quot;JetBrains Mono&amp;quot;, monospace;&quot;&gt;&lt;pre style=&quot;font-family: &amp;quot;JetBrains Mono&amp;quot;, monospace;&quot;&gt;&lt;div&gt;&lt;pre style=&quot;font-family: &amp;quot;JetBrains Mono&amp;quot;, monospace;&quot;&gt;closeBrackets++;&lt;/pre&gt;&lt;/div&gt;&lt;/pre&gt;&lt;/pre&gt;&lt;/pre&gt;&lt;/pre&gt;&lt;/div&gt;" style="rounded=0;whiteSpace=wrap;html=1;absoluteArcSize=1;arcSize=14;strokeWidth=2;fontSize=14;labelBackgroundColor=none;fontColor=#000000;" parent="1" vertex="1">
          <mxGeometry x="2130" y="925" width="165" height="50" as="geometry" />
        </mxCell>
        <mxCell id="5xs730mzjVMXNToaB0Cd-3" style="edgeStyle=orthogonalEdgeStyle;rounded=0;orthogonalLoop=1;jettySize=auto;html=1;exitX=0.5;exitY=1;exitDx=0;exitDy=0;fontSize=14;labelBackgroundColor=none;fontColor=#000000;" parent="1" source="5xs730mzjVMXNToaB0Cd-1" target="FfjkxNWrbGcJP8TpGep8-430" edge="1">
          <mxGeometry relative="1" as="geometry" />
        </mxCell>
        <mxCell id="5xs730mzjVMXNToaB0Cd-1" value="&lt;div style=&quot;&quot;&gt;&lt;pre style=&quot;font-family: &amp;quot;JetBrains Mono&amp;quot;, monospace;&quot;&gt;&lt;div&gt;&lt;pre style=&quot;font-family: &amp;quot;JetBrains Mono&amp;quot;, monospace;&quot;&gt;int i = 0;&lt;/pre&gt;&lt;/div&gt;&lt;/pre&gt;&lt;/div&gt;" style="rounded=0;whiteSpace=wrap;html=1;absoluteArcSize=1;arcSize=14;strokeWidth=2;fontSize=14;labelBackgroundColor=none;fontColor=#000000;" parent="1" vertex="1">
          <mxGeometry x="1712.5" y="440" width="125" height="30" as="geometry" />
        </mxCell>
        <mxCell id="5xs730mzjVMXNToaB0Cd-7" style="edgeStyle=orthogonalEdgeStyle;rounded=0;orthogonalLoop=1;jettySize=auto;html=1;exitX=1;exitY=0.5;exitDx=0;exitDy=0;fontSize=14;labelBackgroundColor=none;fontColor=#000000;" parent="1" source="5xs730mzjVMXNToaB0Cd-5" target="5xs730mzjVMXNToaB0Cd-6" edge="1">
          <mxGeometry relative="1" as="geometry" />
        </mxCell>
        <mxCell id="5xs730mzjVMXNToaB0Cd-8" value="yes" style="edgeLabel;html=1;align=center;verticalAlign=middle;resizable=0;points=[];fontSize=14;labelBackgroundColor=none;fontColor=#000000;" parent="5xs730mzjVMXNToaB0Cd-7" vertex="1" connectable="0">
          <mxGeometry x="-0.7293" y="-2" relative="1" as="geometry">
            <mxPoint as="offset" />
          </mxGeometry>
        </mxCell>
        <mxCell id="5xs730mzjVMXNToaB0Cd-11" style="edgeStyle=orthogonalEdgeStyle;rounded=0;orthogonalLoop=1;jettySize=auto;html=1;exitX=0;exitY=0.5;exitDx=0;exitDy=0;fontSize=14;labelBackgroundColor=none;fontColor=#000000;" parent="1" source="5xs730mzjVMXNToaB0Cd-5" target="5xs730mzjVMXNToaB0Cd-9" edge="1">
          <mxGeometry relative="1" as="geometry" />
        </mxCell>
        <mxCell id="5xs730mzjVMXNToaB0Cd-12" value="no" style="edgeLabel;html=1;align=center;verticalAlign=middle;resizable=0;points=[];fontSize=14;labelBackgroundColor=none;fontColor=#000000;" parent="5xs730mzjVMXNToaB0Cd-11" vertex="1" connectable="0">
          <mxGeometry x="-0.5856" y="2" relative="1" as="geometry">
            <mxPoint as="offset" />
          </mxGeometry>
        </mxCell>
        <mxCell id="5xs730mzjVMXNToaB0Cd-5" value="&lt;div style=&quot;&quot;&gt;&lt;pre style=&quot;font-family: &amp;quot;JetBrains Mono&amp;quot;, monospace;&quot;&gt;&lt;pre style=&quot;font-family: &amp;quot;JetBrains Mono&amp;quot;, monospace;&quot;&gt;&lt;pre style=&quot;font-family: &amp;quot;JetBrains Mono&amp;quot;, monospace;&quot;&gt;&lt;pre style=&quot;font-family: &amp;quot;JetBrains Mono&amp;quot;, monospace;&quot;&gt;&lt;pre style=&quot;font-family: &amp;quot;JetBrains Mono&amp;quot;, monospace;&quot;&gt;&lt;pre style=&quot;font-family: &amp;quot;JetBrains Mono&amp;quot;, monospace;&quot;&gt;&lt;pre style=&quot;font-family: &amp;quot;JetBrains Mono&amp;quot;, monospace;&quot;&gt;&lt;div&gt;&lt;pre style=&quot;font-family: &amp;quot;JetBrains Mono&amp;quot;, monospace;&quot;&gt;openBrackets == closeBrackets&lt;/pre&gt;&lt;/div&gt;&lt;/pre&gt;&lt;/pre&gt;&lt;/pre&gt;&lt;/pre&gt;&lt;/pre&gt;&lt;/pre&gt;&lt;/pre&gt;&lt;/div&gt;" style="rhombus;whiteSpace=wrap;html=1;fontSize=14;labelBackgroundColor=none;fontColor=#000000;" parent="1" vertex="1">
          <mxGeometry x="1701.25" y="1080" width="392.5" height="80" as="geometry" />
        </mxCell>
        <mxCell id="5xs730mzjVMXNToaB0Cd-19" style="edgeStyle=orthogonalEdgeStyle;rounded=0;orthogonalLoop=1;jettySize=auto;html=1;exitX=0.5;exitY=1;exitDx=0;exitDy=0;fontSize=14;labelBackgroundColor=none;fontColor=#000000;" parent="1" source="5xs730mzjVMXNToaB0Cd-6" edge="1">
          <mxGeometry relative="1" as="geometry">
            <mxPoint x="1870" y="1420" as="targetPoint" />
          </mxGeometry>
        </mxCell>
        <mxCell id="5xs730mzjVMXNToaB0Cd-6" value="&lt;div style=&quot;&quot;&gt;&lt;pre style=&quot;font-family: &amp;quot;JetBrains Mono&amp;quot;, monospace;&quot;&gt;result = input;&lt;/pre&gt;&lt;/div&gt;" style="rounded=0;whiteSpace=wrap;html=1;fontSize=14;labelBackgroundColor=none;fontColor=#000000;" parent="1" vertex="1">
          <mxGeometry x="2031.25" y="1210" width="185" height="40" as="geometry" />
        </mxCell>
        <mxCell id="5xs730mzjVMXNToaB0Cd-16" style="edgeStyle=orthogonalEdgeStyle;rounded=0;orthogonalLoop=1;jettySize=auto;html=1;exitX=0;exitY=0.5;exitDx=0;exitDy=0;fontSize=14;labelBackgroundColor=none;fontColor=#000000;" parent="1" source="5xs730mzjVMXNToaB0Cd-9" target="5xs730mzjVMXNToaB0Cd-15" edge="1">
          <mxGeometry relative="1" as="geometry" />
        </mxCell>
        <mxCell id="5xs730mzjVMXNToaB0Cd-17" value="no" style="edgeLabel;html=1;align=center;verticalAlign=middle;resizable=0;points=[];fontSize=14;labelBackgroundColor=none;fontColor=#000000;" parent="5xs730mzjVMXNToaB0Cd-16" vertex="1" connectable="0">
          <mxGeometry x="-0.6044" y="-1" relative="1" as="geometry">
            <mxPoint as="offset" />
          </mxGeometry>
        </mxCell>
        <mxCell id="5xs730mzjVMXNToaB0Cd-9" value="&lt;div style=&quot;&quot;&gt;&lt;pre style=&quot;font-family: &amp;quot;JetBrains Mono&amp;quot;, monospace;&quot;&gt;&lt;pre style=&quot;font-family: &amp;quot;JetBrains Mono&amp;quot;, monospace;&quot;&gt;&lt;pre style=&quot;font-family: &amp;quot;JetBrains Mono&amp;quot;, monospace;&quot;&gt;&lt;pre style=&quot;font-family: &amp;quot;JetBrains Mono&amp;quot;, monospace;&quot;&gt;&lt;pre style=&quot;font-family: &amp;quot;JetBrains Mono&amp;quot;, monospace;&quot;&gt;&lt;pre style=&quot;font-family: &amp;quot;JetBrains Mono&amp;quot;, monospace;&quot;&gt;&lt;pre style=&quot;font-family: &amp;quot;JetBrains Mono&amp;quot;, monospace;&quot;&gt;&lt;pre style=&quot;font-family: &amp;quot;JetBrains Mono&amp;quot;, monospace;&quot;&gt;&lt;div&gt;&lt;pre style=&quot;font-family: &amp;quot;JetBrains Mono&amp;quot;, monospace;&quot;&gt;openBrackets &amp;gt; closeBrackets&lt;/pre&gt;&lt;/div&gt;&lt;/pre&gt;&lt;/pre&gt;&lt;/pre&gt;&lt;/pre&gt;&lt;/pre&gt;&lt;/pre&gt;&lt;/pre&gt;&lt;/pre&gt;&lt;/div&gt;" style="rhombus;whiteSpace=wrap;html=1;fontSize=14;labelBackgroundColor=none;fontColor=#000000;" parent="1" vertex="1">
          <mxGeometry x="1430" y="1220" width="392.5" height="80" as="geometry" />
        </mxCell>
        <mxCell id="5xs730mzjVMXNToaB0Cd-20" style="edgeStyle=orthogonalEdgeStyle;rounded=0;orthogonalLoop=1;jettySize=auto;html=1;exitX=0.5;exitY=1;exitDx=0;exitDy=0;fontSize=14;labelBackgroundColor=none;fontColor=#000000;" parent="1" source="5xs730mzjVMXNToaB0Cd-10" target="bbl1epnfbIa33jh1_Hoh-7" edge="1">
          <mxGeometry relative="1" as="geometry">
            <Array as="points">
              <mxPoint x="1619" y="1420" />
              <mxPoint x="1897" y="1420" />
            </Array>
          </mxGeometry>
        </mxCell>
        <mxCell id="5xs730mzjVMXNToaB0Cd-10" value="&lt;div style=&quot;&quot;&gt;&lt;pre style=&quot;font-family: &amp;quot;JetBrains Mono&amp;quot;, monospace;&quot;&gt;&lt;div&gt;&lt;pre style=&quot;font-family: &amp;quot;JetBrains Mono&amp;quot;, monospace;&quot;&gt;result = input.Substring(&lt;span style=&quot;&quot;&gt;1&lt;/span&gt;);&lt;/pre&gt;&lt;/div&gt;&lt;/pre&gt;&lt;/div&gt;" style="rounded=0;whiteSpace=wrap;html=1;fontSize=14;labelBackgroundColor=none;fontColor=#000000;" parent="1" vertex="1">
          <mxGeometry x="1460" y="1340" width="317.5" height="40" as="geometry" />
        </mxCell>
        <mxCell id="5xs730mzjVMXNToaB0Cd-13" style="edgeStyle=orthogonalEdgeStyle;rounded=0;orthogonalLoop=1;jettySize=auto;html=1;exitX=0.5;exitY=1;exitDx=0;exitDy=0;fontSize=14;labelBackgroundColor=none;fontColor=#000000;" parent="1" source="5xs730mzjVMXNToaB0Cd-9" edge="1">
          <mxGeometry relative="1" as="geometry">
            <mxPoint x="1626" y="1340" as="targetPoint" />
          </mxGeometry>
        </mxCell>
        <mxCell id="5xs730mzjVMXNToaB0Cd-14" value="yes" style="edgeLabel;html=1;align=center;verticalAlign=middle;resizable=0;points=[];fontSize=14;labelBackgroundColor=none;fontColor=#000000;" parent="5xs730mzjVMXNToaB0Cd-13" vertex="1" connectable="0">
          <mxGeometry x="-0.1401" y="2" relative="1" as="geometry">
            <mxPoint y="-2" as="offset" />
          </mxGeometry>
        </mxCell>
        <mxCell id="5xs730mzjVMXNToaB0Cd-18" style="edgeStyle=orthogonalEdgeStyle;rounded=0;orthogonalLoop=1;jettySize=auto;html=1;exitX=0.5;exitY=1;exitDx=0;exitDy=0;fontSize=14;labelBackgroundColor=none;fontColor=#000000;" parent="1" source="5xs730mzjVMXNToaB0Cd-15" edge="1">
          <mxGeometry relative="1" as="geometry">
            <mxPoint x="1900" y="1460" as="targetPoint" />
          </mxGeometry>
        </mxCell>
        <mxCell id="5xs730mzjVMXNToaB0Cd-15" value="&lt;div style=&quot;&quot;&gt;&lt;pre style=&quot;font-family: &amp;quot;JetBrains Mono&amp;quot;, monospace;&quot;&gt;&lt;pre style=&quot;font-family: &amp;quot;JetBrains Mono&amp;quot;, monospace;&quot;&gt;&lt;div&gt;&lt;pre style=&quot;font-family: &amp;quot;JetBrains Mono&amp;quot;, monospace;&quot;&gt;result = input.Substring(&lt;span style=&quot;&quot;&gt;0&lt;/span&gt;, input.Length - &lt;span style=&quot;&quot;&gt;1&lt;/span&gt;);&lt;/pre&gt;&lt;/div&gt;&lt;/pre&gt;&lt;/pre&gt;&lt;/div&gt;" style="rounded=0;whiteSpace=wrap;html=1;fontSize=14;labelBackgroundColor=none;fontColor=#000000;" parent="1" vertex="1">
          <mxGeometry x="1080" y="1430" width="477.5" height="40" as="geometry" />
        </mxCell>
        <mxCell id="5xs730mzjVMXNToaB0Cd-24" value="&lt;pre style=&quot;font-family: &amp;quot;JetBrains Mono&amp;quot;, monospace;&quot;&gt;&lt;div style=&quot;&quot;&gt;&lt;pre style=&quot;font-family: &amp;quot;JetBrains Mono&amp;quot;, monospace;&quot;&gt;&lt;pre style=&quot;font-family: &amp;quot;JetBrains Mono&amp;quot;, monospace;&quot;&gt;&lt;pre style=&quot;font-family: &amp;quot;JetBrains Mono&amp;quot;, monospace;&quot;&gt;&lt;pre style=&quot;font-family: &amp;quot;JetBrains Mono&amp;quot;, monospace;&quot;&gt;&lt;pre style=&quot;font-family: &amp;quot;JetBrains Mono&amp;quot;, monospace;&quot;&gt;&lt;div&gt;&lt;pre style=&quot;font-family: &amp;quot;JetBrains Mono&amp;quot;, monospace;&quot;&gt;FindLeftSubFormula&lt;/pre&gt;&lt;/div&gt;&lt;/pre&gt;&lt;/pre&gt;&lt;/pre&gt;&lt;/pre&gt;&lt;/pre&gt;&lt;/div&gt;&lt;/pre&gt;" style="text;html=1;align=center;verticalAlign=middle;resizable=0;points=[];autosize=1;strokeColor=none;fillColor=none;fontSize=14;labelBackgroundColor=none;fontColor=#000000;" parent="1" vertex="1">
          <mxGeometry x="1303.71" y="2050" width="160" height="60" as="geometry" />
        </mxCell>
        <mxCell id="5xs730mzjVMXNToaB0Cd-27" value="&lt;pre style=&quot;font-family: &amp;quot;JetBrains Mono&amp;quot;, monospace;&quot;&gt;input: string &lt;span style=&quot;white-space-collapse: collapse;&quot;&gt;input&lt;/span&gt;&lt;/pre&gt;" style="text;html=1;align=center;verticalAlign=middle;resizable=0;points=[];autosize=1;strokeColor=none;fillColor=none;fontSize=14;labelBackgroundColor=none;fontColor=#000000;" parent="1" vertex="1">
          <mxGeometry x="1303.71" y="2090" width="170" height="60" as="geometry" />
        </mxCell>
        <mxCell id="5xs730mzjVMXNToaB0Cd-28" value="&lt;pre style=&quot;font-family: &amp;quot;JetBrains Mono&amp;quot;, monospace;&quot;&gt;output: string result&lt;/pre&gt;" style="text;html=1;align=center;verticalAlign=middle;resizable=0;points=[];autosize=1;strokeColor=none;fillColor=none;fontSize=14;labelBackgroundColor=none;fontColor=#000000;" parent="1" vertex="1">
          <mxGeometry x="1303.71" y="2140" width="190" height="60" as="geometry" />
        </mxCell>
        <mxCell id="5xs730mzjVMXNToaB0Cd-33" style="edgeStyle=orthogonalEdgeStyle;rounded=0;orthogonalLoop=1;jettySize=auto;html=1;exitX=0.5;exitY=1;exitDx=0;exitDy=0;entryX=0.5;entryY=0;entryDx=0;entryDy=0;fontSize=14;labelBackgroundColor=none;fontColor=#000000;" parent="1" source="5xs730mzjVMXNToaB0Cd-30" target="5xs730mzjVMXNToaB0Cd-32" edge="1">
          <mxGeometry relative="1" as="geometry" />
        </mxCell>
        <mxCell id="5xs730mzjVMXNToaB0Cd-30" value="&lt;div style=&quot;&quot;&gt;&lt;pre style=&quot;font-family: &amp;quot;JetBrains Mono&amp;quot;, monospace;&quot;&gt;&lt;span style=&quot;&quot;&gt;int &lt;/span&gt;middleSign = FindMiddleSign(input);&lt;/pre&gt;&lt;/div&gt;" style="shape=process;whiteSpace=wrap;html=1;backgroundOutline=1;size=0.037283582089551584;fontSize=14;labelBackgroundColor=none;fontColor=#000000;" parent="1" vertex="1">
          <mxGeometry x="1188.77" y="2430" width="392.49" height="50" as="geometry" />
        </mxCell>
        <mxCell id="5xs730mzjVMXNToaB0Cd-37" style="edgeStyle=orthogonalEdgeStyle;rounded=0;orthogonalLoop=1;jettySize=auto;html=1;exitX=0.5;exitY=1;exitDx=0;exitDy=0;fontSize=14;labelBackgroundColor=none;fontColor=#000000;" parent="1" source="5xs730mzjVMXNToaB0Cd-32" target="5xs730mzjVMXNToaB0Cd-35" edge="1">
          <mxGeometry relative="1" as="geometry" />
        </mxCell>
        <mxCell id="5xs730mzjVMXNToaB0Cd-32" value="&lt;div style=&quot;&quot;&gt;&lt;pre style=&quot;font-family: &amp;quot;JetBrains Mono&amp;quot;, monospace;&quot;&gt;&lt;span style=&quot;&quot;&gt;string &lt;/span&gt;result = NormalizeBrackets(input.Substring(&lt;span style=&quot;&quot;&gt;0&lt;/span&gt;, middleSign));&lt;/pre&gt;&lt;/div&gt;" style="shape=process;whiteSpace=wrap;html=1;backgroundOutline=1;size=0.037283582089551584;fontSize=14;labelBackgroundColor=none;fontColor=#000000;" parent="1" vertex="1">
          <mxGeometry x="1044.4" y="2520" width="681.24" height="50" as="geometry" />
        </mxCell>
        <mxCell id="32" style="edgeStyle=orthogonalEdgeStyle;rounded=0;orthogonalLoop=1;jettySize=auto;html=1;exitX=0.5;exitY=1;exitDx=0;exitDy=0;entryX=0.5;entryY=0;entryDx=0;entryDy=0;" edge="1" parent="1" source="5xs730mzjVMXNToaB0Cd-35" target="31">
          <mxGeometry relative="1" as="geometry" />
        </mxCell>
        <mxCell id="5xs730mzjVMXNToaB0Cd-35" value="return result;" style="rounded=0;whiteSpace=wrap;html=1;fontSize=14;labelBackgroundColor=none;fontColor=#000000;" parent="1" vertex="1">
          <mxGeometry x="1325.01" y="2610" width="120" height="40" as="geometry" />
        </mxCell>
        <mxCell id="5xs730mzjVMXNToaB0Cd-38" value="&lt;pre style=&quot;font-family: &amp;quot;JetBrains Mono&amp;quot;, monospace;&quot;&gt;&lt;div style=&quot;&quot;&gt;&lt;pre style=&quot;font-family: &amp;quot;JetBrains Mono&amp;quot;, monospace;&quot;&gt;&lt;pre style=&quot;font-family: &amp;quot;JetBrains Mono&amp;quot;, monospace;&quot;&gt;&lt;pre style=&quot;font-family: &amp;quot;JetBrains Mono&amp;quot;, monospace;&quot;&gt;&lt;pre style=&quot;font-family: &amp;quot;JetBrains Mono&amp;quot;, monospace;&quot;&gt;&lt;pre style=&quot;font-family: &amp;quot;JetBrains Mono&amp;quot;, monospace;&quot;&gt;&lt;pre style=&quot;font-family: &amp;quot;JetBrains Mono&amp;quot;, monospace;&quot;&gt;&lt;div&gt;&lt;pre style=&quot;font-family: &amp;quot;JetBrains Mono&amp;quot;, monospace;&quot;&gt;FindAllPropositionalVariables&lt;/pre&gt;&lt;/div&gt;&lt;/pre&gt;&lt;/pre&gt;&lt;/pre&gt;&lt;/pre&gt;&lt;/pre&gt;&lt;/pre&gt;&lt;/div&gt;&lt;/pre&gt;" style="text;html=1;align=center;verticalAlign=middle;resizable=0;points=[];autosize=1;strokeColor=none;fillColor=none;fontSize=14;labelBackgroundColor=none;fontColor=#000000;" parent="1" vertex="1">
          <mxGeometry x="1314.07" y="3010" width="250" height="60" as="geometry" />
        </mxCell>
        <mxCell id="5xs730mzjVMXNToaB0Cd-41" value="&lt;pre style=&quot;font-family: &amp;quot;JetBrains Mono&amp;quot;, monospace;&quot;&gt;input: string &lt;span style=&quot;white-space-collapse: collapse;&quot;&gt;input&lt;/span&gt;&lt;/pre&gt;" style="text;html=1;align=center;verticalAlign=middle;resizable=0;points=[];autosize=1;strokeColor=none;fillColor=none;fontSize=14;labelBackgroundColor=none;fontColor=#000000;" parent="1" vertex="1">
          <mxGeometry x="1309.07" y="3050" width="170" height="60" as="geometry" />
        </mxCell>
        <mxCell id="5xs730mzjVMXNToaB0Cd-42" value="&lt;pre style=&quot;font-family: &amp;quot;JetBrains Mono&amp;quot;, monospace;&quot;&gt;output: List&amp;lt;&lt;span style=&quot;white-space-collapse: collapse;&quot;&gt;string&lt;/span&gt;&lt;span style=&quot;white-space-collapse: collapse;&quot;&gt;&amp;gt;&amp;nbsp;&lt;/span&gt;variables&lt;/pre&gt;" style="text;html=1;align=center;verticalAlign=middle;resizable=0;points=[];autosize=1;strokeColor=none;fillColor=none;fontSize=14;labelBackgroundColor=none;fontColor=#000000;" parent="1" vertex="1">
          <mxGeometry x="1314.07" y="3090" width="250" height="60" as="geometry" />
        </mxCell>
        <mxCell id="40" style="edgeStyle=orthogonalEdgeStyle;rounded=0;orthogonalLoop=1;jettySize=auto;html=1;exitX=0.5;exitY=1;exitDx=0;exitDy=0;entryX=0.5;entryY=0;entryDx=0;entryDy=0;" edge="1" parent="1" source="5xs730mzjVMXNToaB0Cd-48" target="39">
          <mxGeometry relative="1" as="geometry" />
        </mxCell>
        <mxCell id="5xs730mzjVMXNToaB0Cd-48" value="&lt;pre style=&quot;font-family: &amp;quot;JetBrains Mono&amp;quot;, monospace;&quot;&gt;&lt;div&gt;&lt;pre style=&quot;font-family: &amp;quot;JetBrains Mono&amp;quot;, monospace;&quot;&gt;&lt;span style=&quot;&quot;&gt;return &lt;/span&gt;variables;&lt;/pre&gt;&lt;/div&gt;&lt;/pre&gt;" style="rounded=0;whiteSpace=wrap;html=1;fontSize=14;labelBackgroundColor=none;fontColor=#000000;" parent="1" vertex="1">
          <mxGeometry x="1041.04" y="3840" width="186.4" height="40" as="geometry" />
        </mxCell>
        <mxCell id="5xs730mzjVMXNToaB0Cd-54" style="edgeStyle=orthogonalEdgeStyle;rounded=0;orthogonalLoop=1;jettySize=auto;html=1;exitX=0.5;exitY=1;exitDx=0;exitDy=0;entryX=0.5;entryY=0;entryDx=0;entryDy=0;fontSize=14;labelBackgroundColor=none;fontColor=#000000;" parent="1" source="5xs730mzjVMXNToaB0Cd-50" target="5xs730mzjVMXNToaB0Cd-53" edge="1">
          <mxGeometry relative="1" as="geometry" />
        </mxCell>
        <mxCell id="5xs730mzjVMXNToaB0Cd-50" value="&lt;pre style=&quot;font-family: &amp;quot;JetBrains Mono&amp;quot;, monospace;&quot;&gt;&lt;div&gt;&lt;pre style=&quot;font-family: &amp;quot;JetBrains Mono&amp;quot;, monospace;&quot;&gt;&lt;span style=&quot;&quot;&gt;int &lt;/span&gt;i = &lt;span style=&quot;&quot;&gt;0&lt;/span&gt;;&lt;/pre&gt;&lt;/div&gt;&lt;/pre&gt;" style="rounded=0;whiteSpace=wrap;html=1;fontSize=14;labelBackgroundColor=none;fontColor=#000000;" parent="1" vertex="1">
          <mxGeometry x="1353.65" y="3420" width="138.2" height="40" as="geometry" />
        </mxCell>
        <mxCell id="5xs730mzjVMXNToaB0Cd-56" style="edgeStyle=orthogonalEdgeStyle;rounded=0;orthogonalLoop=1;jettySize=auto;html=1;exitX=1;exitY=0.5;exitDx=0;exitDy=0;fontSize=14;labelBackgroundColor=none;fontColor=#000000;" parent="1" source="5xs730mzjVMXNToaB0Cd-53" target="5xs730mzjVMXNToaB0Cd-55" edge="1">
          <mxGeometry relative="1" as="geometry" />
        </mxCell>
        <mxCell id="5xs730mzjVMXNToaB0Cd-57" value="yes" style="edgeLabel;html=1;align=center;verticalAlign=middle;resizable=0;points=[];fontSize=14;labelBackgroundColor=none;fontColor=#000000;" parent="5xs730mzjVMXNToaB0Cd-56" vertex="1" connectable="0">
          <mxGeometry x="-0.67" y="-3" relative="1" as="geometry">
            <mxPoint as="offset" />
          </mxGeometry>
        </mxCell>
        <mxCell id="5xs730mzjVMXNToaB0Cd-66" style="edgeStyle=orthogonalEdgeStyle;rounded=0;orthogonalLoop=1;jettySize=auto;html=1;exitX=0;exitY=0.5;exitDx=0;exitDy=0;fontSize=14;labelBackgroundColor=none;fontColor=#000000;" parent="1" source="5xs730mzjVMXNToaB0Cd-53" target="5xs730mzjVMXNToaB0Cd-48" edge="1">
          <mxGeometry relative="1" as="geometry" />
        </mxCell>
        <mxCell id="5xs730mzjVMXNToaB0Cd-67" value="no" style="edgeLabel;html=1;align=center;verticalAlign=middle;resizable=0;points=[];fontSize=14;labelBackgroundColor=none;fontColor=#000000;" parent="5xs730mzjVMXNToaB0Cd-66" vertex="1" connectable="0">
          <mxGeometry x="-0.7848" y="-2" relative="1" as="geometry">
            <mxPoint as="offset" />
          </mxGeometry>
        </mxCell>
        <mxCell id="5xs730mzjVMXNToaB0Cd-53" value="&lt;div style=&quot;&quot;&gt;&lt;pre style=&quot;font-family: &amp;quot;JetBrains Mono&amp;quot;, monospace;&quot;&gt;&lt;pre style=&quot;font-family: &amp;quot;JetBrains Mono&amp;quot;, monospace;&quot;&gt;&lt;pre style=&quot;font-family: &amp;quot;JetBrains Mono&amp;quot;, monospace;&quot;&gt;&lt;pre style=&quot;font-family: &amp;quot;JetBrains Mono&amp;quot;, monospace;&quot;&gt;&lt;pre style=&quot;font-family: &amp;quot;JetBrains Mono&amp;quot;, monospace;&quot;&gt;&lt;pre style=&quot;font-family: &amp;quot;JetBrains Mono&amp;quot;, monospace;&quot;&gt;&lt;pre style=&quot;font-family: &amp;quot;JetBrains Mono&amp;quot;, monospace;&quot;&gt;&lt;pre style=&quot;font-family: &amp;quot;JetBrains Mono&amp;quot;, monospace;&quot;&gt;&lt;pre style=&quot;font-family: &amp;quot;JetBrains Mono&amp;quot;, monospace;&quot;&gt;&lt;div&gt;&lt;pre style=&quot;font-family: &amp;quot;JetBrains Mono&amp;quot;, monospace;&quot;&gt;i &amp;lt; input.Length&lt;/pre&gt;&lt;/div&gt;&lt;/pre&gt;&lt;/pre&gt;&lt;/pre&gt;&lt;/pre&gt;&lt;/pre&gt;&lt;/pre&gt;&lt;/pre&gt;&lt;/pre&gt;&lt;/pre&gt;&lt;/div&gt;" style="rhombus;whiteSpace=wrap;html=1;fontSize=14;labelBackgroundColor=none;fontColor=#000000;" parent="1" vertex="1">
          <mxGeometry x="1270.49" y="3500" width="304.53" height="80" as="geometry" />
        </mxCell>
        <mxCell id="5xs730mzjVMXNToaB0Cd-59" style="edgeStyle=orthogonalEdgeStyle;rounded=0;orthogonalLoop=1;jettySize=auto;html=1;exitX=0.5;exitY=1;exitDx=0;exitDy=0;fontSize=14;labelBackgroundColor=none;fontColor=#000000;" parent="1" source="5xs730mzjVMXNToaB0Cd-55" target="5xs730mzjVMXNToaB0Cd-58" edge="1">
          <mxGeometry relative="1" as="geometry" />
        </mxCell>
        <mxCell id="5xs730mzjVMXNToaB0Cd-60" value="yes" style="edgeLabel;html=1;align=center;verticalAlign=middle;resizable=0;points=[];fontSize=14;labelBackgroundColor=none;fontColor=#000000;" parent="5xs730mzjVMXNToaB0Cd-59" vertex="1" connectable="0">
          <mxGeometry x="-0.1754" y="-2" relative="1" as="geometry">
            <mxPoint as="offset" />
          </mxGeometry>
        </mxCell>
        <mxCell id="5xs730mzjVMXNToaB0Cd-63" style="edgeStyle=orthogonalEdgeStyle;rounded=0;orthogonalLoop=1;jettySize=auto;html=1;exitX=0;exitY=0.5;exitDx=0;exitDy=0;fontSize=14;labelBackgroundColor=none;fontColor=#000000;" parent="1" source="5xs730mzjVMXNToaB0Cd-55" target="5xs730mzjVMXNToaB0Cd-61" edge="1">
          <mxGeometry relative="1" as="geometry">
            <Array as="points">
              <mxPoint x="1189.94" y="3640" />
              <mxPoint x="1189.94" y="3800" />
              <mxPoint x="1422.94" y="3800" />
            </Array>
          </mxGeometry>
        </mxCell>
        <mxCell id="5xs730mzjVMXNToaB0Cd-64" value="no" style="edgeLabel;html=1;align=center;verticalAlign=middle;resizable=0;points=[];fontSize=14;labelBackgroundColor=none;fontColor=#000000;" parent="5xs730mzjVMXNToaB0Cd-63" vertex="1" connectable="0">
          <mxGeometry x="-0.8028" relative="1" as="geometry">
            <mxPoint as="offset" />
          </mxGeometry>
        </mxCell>
        <mxCell id="5xs730mzjVMXNToaB0Cd-55" value="&lt;div style=&quot;&quot;&gt;&lt;pre style=&quot;font-family: &amp;quot;JetBrains Mono&amp;quot;, monospace;&quot;&gt;&lt;pre style=&quot;font-family: &amp;quot;JetBrains Mono&amp;quot;, monospace;&quot;&gt;&lt;pre style=&quot;font-family: &amp;quot;JetBrains Mono&amp;quot;, monospace;&quot;&gt;&lt;pre style=&quot;font-family: &amp;quot;JetBrains Mono&amp;quot;, monospace;&quot;&gt;&lt;pre style=&quot;font-family: &amp;quot;JetBrains Mono&amp;quot;, monospace;&quot;&gt;&lt;pre style=&quot;font-family: &amp;quot;JetBrains Mono&amp;quot;, monospace;&quot;&gt;&lt;pre style=&quot;font-family: &amp;quot;JetBrains Mono&amp;quot;, monospace;&quot;&gt;&lt;pre style=&quot;font-family: &amp;quot;JetBrains Mono&amp;quot;, monospace;&quot;&gt;&lt;pre style=&quot;font-family: &amp;quot;JetBrains Mono&amp;quot;, monospace;&quot;&gt;&lt;pre style=&quot;font-family: &amp;quot;JetBrains Mono&amp;quot;, monospace;&quot;&gt;&lt;div&gt;&lt;pre style=&quot;font-family: &amp;quot;JetBrains Mono&amp;quot;, monospace;&quot;&gt;IsPropositionalVariable(input[i].ToString()) &amp;amp;&amp;amp; !variables.Contains(input[i].ToString())&lt;/pre&gt;&lt;/div&gt;&lt;/pre&gt;&lt;/pre&gt;&lt;/pre&gt;&lt;/pre&gt;&lt;/pre&gt;&lt;/pre&gt;&lt;/pre&gt;&lt;/pre&gt;&lt;/pre&gt;&lt;/pre&gt;&lt;/div&gt;" style="rhombus;whiteSpace=wrap;html=1;fontSize=14;labelBackgroundColor=none;fontColor=#000000;" parent="1" vertex="1">
          <mxGeometry x="1209.94" y="3600" width="1300" height="80" as="geometry" />
        </mxCell>
        <mxCell id="5xs730mzjVMXNToaB0Cd-62" style="edgeStyle=orthogonalEdgeStyle;rounded=0;orthogonalLoop=1;jettySize=auto;html=1;exitX=0.5;exitY=1;exitDx=0;exitDy=0;fontSize=14;labelBackgroundColor=none;fontColor=#000000;" parent="1" source="5xs730mzjVMXNToaB0Cd-58" edge="1">
          <mxGeometry relative="1" as="geometry">
            <mxPoint x="1409.94" y="3800" as="targetPoint" />
          </mxGeometry>
        </mxCell>
        <mxCell id="5xs730mzjVMXNToaB0Cd-58" value="&lt;pre style=&quot;font-family: &amp;quot;JetBrains Mono&amp;quot;, monospace;&quot;&gt;&lt;pre style=&quot;font-family: &amp;quot;JetBrains Mono&amp;quot;, monospace;&quot;&gt;&lt;div&gt;&lt;pre style=&quot;font-family: &amp;quot;JetBrains Mono&amp;quot;, monospace;&quot;&gt;variables.Add(input[i].ToString())&lt;/pre&gt;&lt;/div&gt;&lt;/pre&gt;&lt;/pre&gt;" style="rounded=0;whiteSpace=wrap;html=1;fontSize=14;labelBackgroundColor=none;fontColor=#000000;" parent="1" vertex="1">
          <mxGeometry x="1663.34" y="3730" width="393.2" height="40" as="geometry" />
        </mxCell>
        <mxCell id="5xs730mzjVMXNToaB0Cd-65" style="edgeStyle=orthogonalEdgeStyle;rounded=0;orthogonalLoop=1;jettySize=auto;html=1;exitX=0.5;exitY=1;exitDx=0;exitDy=0;fontSize=14;labelBackgroundColor=none;fontColor=#000000;" parent="1" source="5xs730mzjVMXNToaB0Cd-61" edge="1">
          <mxGeometry relative="1" as="geometry">
            <Array as="points">
              <mxPoint x="1422.94" y="3980" />
              <mxPoint x="1009.94" y="3980" />
              <mxPoint x="1009.94" y="3480" />
            </Array>
            <mxPoint x="1422.94" y="3480" as="targetPoint" />
          </mxGeometry>
        </mxCell>
        <mxCell id="5xs730mzjVMXNToaB0Cd-61" value="&lt;pre style=&quot;font-family: &amp;quot;JetBrains Mono&amp;quot;, monospace;&quot;&gt;&lt;pre style=&quot;font-family: &amp;quot;JetBrains Mono&amp;quot;, monospace;&quot;&gt;&lt;div&gt;&lt;pre style=&quot;font-family: &amp;quot;JetBrains Mono&amp;quot;, monospace;&quot;&gt;i++;&lt;/pre&gt;&lt;/div&gt;&lt;/pre&gt;&lt;/pre&gt;" style="rounded=0;whiteSpace=wrap;html=1;fontSize=14;labelBackgroundColor=none;fontColor=#000000;" parent="1" vertex="1">
          <mxGeometry x="1329.55" y="3860" width="186.4" height="40" as="geometry" />
        </mxCell>
        <mxCell id="5xs730mzjVMXNToaB0Cd-68" value="&lt;pre style=&quot;font-family: &amp;quot;JetBrains Mono&amp;quot;, monospace;&quot;&gt;&lt;div style=&quot;&quot;&gt;&lt;pre style=&quot;font-family: &amp;quot;JetBrains Mono&amp;quot;, monospace;&quot;&gt;&lt;pre style=&quot;font-family: &amp;quot;JetBrains Mono&amp;quot;, monospace;&quot;&gt;&lt;pre style=&quot;font-family: &amp;quot;JetBrains Mono&amp;quot;, monospace;&quot;&gt;&lt;pre style=&quot;font-family: &amp;quot;JetBrains Mono&amp;quot;, monospace;&quot;&gt;&lt;pre style=&quot;font-family: &amp;quot;JetBrains Mono&amp;quot;, monospace;&quot;&gt;&lt;pre style=&quot;font-family: &amp;quot;JetBrains Mono&amp;quot;, monospace;&quot;&gt;&lt;div&gt;&lt;pre style=&quot;font-family: &amp;quot;JetBrains Mono&amp;quot;, monospace;&quot;&gt;IsPropositionalVariable&lt;/pre&gt;&lt;/div&gt;&lt;/pre&gt;&lt;/pre&gt;&lt;/pre&gt;&lt;/pre&gt;&lt;/pre&gt;&lt;/pre&gt;&lt;/div&gt;&lt;/pre&gt;" style="text;html=1;align=center;verticalAlign=middle;resizable=0;points=[];autosize=1;strokeColor=none;fillColor=none;fontSize=14;labelBackgroundColor=none;fontColor=#000000;" parent="1" vertex="1">
          <mxGeometry x="1576.25" y="4470" width="200" height="60" as="geometry" />
        </mxCell>
        <mxCell id="5xs730mzjVMXNToaB0Cd-71" value="&lt;pre style=&quot;font-family: &amp;quot;JetBrains Mono&amp;quot;, monospace;&quot;&gt;input: string &lt;span style=&quot;white-space-collapse: collapse;&quot;&gt;input&lt;/span&gt;&lt;/pre&gt;" style="text;html=1;align=center;verticalAlign=middle;resizable=0;points=[];autosize=1;strokeColor=none;fillColor=none;fontSize=14;labelBackgroundColor=none;fontColor=#000000;" parent="1" vertex="1">
          <mxGeometry x="1564.0699999999997" y="4515" width="170" height="60" as="geometry" />
        </mxCell>
        <mxCell id="5xs730mzjVMXNToaB0Cd-72" value="&lt;pre style=&quot;font-family: &amp;quot;JetBrains Mono&amp;quot;, monospace;&quot;&gt;output: bool result&lt;/pre&gt;" style="text;html=1;align=center;verticalAlign=middle;resizable=0;points=[];autosize=1;strokeColor=none;fillColor=none;fontSize=14;labelBackgroundColor=none;fontColor=#000000;" parent="1" vertex="1">
          <mxGeometry x="1561.8799999999997" y="4565" width="170" height="60" as="geometry" />
        </mxCell>
        <mxCell id="5xs730mzjVMXNToaB0Cd-82" style="edgeStyle=orthogonalEdgeStyle;rounded=0;orthogonalLoop=1;jettySize=auto;html=1;exitX=1;exitY=0.5;exitDx=0;exitDy=0;fontSize=14;labelBackgroundColor=none;fontColor=#000000;" parent="1" source="5xs730mzjVMXNToaB0Cd-80" target="5xs730mzjVMXNToaB0Cd-81" edge="1">
          <mxGeometry relative="1" as="geometry" />
        </mxCell>
        <mxCell id="5xs730mzjVMXNToaB0Cd-83" value="yes" style="edgeLabel;html=1;align=center;verticalAlign=middle;resizable=0;points=[];fontSize=14;labelBackgroundColor=none;fontColor=#000000;" parent="5xs730mzjVMXNToaB0Cd-82" vertex="1" connectable="0">
          <mxGeometry x="-0.6248" relative="1" as="geometry">
            <mxPoint as="offset" />
          </mxGeometry>
        </mxCell>
        <mxCell id="5xs730mzjVMXNToaB0Cd-86" style="edgeStyle=orthogonalEdgeStyle;rounded=0;orthogonalLoop=1;jettySize=auto;html=1;exitX=0;exitY=0.5;exitDx=0;exitDy=0;fontSize=14;labelBackgroundColor=none;fontColor=#000000;" parent="1" source="5xs730mzjVMXNToaB0Cd-80" target="5xs730mzjVMXNToaB0Cd-85" edge="1">
          <mxGeometry relative="1" as="geometry" />
        </mxCell>
        <mxCell id="5xs730mzjVMXNToaB0Cd-87" value="no" style="edgeLabel;html=1;align=center;verticalAlign=middle;resizable=0;points=[];fontSize=14;labelBackgroundColor=none;fontColor=#000000;" parent="5xs730mzjVMXNToaB0Cd-86" vertex="1" connectable="0">
          <mxGeometry x="-0.5869" y="1" relative="1" as="geometry">
            <mxPoint as="offset" />
          </mxGeometry>
        </mxCell>
        <mxCell id="5xs730mzjVMXNToaB0Cd-80" value="&lt;div style=&quot;&quot;&gt;&lt;pre style=&quot;font-family: &amp;quot;JetBrains Mono&amp;quot;, monospace;&quot;&gt;&lt;pre style=&quot;font-family: &amp;quot;JetBrains Mono&amp;quot;, monospace;&quot;&gt;&lt;pre style=&quot;font-family: &amp;quot;JetBrains Mono&amp;quot;, monospace;&quot;&gt;&lt;pre style=&quot;font-family: &amp;quot;JetBrains Mono&amp;quot;, monospace;&quot;&gt;&lt;pre style=&quot;font-family: &amp;quot;JetBrains Mono&amp;quot;, monospace;&quot;&gt;&lt;pre style=&quot;font-family: &amp;quot;JetBrains Mono&amp;quot;, monospace;&quot;&gt;&lt;pre style=&quot;font-family: &amp;quot;JetBrains Mono&amp;quot;, monospace;&quot;&gt;&lt;pre style=&quot;font-family: &amp;quot;JetBrains Mono&amp;quot;, monospace;&quot;&gt;&lt;pre style=&quot;font-family: &amp;quot;JetBrains Mono&amp;quot;, monospace;&quot;&gt;&lt;pre style=&quot;font-family: &amp;quot;JetBrains Mono&amp;quot;, monospace;&quot;&gt;&lt;div&gt;&lt;pre style=&quot;font-family: &amp;quot;JetBrains Mono&amp;quot;, monospace;&quot;&gt;input.Length &amp;gt; &lt;span style=&quot;&quot;&gt;1&lt;/span&gt;&lt;/pre&gt;&lt;/div&gt;&lt;/pre&gt;&lt;/pre&gt;&lt;/pre&gt;&lt;/pre&gt;&lt;/pre&gt;&lt;/pre&gt;&lt;/pre&gt;&lt;/pre&gt;&lt;/pre&gt;&lt;/pre&gt;&lt;/div&gt;" style="rhombus;whiteSpace=wrap;html=1;fontSize=14;labelBackgroundColor=none;fontColor=#000000;" parent="1" vertex="1">
          <mxGeometry x="1484.9299999999998" y="4905" width="304.53" height="80" as="geometry" />
        </mxCell>
        <mxCell id="5xs730mzjVMXNToaB0Cd-84" style="edgeStyle=orthogonalEdgeStyle;rounded=0;orthogonalLoop=1;jettySize=auto;html=1;exitX=0.5;exitY=1;exitDx=0;exitDy=0;fontSize=14;labelBackgroundColor=none;fontColor=#000000;" parent="1" source="5xs730mzjVMXNToaB0Cd-81" edge="1">
          <mxGeometry relative="1" as="geometry">
            <mxPoint x="1612" y="5110" as="targetPoint" />
          </mxGeometry>
        </mxCell>
        <mxCell id="5xs730mzjVMXNToaB0Cd-81" value="&lt;pre style=&quot;font-family: &amp;quot;JetBrains Mono&amp;quot;, monospace;&quot;&gt;&lt;div&gt;&lt;pre style=&quot;font-family: &amp;quot;JetBrains Mono&amp;quot;, monospace;&quot;&gt;&lt;span style=&quot;&quot;&gt;return &lt;/span&gt;false;&lt;/pre&gt;&lt;/div&gt;&lt;/pre&gt;" style="rounded=0;whiteSpace=wrap;html=1;fontSize=14;labelBackgroundColor=none;fontColor=#000000;" parent="1" vertex="1">
          <mxGeometry x="1726.88" y="5015" width="186.4" height="40" as="geometry" />
        </mxCell>
        <mxCell id="5xs730mzjVMXNToaB0Cd-88" style="edgeStyle=orthogonalEdgeStyle;rounded=0;orthogonalLoop=1;jettySize=auto;html=1;exitX=0.5;exitY=1;exitDx=0;exitDy=0;fontSize=14;labelBackgroundColor=none;fontColor=#000000;entryX=0.5;entryY=0;entryDx=0;entryDy=0;" parent="1" source="5xs730mzjVMXNToaB0Cd-85" target="43" edge="1">
          <mxGeometry relative="1" as="geometry">
            <mxPoint x="1637.1714285714288" y="5165" as="targetPoint" />
          </mxGeometry>
        </mxCell>
        <mxCell id="5xs730mzjVMXNToaB0Cd-85" value="&lt;pre style=&quot;font-family: &amp;quot;JetBrains Mono&amp;quot;, monospace;&quot;&gt;&lt;pre style=&quot;font-family: &amp;quot;JetBrains Mono&amp;quot;, monospace;&quot;&gt;&lt;div&gt;&lt;pre style=&quot;font-family: &amp;quot;JetBrains Mono&amp;quot;, monospace;&quot;&gt;&lt;span style=&quot;&quot;&gt;return &lt;/span&gt;&lt;span style=&quot;&quot;&gt;char&lt;/span&gt;.&lt;span style=&quot;&quot;&gt;IsLetter&lt;/span&gt;(&lt;span style=&quot;&quot;&gt;Convert&lt;/span&gt;.&lt;span style=&quot;&quot;&gt;ToChar&lt;/span&gt;(&lt;span style=&quot;&quot;&gt;input&lt;/span&gt;));&lt;/pre&gt;&lt;/div&gt;&lt;/pre&gt;&lt;/pre&gt;" style="rounded=0;whiteSpace=wrap;html=1;fontSize=14;labelBackgroundColor=none;fontColor=#000000;" parent="1" vertex="1">
          <mxGeometry x="1108.0900000000001" y="5015" width="457.5" height="40" as="geometry" />
        </mxCell>
        <mxCell id="5xs730mzjVMXNToaB0Cd-90" value="&lt;pre style=&quot;font-family: &amp;quot;JetBrains Mono&amp;quot;, monospace;&quot;&gt;&lt;div style=&quot;&quot;&gt;&lt;pre style=&quot;font-family: &amp;quot;JetBrains Mono&amp;quot;, monospace;&quot;&gt;&lt;pre style=&quot;font-family: &amp;quot;JetBrains Mono&amp;quot;, monospace;&quot;&gt;&lt;pre style=&quot;font-family: &amp;quot;JetBrains Mono&amp;quot;, monospace;&quot;&gt;&lt;pre style=&quot;font-family: &amp;quot;JetBrains Mono&amp;quot;, monospace;&quot;&gt;&lt;pre style=&quot;font-family: &amp;quot;JetBrains Mono&amp;quot;, monospace;&quot;&gt;&lt;pre style=&quot;font-family: &amp;quot;JetBrains Mono&amp;quot;, monospace;&quot;&gt;&lt;pre style=&quot;font-family: &amp;quot;JetBrains Mono&amp;quot;, monospace;&quot;&gt;&lt;div&gt;&lt;pre style=&quot;font-family: &amp;quot;JetBrains Mono&amp;quot;, monospace;&quot;&gt;CheckBracketCount&lt;/pre&gt;&lt;/div&gt;&lt;/pre&gt;&lt;/pre&gt;&lt;/pre&gt;&lt;/pre&gt;&lt;/pre&gt;&lt;/pre&gt;&lt;/pre&gt;&lt;/div&gt;&lt;/pre&gt;" style="text;html=1;align=center;verticalAlign=middle;resizable=0;points=[];autosize=1;strokeColor=none;fillColor=none;fontSize=14;labelBackgroundColor=none;fontColor=#000000;" parent="1" vertex="1">
          <mxGeometry x="1276.87" y="5450" width="150" height="60" as="geometry" />
        </mxCell>
        <mxCell id="5xs730mzjVMXNToaB0Cd-93" value="&lt;pre style=&quot;font-family: &amp;quot;JetBrains Mono&amp;quot;, monospace;&quot;&gt;input: string &lt;span style=&quot;white-space-collapse: collapse;&quot;&gt;formula&lt;/span&gt;&lt;/pre&gt;" style="text;html=1;align=center;verticalAlign=middle;resizable=0;points=[];autosize=1;strokeColor=none;fillColor=none;fontSize=14;labelBackgroundColor=none;fontColor=#000000;" parent="1" vertex="1">
          <mxGeometry x="1270.62" y="5505" width="190" height="60" as="geometry" />
        </mxCell>
        <mxCell id="5xs730mzjVMXNToaB0Cd-94" value="&lt;pre style=&quot;font-family: &amp;quot;JetBrains Mono&amp;quot;, monospace;&quot;&gt;output: void&lt;/pre&gt;" style="text;html=1;align=center;verticalAlign=middle;resizable=0;points=[];autosize=1;strokeColor=none;fillColor=none;fontSize=14;labelBackgroundColor=none;fontColor=#000000;" parent="1" vertex="1">
          <mxGeometry x="1262.5" y="5555" width="120" height="60" as="geometry" />
        </mxCell>
        <mxCell id="5xs730mzjVMXNToaB0Cd-108" style="edgeStyle=orthogonalEdgeStyle;rounded=0;orthogonalLoop=1;jettySize=auto;html=1;exitX=0.5;exitY=1;exitDx=0;exitDy=0;fontSize=14;labelBackgroundColor=none;fontColor=#000000;" parent="1" source="5xs730mzjVMXNToaB0Cd-105" target="5xs730mzjVMXNToaB0Cd-106" edge="1">
          <mxGeometry relative="1" as="geometry" />
        </mxCell>
        <mxCell id="5xs730mzjVMXNToaB0Cd-105" value="&lt;pre style=&quot;font-family: &amp;quot;JetBrains Mono&amp;quot;, monospace;&quot;&gt;&lt;pre style=&quot;font-family: &amp;quot;JetBrains Mono&amp;quot;, monospace;&quot;&gt;&lt;pre style=&quot;font-family: &amp;quot;JetBrains Mono&amp;quot;, monospace;&quot;&gt;&lt;div&gt;&lt;pre style=&quot;font-family: &amp;quot;JetBrains Mono&amp;quot;, monospace;&quot;&gt;&lt;span style=&quot;&quot;&gt;int &lt;/span&gt;leftBrackets = &lt;span style=&quot;&quot;&gt;0&lt;/span&gt;;&lt;/pre&gt;&lt;/div&gt;&lt;/pre&gt;&lt;/pre&gt;&lt;/pre&gt;" style="rounded=0;whiteSpace=wrap;html=1;fontSize=14;labelBackgroundColor=none;fontColor=#000000;" parent="1" vertex="1">
          <mxGeometry x="1204.65" y="5835" width="248.2" height="40" as="geometry" />
        </mxCell>
        <mxCell id="5xs730mzjVMXNToaB0Cd-112" style="edgeStyle=orthogonalEdgeStyle;rounded=0;orthogonalLoop=1;jettySize=auto;html=1;exitX=0.5;exitY=1;exitDx=0;exitDy=0;fontSize=14;labelBackgroundColor=none;fontColor=#000000;" parent="1" source="5xs730mzjVMXNToaB0Cd-106" target="5xs730mzjVMXNToaB0Cd-111" edge="1">
          <mxGeometry relative="1" as="geometry" />
        </mxCell>
        <mxCell id="5xs730mzjVMXNToaB0Cd-106" value="&lt;pre style=&quot;font-family: &amp;quot;JetBrains Mono&amp;quot;, monospace;&quot;&gt;&lt;pre style=&quot;font-family: &amp;quot;JetBrains Mono&amp;quot;, monospace;&quot;&gt;&lt;pre style=&quot;font-family: &amp;quot;JetBrains Mono&amp;quot;, monospace;&quot;&gt;&lt;pre style=&quot;font-family: &amp;quot;JetBrains Mono&amp;quot;, monospace;&quot;&gt;&lt;div&gt;&lt;pre style=&quot;font-family: &amp;quot;JetBrains Mono&amp;quot;, monospace;&quot;&gt;&lt;span style=&quot;&quot;&gt;int &lt;/span&gt;rightBrackets = &lt;span style=&quot;&quot;&gt;0&lt;/span&gt;;&lt;/pre&gt;&lt;/div&gt;&lt;/pre&gt;&lt;/pre&gt;&lt;/pre&gt;&lt;/pre&gt;" style="rounded=0;whiteSpace=wrap;html=1;fontSize=14;labelBackgroundColor=none;fontColor=#000000;" parent="1" vertex="1">
          <mxGeometry x="1204.97" y="5905" width="248.2" height="40" as="geometry" />
        </mxCell>
        <mxCell id="5xs730mzjVMXNToaB0Cd-129" style="edgeStyle=orthogonalEdgeStyle;rounded=0;orthogonalLoop=1;jettySize=auto;html=1;exitX=1;exitY=0.5;exitDx=0;exitDy=0;fontSize=14;labelBackgroundColor=none;fontColor=#000000;" parent="1" source="5xs730mzjVMXNToaB0Cd-109" target="5xs730mzjVMXNToaB0Cd-115" edge="1">
          <mxGeometry relative="1" as="geometry" />
        </mxCell>
        <mxCell id="5xs730mzjVMXNToaB0Cd-130" value="yes" style="edgeLabel;html=1;align=center;verticalAlign=middle;resizable=0;points=[];fontSize=14;labelBackgroundColor=none;fontColor=#000000;" parent="5xs730mzjVMXNToaB0Cd-129" vertex="1" connectable="0">
          <mxGeometry x="-0.5472" y="-1" relative="1" as="geometry">
            <mxPoint as="offset" />
          </mxGeometry>
        </mxCell>
        <mxCell id="5xs730mzjVMXNToaB0Cd-140" style="edgeStyle=orthogonalEdgeStyle;rounded=0;orthogonalLoop=1;jettySize=auto;html=1;exitX=0;exitY=0.5;exitDx=0;exitDy=0;fontSize=14;labelBackgroundColor=none;fontColor=#000000;" parent="1" source="5xs730mzjVMXNToaB0Cd-109" target="5xs730mzjVMXNToaB0Cd-132" edge="1">
          <mxGeometry relative="1" as="geometry">
            <Array as="points">
              <mxPoint x="1073.75" y="6095" />
              <mxPoint x="1073.75" y="6655" />
              <mxPoint x="1326.75" y="6655" />
            </Array>
          </mxGeometry>
        </mxCell>
        <mxCell id="5xs730mzjVMXNToaB0Cd-141" value="no" style="edgeLabel;html=1;align=center;verticalAlign=middle;resizable=0;points=[];fontSize=14;labelBackgroundColor=none;fontColor=#000000;" parent="5xs730mzjVMXNToaB0Cd-140" vertex="1" connectable="0">
          <mxGeometry x="-0.9212" relative="1" as="geometry">
            <mxPoint as="offset" />
          </mxGeometry>
        </mxCell>
        <mxCell id="5xs730mzjVMXNToaB0Cd-109" value="&lt;div style=&quot;&quot;&gt;&lt;pre style=&quot;font-family: &amp;quot;JetBrains Mono&amp;quot;, monospace;&quot;&gt;&lt;pre style=&quot;font-family: &amp;quot;JetBrains Mono&amp;quot;, monospace;&quot;&gt;&lt;pre style=&quot;font-family: &amp;quot;JetBrains Mono&amp;quot;, monospace;&quot;&gt;&lt;pre style=&quot;font-family: &amp;quot;JetBrains Mono&amp;quot;, monospace;&quot;&gt;&lt;pre style=&quot;font-family: &amp;quot;JetBrains Mono&amp;quot;, monospace;&quot;&gt;&lt;pre style=&quot;font-family: &amp;quot;JetBrains Mono&amp;quot;, monospace;&quot;&gt;&lt;pre style=&quot;font-family: &amp;quot;JetBrains Mono&amp;quot;, monospace;&quot;&gt;&lt;pre style=&quot;font-family: &amp;quot;JetBrains Mono&amp;quot;, monospace;&quot;&gt;&lt;pre style=&quot;font-family: &amp;quot;JetBrains Mono&amp;quot;, monospace;&quot;&gt;&lt;pre style=&quot;font-family: &amp;quot;JetBrains Mono&amp;quot;, monospace;&quot;&gt;&lt;pre style=&quot;font-family: &amp;quot;JetBrains Mono&amp;quot;, monospace;&quot;&gt;&lt;div&gt;&lt;pre style=&quot;font-family: &amp;quot;JetBrains Mono&amp;quot;, monospace;&quot;&gt;&lt;span style=&quot;&quot;&gt;i &lt;/span&gt;&amp;lt; &lt;span style=&quot;&quot;&gt;formula&lt;/span&gt;.Length&lt;/pre&gt;&lt;/div&gt;&lt;/pre&gt;&lt;/pre&gt;&lt;/pre&gt;&lt;/pre&gt;&lt;/pre&gt;&lt;/pre&gt;&lt;/pre&gt;&lt;/pre&gt;&lt;/pre&gt;&lt;/pre&gt;&lt;/pre&gt;&lt;/div&gt;" style="rhombus;whiteSpace=wrap;html=1;fontSize=14;labelBackgroundColor=none;fontColor=#000000;" parent="1" vertex="1">
          <mxGeometry x="1176.49" y="6055" width="304.53" height="80" as="geometry" />
        </mxCell>
        <mxCell id="5xs730mzjVMXNToaB0Cd-113" style="edgeStyle=orthogonalEdgeStyle;rounded=0;orthogonalLoop=1;jettySize=auto;html=1;exitX=0.5;exitY=1;exitDx=0;exitDy=0;fontSize=14;labelBackgroundColor=none;fontColor=#000000;" parent="1" source="5xs730mzjVMXNToaB0Cd-111" target="5xs730mzjVMXNToaB0Cd-109" edge="1">
          <mxGeometry relative="1" as="geometry" />
        </mxCell>
        <mxCell id="5xs730mzjVMXNToaB0Cd-111" value="&lt;pre style=&quot;font-family: &amp;quot;JetBrains Mono&amp;quot;, monospace;&quot;&gt;&lt;pre style=&quot;font-family: &amp;quot;JetBrains Mono&amp;quot;, monospace;&quot;&gt;&lt;pre style=&quot;font-family: &amp;quot;JetBrains Mono&amp;quot;, monospace;&quot;&gt;&lt;pre style=&quot;font-family: &amp;quot;JetBrains Mono&amp;quot;, monospace;&quot;&gt;&lt;pre style=&quot;font-family: &amp;quot;JetBrains Mono&amp;quot;, monospace;&quot;&gt;&lt;div&gt;&lt;pre style=&quot;font-family: &amp;quot;JetBrains Mono&amp;quot;, monospace;&quot;&gt;&lt;span style=&quot;&quot;&gt;int &lt;/span&gt;i = &lt;span style=&quot;&quot;&gt;0&lt;/span&gt;;&lt;/pre&gt;&lt;/div&gt;&lt;/pre&gt;&lt;/pre&gt;&lt;/pre&gt;&lt;/pre&gt;&lt;/pre&gt;" style="rounded=0;whiteSpace=wrap;html=1;fontSize=14;labelBackgroundColor=none;fontColor=#000000;" parent="1" vertex="1">
          <mxGeometry x="1264.2" y="5985" width="129.1" height="40" as="geometry" />
        </mxCell>
        <mxCell id="5xs730mzjVMXNToaB0Cd-131" style="edgeStyle=orthogonalEdgeStyle;rounded=0;orthogonalLoop=1;jettySize=auto;html=1;exitX=0.5;exitY=1;exitDx=0;exitDy=0;fontSize=14;labelBackgroundColor=none;fontColor=#000000;" parent="1" source="5xs730mzjVMXNToaB0Cd-114" edge="1">
          <mxGeometry relative="1" as="geometry">
            <Array as="points">
              <mxPoint x="1326.75" y="6595" />
              <mxPoint x="2093.75" y="6595" />
              <mxPoint x="2093.75" y="6035" />
              <mxPoint x="1328.75" y="6035" />
            </Array>
            <mxPoint x="1328.75" y="6035" as="targetPoint" />
          </mxGeometry>
        </mxCell>
        <mxCell id="5xs730mzjVMXNToaB0Cd-114" value="&lt;pre style=&quot;font-family: &amp;quot;JetBrains Mono&amp;quot;, monospace;&quot;&gt;&lt;pre style=&quot;font-family: &amp;quot;JetBrains Mono&amp;quot;, monospace;&quot;&gt;&lt;div&gt;&lt;pre style=&quot;font-family: &amp;quot;JetBrains Mono&amp;quot;, monospace;&quot;&gt;i++;&lt;/pre&gt;&lt;/div&gt;&lt;/pre&gt;&lt;/pre&gt;" style="rounded=0;whiteSpace=wrap;html=1;fontSize=14;labelBackgroundColor=none;fontColor=#000000;" parent="1" vertex="1">
          <mxGeometry x="1233.37" y="6535" width="186.4" height="40" as="geometry" />
        </mxCell>
        <mxCell id="5xs730mzjVMXNToaB0Cd-117" style="edgeStyle=orthogonalEdgeStyle;rounded=0;orthogonalLoop=1;jettySize=auto;html=1;exitX=0.5;exitY=1;exitDx=0;exitDy=0;entryX=0.5;entryY=0;entryDx=0;entryDy=0;fontSize=14;labelBackgroundColor=none;fontColor=#000000;" parent="1" source="5xs730mzjVMXNToaB0Cd-115" target="5xs730mzjVMXNToaB0Cd-116" edge="1">
          <mxGeometry relative="1" as="geometry" />
        </mxCell>
        <mxCell id="5xs730mzjVMXNToaB0Cd-118" value="yes" style="edgeLabel;html=1;align=center;verticalAlign=middle;resizable=0;points=[];fontSize=14;labelBackgroundColor=none;fontColor=#000000;" parent="5xs730mzjVMXNToaB0Cd-117" vertex="1" connectable="0">
          <mxGeometry x="-0.0933" relative="1" as="geometry">
            <mxPoint as="offset" />
          </mxGeometry>
        </mxCell>
        <mxCell id="5xs730mzjVMXNToaB0Cd-123" style="edgeStyle=orthogonalEdgeStyle;rounded=0;orthogonalLoop=1;jettySize=auto;html=1;exitX=1;exitY=0.5;exitDx=0;exitDy=0;fontSize=14;labelBackgroundColor=none;fontColor=#000000;" parent="1" source="5xs730mzjVMXNToaB0Cd-115" target="5xs730mzjVMXNToaB0Cd-121" edge="1">
          <mxGeometry relative="1" as="geometry" />
        </mxCell>
        <mxCell id="5xs730mzjVMXNToaB0Cd-124" value="no" style="edgeLabel;html=1;align=center;verticalAlign=middle;resizable=0;points=[];fontSize=14;labelBackgroundColor=none;fontColor=#000000;" parent="5xs730mzjVMXNToaB0Cd-123" vertex="1" connectable="0">
          <mxGeometry x="-0.3835" y="1" relative="1" as="geometry">
            <mxPoint as="offset" />
          </mxGeometry>
        </mxCell>
        <mxCell id="5xs730mzjVMXNToaB0Cd-115" value="&lt;div style=&quot;&quot;&gt;&lt;pre style=&quot;font-family: &amp;quot;JetBrains Mono&amp;quot;, monospace;&quot;&gt;&lt;pre style=&quot;font-family: &amp;quot;JetBrains Mono&amp;quot;, monospace;&quot;&gt;&lt;pre style=&quot;font-family: &amp;quot;JetBrains Mono&amp;quot;, monospace;&quot;&gt;&lt;pre style=&quot;font-family: &amp;quot;JetBrains Mono&amp;quot;, monospace;&quot;&gt;&lt;pre style=&quot;font-family: &amp;quot;JetBrains Mono&amp;quot;, monospace;&quot;&gt;&lt;pre style=&quot;font-family: &amp;quot;JetBrains Mono&amp;quot;, monospace;&quot;&gt;&lt;pre style=&quot;font-family: &amp;quot;JetBrains Mono&amp;quot;, monospace;&quot;&gt;&lt;pre style=&quot;font-family: &amp;quot;JetBrains Mono&amp;quot;, monospace;&quot;&gt;&lt;pre style=&quot;font-family: &amp;quot;JetBrains Mono&amp;quot;, monospace;&quot;&gt;&lt;pre style=&quot;font-family: &amp;quot;JetBrains Mono&amp;quot;, monospace;&quot;&gt;&lt;pre style=&quot;font-family: &amp;quot;JetBrains Mono&amp;quot;, monospace;&quot;&gt;&lt;pre style=&quot;font-family: &amp;quot;JetBrains Mono&amp;quot;, monospace;&quot;&gt;&lt;div&gt;&lt;pre style=&quot;font-family: &amp;quot;JetBrains Mono&amp;quot;, monospace;&quot;&gt;formula[i] == &lt;span style=&quot;&quot;&gt;&#39;(&#39;&lt;/span&gt;&lt;/pre&gt;&lt;/div&gt;&lt;/pre&gt;&lt;/pre&gt;&lt;/pre&gt;&lt;/pre&gt;&lt;/pre&gt;&lt;/pre&gt;&lt;/pre&gt;&lt;/pre&gt;&lt;/pre&gt;&lt;/pre&gt;&lt;/pre&gt;&lt;/pre&gt;&lt;/div&gt;" style="rhombus;whiteSpace=wrap;html=1;fontSize=14;labelBackgroundColor=none;fontColor=#000000;" parent="1" vertex="1">
          <mxGeometry x="1410.47" y="6175" width="304.53" height="80" as="geometry" />
        </mxCell>
        <mxCell id="5xs730mzjVMXNToaB0Cd-125" style="edgeStyle=orthogonalEdgeStyle;rounded=0;orthogonalLoop=1;jettySize=auto;html=1;exitX=0.5;exitY=1;exitDx=0;exitDy=0;fontSize=14;labelBackgroundColor=none;fontColor=#000000;" parent="1" source="5xs730mzjVMXNToaB0Cd-116" target="5xs730mzjVMXNToaB0Cd-114" edge="1">
          <mxGeometry relative="1" as="geometry" />
        </mxCell>
        <mxCell id="5xs730mzjVMXNToaB0Cd-116" value="&lt;pre style=&quot;font-family: &amp;quot;JetBrains Mono&amp;quot;, monospace;&quot;&gt;&lt;pre style=&quot;font-family: &amp;quot;JetBrains Mono&amp;quot;, monospace;&quot;&gt;&lt;pre style=&quot;font-family: &amp;quot;JetBrains Mono&amp;quot;, monospace;&quot;&gt;&lt;div&gt;&lt;pre style=&quot;font-family: &amp;quot;JetBrains Mono&amp;quot;, monospace;&quot;&gt;leftBrackets++;&lt;/pre&gt;&lt;/div&gt;&lt;/pre&gt;&lt;/pre&gt;&lt;/pre&gt;" style="rounded=0;whiteSpace=wrap;html=1;fontSize=14;labelBackgroundColor=none;fontColor=#000000;" parent="1" vertex="1">
          <mxGeometry x="1468.6" y="6295" width="186.4" height="40" as="geometry" />
        </mxCell>
        <mxCell id="5xs730mzjVMXNToaB0Cd-119" style="edgeStyle=orthogonalEdgeStyle;rounded=0;orthogonalLoop=1;jettySize=auto;html=1;exitX=0.5;exitY=1;exitDx=0;exitDy=0;entryX=0.5;entryY=0;entryDx=0;entryDy=0;fontSize=14;labelBackgroundColor=none;fontColor=#000000;" parent="1" source="5xs730mzjVMXNToaB0Cd-121" target="5xs730mzjVMXNToaB0Cd-122" edge="1">
          <mxGeometry relative="1" as="geometry" />
        </mxCell>
        <mxCell id="5xs730mzjVMXNToaB0Cd-120" value="yes" style="edgeLabel;html=1;align=center;verticalAlign=middle;resizable=0;points=[];fontSize=14;labelBackgroundColor=none;fontColor=#000000;" parent="5xs730mzjVMXNToaB0Cd-119" vertex="1" connectable="0">
          <mxGeometry x="-0.0933" relative="1" as="geometry">
            <mxPoint as="offset" />
          </mxGeometry>
        </mxCell>
        <mxCell id="5xs730mzjVMXNToaB0Cd-127" style="edgeStyle=orthogonalEdgeStyle;rounded=0;orthogonalLoop=1;jettySize=auto;html=1;exitX=1;exitY=0.5;exitDx=0;exitDy=0;fontSize=14;labelBackgroundColor=none;fontColor=#000000;" parent="1" source="5xs730mzjVMXNToaB0Cd-121" edge="1">
          <mxGeometry relative="1" as="geometry">
            <Array as="points">
              <mxPoint x="2039.75" y="6315" />
              <mxPoint x="2039.75" y="6485" />
              <mxPoint x="1326.75" y="6485" />
            </Array>
            <mxPoint x="1323.75" y="6485" as="targetPoint" />
          </mxGeometry>
        </mxCell>
        <mxCell id="5xs730mzjVMXNToaB0Cd-128" value="no" style="edgeLabel;html=1;align=center;verticalAlign=middle;resizable=0;points=[];fontSize=14;labelBackgroundColor=none;fontColor=#000000;" parent="5xs730mzjVMXNToaB0Cd-127" vertex="1" connectable="0">
          <mxGeometry x="-0.9707" y="-1" relative="1" as="geometry">
            <mxPoint as="offset" />
          </mxGeometry>
        </mxCell>
        <mxCell id="5xs730mzjVMXNToaB0Cd-121" value="&lt;div style=&quot;&quot;&gt;&lt;pre style=&quot;font-family: &amp;quot;JetBrains Mono&amp;quot;, monospace;&quot;&gt;&lt;pre style=&quot;font-family: &amp;quot;JetBrains Mono&amp;quot;, monospace;&quot;&gt;&lt;pre style=&quot;font-family: &amp;quot;JetBrains Mono&amp;quot;, monospace;&quot;&gt;&lt;pre style=&quot;font-family: &amp;quot;JetBrains Mono&amp;quot;, monospace;&quot;&gt;&lt;pre style=&quot;font-family: &amp;quot;JetBrains Mono&amp;quot;, monospace;&quot;&gt;&lt;pre style=&quot;font-family: &amp;quot;JetBrains Mono&amp;quot;, monospace;&quot;&gt;&lt;pre style=&quot;font-family: &amp;quot;JetBrains Mono&amp;quot;, monospace;&quot;&gt;&lt;pre style=&quot;font-family: &amp;quot;JetBrains Mono&amp;quot;, monospace;&quot;&gt;&lt;pre style=&quot;font-family: &amp;quot;JetBrains Mono&amp;quot;, monospace;&quot;&gt;&lt;pre style=&quot;font-family: &amp;quot;JetBrains Mono&amp;quot;, monospace;&quot;&gt;&lt;pre style=&quot;font-family: &amp;quot;JetBrains Mono&amp;quot;, monospace;&quot;&gt;&lt;pre style=&quot;font-family: &amp;quot;JetBrains Mono&amp;quot;, monospace;&quot;&gt;&lt;pre style=&quot;font-family: &amp;quot;JetBrains Mono&amp;quot;, monospace;&quot;&gt;&lt;div&gt;&lt;pre style=&quot;font-family: &amp;quot;JetBrains Mono&amp;quot;, monospace;&quot;&gt;formula[i] == &lt;span style=&quot;&quot;&gt;&#39;)&#39;&lt;/span&gt;&lt;/pre&gt;&lt;/div&gt;&lt;/pre&gt;&lt;/pre&gt;&lt;/pre&gt;&lt;/pre&gt;&lt;/pre&gt;&lt;/pre&gt;&lt;/pre&gt;&lt;/pre&gt;&lt;/pre&gt;&lt;/pre&gt;&lt;/pre&gt;&lt;/pre&gt;&lt;/pre&gt;&lt;/div&gt;" style="rhombus;whiteSpace=wrap;html=1;fontSize=14;labelBackgroundColor=none;fontColor=#000000;" parent="1" vertex="1">
          <mxGeometry x="1715" y="6275" width="304.53" height="80" as="geometry" />
        </mxCell>
        <mxCell id="5xs730mzjVMXNToaB0Cd-126" style="edgeStyle=orthogonalEdgeStyle;rounded=0;orthogonalLoop=1;jettySize=auto;html=1;exitX=0.5;exitY=1;exitDx=0;exitDy=0;fontSize=14;labelBackgroundColor=none;fontColor=#000000;" parent="1" source="5xs730mzjVMXNToaB0Cd-122" edge="1">
          <mxGeometry relative="1" as="geometry">
            <mxPoint x="1866.75" y="6485" as="targetPoint" />
          </mxGeometry>
        </mxCell>
        <mxCell id="5xs730mzjVMXNToaB0Cd-122" value="&lt;pre style=&quot;font-family: &amp;quot;JetBrains Mono&amp;quot;, monospace;&quot;&gt;&lt;pre style=&quot;font-family: &amp;quot;JetBrains Mono&amp;quot;, monospace;&quot;&gt;&lt;pre style=&quot;font-family: &amp;quot;JetBrains Mono&amp;quot;, monospace;&quot;&gt;&lt;pre style=&quot;font-family: &amp;quot;JetBrains Mono&amp;quot;, monospace;&quot;&gt;&lt;div&gt;&lt;pre style=&quot;font-family: &amp;quot;JetBrains Mono&amp;quot;, monospace;&quot;&gt;rightBrackets++;&lt;/pre&gt;&lt;/div&gt;&lt;/pre&gt;&lt;/pre&gt;&lt;/pre&gt;&lt;/pre&gt;" style="rounded=0;whiteSpace=wrap;html=1;fontSize=14;labelBackgroundColor=none;fontColor=#000000;" parent="1" vertex="1">
          <mxGeometry x="1773.1299999999999" y="6395" width="186.4" height="40" as="geometry" />
        </mxCell>
        <mxCell id="5xs730mzjVMXNToaB0Cd-135" style="edgeStyle=orthogonalEdgeStyle;rounded=0;orthogonalLoop=1;jettySize=auto;html=1;exitX=0.5;exitY=1;exitDx=0;exitDy=0;fontSize=14;labelBackgroundColor=none;fontColor=#000000;" parent="1" source="5xs730mzjVMXNToaB0Cd-132" target="5xs730mzjVMXNToaB0Cd-133" edge="1">
          <mxGeometry relative="1" as="geometry" />
        </mxCell>
        <mxCell id="5xs730mzjVMXNToaB0Cd-136" value="yes" style="edgeLabel;html=1;align=center;verticalAlign=middle;resizable=0;points=[];fontSize=14;labelBackgroundColor=none;fontColor=#000000;" parent="5xs730mzjVMXNToaB0Cd-135" vertex="1" connectable="0">
          <mxGeometry x="-0.1938" relative="1" as="geometry">
            <mxPoint as="offset" />
          </mxGeometry>
        </mxCell>
        <mxCell id="5xs730mzjVMXNToaB0Cd-132" value="&lt;div style=&quot;&quot;&gt;&lt;pre style=&quot;font-family: &amp;quot;JetBrains Mono&amp;quot;, monospace;&quot;&gt;&lt;pre style=&quot;font-family: &amp;quot;JetBrains Mono&amp;quot;, monospace;&quot;&gt;&lt;pre style=&quot;font-family: &amp;quot;JetBrains Mono&amp;quot;, monospace;&quot;&gt;&lt;pre style=&quot;font-family: &amp;quot;JetBrains Mono&amp;quot;, monospace;&quot;&gt;&lt;pre style=&quot;font-family: &amp;quot;JetBrains Mono&amp;quot;, monospace;&quot;&gt;&lt;pre style=&quot;font-family: &amp;quot;JetBrains Mono&amp;quot;, monospace;&quot;&gt;&lt;pre style=&quot;font-family: &amp;quot;JetBrains Mono&amp;quot;, monospace;&quot;&gt;&lt;pre style=&quot;font-family: &amp;quot;JetBrains Mono&amp;quot;, monospace;&quot;&gt;&lt;pre style=&quot;font-family: &amp;quot;JetBrains Mono&amp;quot;, monospace;&quot;&gt;&lt;pre style=&quot;font-family: &amp;quot;JetBrains Mono&amp;quot;, monospace;&quot;&gt;&lt;pre style=&quot;font-family: &amp;quot;JetBrains Mono&amp;quot;, monospace;&quot;&gt;&lt;pre style=&quot;font-family: &amp;quot;JetBrains Mono&amp;quot;, monospace;&quot;&gt;&lt;div&gt;&lt;pre style=&quot;font-family: &amp;quot;JetBrains Mono&amp;quot;, monospace;&quot;&gt;leftBrackets != rightBrackets&lt;/pre&gt;&lt;/div&gt;&lt;/pre&gt;&lt;/pre&gt;&lt;/pre&gt;&lt;/pre&gt;&lt;/pre&gt;&lt;/pre&gt;&lt;/pre&gt;&lt;/pre&gt;&lt;/pre&gt;&lt;/pre&gt;&lt;/pre&gt;&lt;/pre&gt;&lt;/div&gt;" style="rhombus;whiteSpace=wrap;html=1;fontSize=14;labelBackgroundColor=none;fontColor=#000000;" parent="1" vertex="1">
          <mxGeometry x="1121.84" y="6705" width="409.44" height="80" as="geometry" />
        </mxCell>
        <mxCell id="5xs730mzjVMXNToaB0Cd-133" value="&lt;pre style=&quot;font-family: &amp;quot;JetBrains Mono&amp;quot;, monospace;&quot;&gt;&lt;pre style=&quot;font-family: &amp;quot;JetBrains Mono&amp;quot;, monospace;&quot;&gt;&lt;pre style=&quot;font-family: &amp;quot;JetBrains Mono&amp;quot;, monospace;&quot;&gt;&lt;div&gt;&lt;pre style=&quot;font-family: &amp;quot;JetBrains Mono&amp;quot;, monospace;&quot;&gt;&lt;span style=&quot;&quot;&gt;throw &lt;/span&gt;&lt;span style=&quot;&quot;&gt;new &lt;/span&gt;FormatException(&lt;span style=&quot;&quot;&gt;&quot;Invalid brackets count&quot;&lt;/span&gt;);&lt;/pre&gt;&lt;/div&gt;&lt;/pre&gt;&lt;/pre&gt;&lt;/pre&gt;" style="rounded=0;whiteSpace=wrap;html=1;fontSize=14;labelBackgroundColor=none;fontColor=#000000;" parent="1" vertex="1">
          <mxGeometry x="1069.06" y="6835" width="515" height="40" as="geometry" />
        </mxCell>
        <mxCell id="5xs730mzjVMXNToaB0Cd-137" style="edgeStyle=orthogonalEdgeStyle;rounded=0;orthogonalLoop=1;jettySize=auto;html=1;exitX=0.5;exitY=1;exitDx=0;exitDy=0;entryX=0.5;entryY=0;entryDx=0;entryDy=0;fontSize=14;labelBackgroundColor=none;fontColor=#000000;" parent="1" source="5xs730mzjVMXNToaB0Cd-133" target="46" edge="1">
          <mxGeometry relative="1" as="geometry">
            <mxPoint x="1326.5599999999995" y="7005" as="targetPoint" />
          </mxGeometry>
        </mxCell>
        <mxCell id="5xs730mzjVMXNToaB0Cd-138" style="edgeStyle=orthogonalEdgeStyle;rounded=0;orthogonalLoop=1;jettySize=auto;html=1;exitX=0;exitY=0.5;exitDx=0;exitDy=0;fontSize=14;labelBackgroundColor=none;fontColor=#000000;" parent="1" source="5xs730mzjVMXNToaB0Cd-132" edge="1">
          <mxGeometry relative="1" as="geometry">
            <Array as="points">
              <mxPoint x="1023.75" y="6745" />
              <mxPoint x="1023.75" y="6955" />
              <mxPoint x="1326.75" y="6955" />
            </Array>
            <mxPoint x="1326.75" y="6955" as="targetPoint" />
          </mxGeometry>
        </mxCell>
        <mxCell id="5xs730mzjVMXNToaB0Cd-139" value="no" style="edgeLabel;html=1;align=center;verticalAlign=middle;resizable=0;points=[];fontSize=14;labelBackgroundColor=none;fontColor=#000000;" parent="5xs730mzjVMXNToaB0Cd-138" vertex="1" connectable="0">
          <mxGeometry x="-0.8853" y="1" relative="1" as="geometry">
            <mxPoint as="offset" />
          </mxGeometry>
        </mxCell>
        <mxCell id="cOOqguh06IZceh5hziDc-19" value="&lt;pre style=&quot;font-family: &amp;quot;JetBrains Mono&amp;quot;, monospace;&quot;&gt;&lt;div style=&quot;&quot;&gt;&lt;pre style=&quot;font-family: &amp;quot;JetBrains Mono&amp;quot;, monospace;&quot;&gt;&lt;pre style=&quot;font-family: &amp;quot;JetBrains Mono&amp;quot;, monospace;&quot;&gt;&lt;pre style=&quot;font-family: &amp;quot;JetBrains Mono&amp;quot;, monospace;&quot;&gt;&lt;pre style=&quot;font-family: &amp;quot;JetBrains Mono&amp;quot;, monospace;&quot;&gt;&lt;pre style=&quot;font-family: &amp;quot;JetBrains Mono&amp;quot;, monospace;&quot;&gt;&lt;pre style=&quot;font-family: &amp;quot;JetBrains Mono&amp;quot;, monospace;&quot;&gt;&lt;div&gt;&lt;pre style=&quot;font-family: &amp;quot;JetBrains Mono&amp;quot;, monospace;&quot;&gt;FindRightSubFormula&lt;/pre&gt;&lt;/div&gt;&lt;/pre&gt;&lt;/pre&gt;&lt;/pre&gt;&lt;/pre&gt;&lt;/pre&gt;&lt;/pre&gt;&lt;/div&gt;&lt;/pre&gt;" style="text;html=1;align=center;verticalAlign=middle;resizable=0;points=[];autosize=1;strokeColor=none;fillColor=none;fontSize=14;labelBackgroundColor=none;fontColor=#000000;" parent="1" vertex="1">
          <mxGeometry x="2080" y="2062.5" width="170" height="60" as="geometry" />
        </mxCell>
        <mxCell id="cOOqguh06IZceh5hziDc-22" value="&lt;pre style=&quot;font-family: &amp;quot;JetBrains Mono&amp;quot;, monospace;&quot;&gt;input: string &lt;span style=&quot;white-space-collapse: collapse;&quot;&gt;input&lt;/span&gt;&lt;/pre&gt;" style="text;html=1;align=center;verticalAlign=middle;resizable=0;points=[];autosize=1;strokeColor=none;fillColor=none;fontSize=14;labelBackgroundColor=none;fontColor=#000000;" parent="1" vertex="1">
          <mxGeometry x="2080" y="2107.5" width="170" height="60" as="geometry" />
        </mxCell>
        <mxCell id="cOOqguh06IZceh5hziDc-23" value="&lt;pre style=&quot;font-family: &amp;quot;JetBrains Mono&amp;quot;, monospace;&quot;&gt;output: string result&lt;/pre&gt;" style="text;html=1;align=center;verticalAlign=middle;resizable=0;points=[];autosize=1;strokeColor=none;fillColor=none;fontSize=14;labelBackgroundColor=none;fontColor=#000000;" parent="1" vertex="1">
          <mxGeometry x="2080" y="2147.5" width="190" height="60" as="geometry" />
        </mxCell>
        <mxCell id="cOOqguh06IZceh5hziDc-32" style="edgeStyle=orthogonalEdgeStyle;rounded=0;orthogonalLoop=1;jettySize=auto;html=1;exitX=0.5;exitY=1;exitDx=0;exitDy=0;entryX=0.5;entryY=0;entryDx=0;entryDy=0;fontSize=14;labelBackgroundColor=none;fontColor=#000000;" parent="1" source="cOOqguh06IZceh5hziDc-25" target="cOOqguh06IZceh5hziDc-31" edge="1">
          <mxGeometry relative="1" as="geometry" />
        </mxCell>
        <mxCell id="cOOqguh06IZceh5hziDc-25" value="&lt;div style=&quot;&quot;&gt;&lt;pre style=&quot;font-family: &amp;quot;JetBrains Mono&amp;quot;, monospace;&quot;&gt;&lt;span style=&quot;&quot;&gt;int &lt;/span&gt;middleSign = FindMiddleSign(input);&lt;/pre&gt;&lt;/div&gt;" style="shape=process;whiteSpace=wrap;html=1;backgroundOutline=1;size=0.037283582089551584;fontSize=14;labelBackgroundColor=none;fontColor=#000000;" parent="1" vertex="1">
          <mxGeometry x="1947.1799999999998" y="2430" width="392.49" height="50" as="geometry" />
        </mxCell>
        <mxCell id="36" style="edgeStyle=orthogonalEdgeStyle;rounded=0;orthogonalLoop=1;jettySize=auto;html=1;exitX=0.5;exitY=1;exitDx=0;exitDy=0;entryX=0.5;entryY=0;entryDx=0;entryDy=0;" edge="1" parent="1" source="cOOqguh06IZceh5hziDc-29" target="35">
          <mxGeometry relative="1" as="geometry" />
        </mxCell>
        <mxCell id="cOOqguh06IZceh5hziDc-29" value="&lt;div style=&quot;&quot;&gt;&lt;pre style=&quot;font-family: &amp;quot;JetBrains Mono&amp;quot;, monospace;&quot;&gt;&lt;span style=&quot;&quot;&gt;return &lt;/span&gt;NormalizeBrackets(input.Substring(middleSign + &lt;span style=&quot;&quot;&gt;1&lt;/span&gt;));&lt;/pre&gt;&lt;/div&gt;" style="rounded=0;whiteSpace=wrap;html=1;fontSize=14;labelBackgroundColor=none;fontColor=#000000;" parent="1" vertex="1">
          <mxGeometry x="1870.13" y="2660" width="546.58" height="40" as="geometry" />
        </mxCell>
        <mxCell id="cOOqguh06IZceh5hziDc-34" style="edgeStyle=orthogonalEdgeStyle;rounded=0;orthogonalLoop=1;jettySize=auto;html=1;exitX=1;exitY=0.5;exitDx=0;exitDy=0;fontSize=14;labelBackgroundColor=none;fontColor=#000000;" parent="1" source="cOOqguh06IZceh5hziDc-31" target="cOOqguh06IZceh5hziDc-33" edge="1">
          <mxGeometry relative="1" as="geometry" />
        </mxCell>
        <mxCell id="cOOqguh06IZceh5hziDc-36" value="yes" style="edgeLabel;html=1;align=center;verticalAlign=middle;resizable=0;points=[];fontSize=14;labelBackgroundColor=none;fontColor=#000000;" parent="cOOqguh06IZceh5hziDc-34" vertex="1" connectable="0">
          <mxGeometry x="-0.2644" y="1" relative="1" as="geometry">
            <mxPoint as="offset" />
          </mxGeometry>
        </mxCell>
        <mxCell id="cOOqguh06IZceh5hziDc-37" style="edgeStyle=orthogonalEdgeStyle;rounded=0;orthogonalLoop=1;jettySize=auto;html=1;exitX=0;exitY=0.5;exitDx=0;exitDy=0;fontSize=14;labelBackgroundColor=none;fontColor=#000000;" parent="1" source="cOOqguh06IZceh5hziDc-31" edge="1">
          <mxGeometry relative="1" as="geometry">
            <mxPoint x="2150" y="2640" as="targetPoint" />
          </mxGeometry>
        </mxCell>
        <mxCell id="cOOqguh06IZceh5hziDc-38" value="no" style="edgeLabel;html=1;align=center;verticalAlign=middle;resizable=0;points=[];fontSize=14;labelBackgroundColor=none;fontColor=#000000;" parent="cOOqguh06IZceh5hziDc-37" vertex="1" connectable="0">
          <mxGeometry x="-0.9174" y="1" relative="1" as="geometry">
            <mxPoint as="offset" />
          </mxGeometry>
        </mxCell>
        <mxCell id="cOOqguh06IZceh5hziDc-31" value="&lt;div style=&quot;&quot;&gt;&lt;pre style=&quot;font-family: &amp;quot;JetBrains Mono&amp;quot;, monospace;&quot;&gt;&lt;pre style=&quot;font-family: &amp;quot;JetBrains Mono&amp;quot;, monospace;&quot;&gt;&lt;pre style=&quot;font-family: &amp;quot;JetBrains Mono&amp;quot;, monospace;&quot;&gt;&lt;pre style=&quot;font-family: &amp;quot;JetBrains Mono&amp;quot;, monospace;&quot;&gt;&lt;pre style=&quot;font-family: &amp;quot;JetBrains Mono&amp;quot;, monospace;&quot;&gt;&lt;pre style=&quot;font-family: &amp;quot;JetBrains Mono&amp;quot;, monospace;&quot;&gt;&lt;pre style=&quot;font-family: &amp;quot;JetBrains Mono&amp;quot;, monospace;&quot;&gt;&lt;pre style=&quot;font-family: &amp;quot;JetBrains Mono&amp;quot;, monospace;&quot;&gt;&lt;pre style=&quot;font-family: &amp;quot;JetBrains Mono&amp;quot;, monospace;&quot;&gt;&lt;div&gt;&lt;pre style=&quot;font-family: &amp;quot;JetBrains Mono&amp;quot;, monospace;&quot;&gt;input[middleSign + &lt;span style=&quot;&quot;&gt;1&lt;/span&gt;] == &lt;span style=&quot;&quot;&gt;&#39;&amp;gt;&#39;&lt;/span&gt;&lt;/pre&gt;&lt;/div&gt;&lt;/pre&gt;&lt;/pre&gt;&lt;/pre&gt;&lt;/pre&gt;&lt;/pre&gt;&lt;/pre&gt;&lt;/pre&gt;&lt;/pre&gt;&lt;/pre&gt;&lt;/div&gt;" style="rhombus;whiteSpace=wrap;html=1;fontSize=14;labelBackgroundColor=none;fontColor=#000000;" parent="1" vertex="1">
          <mxGeometry x="1947.1799999999998" y="2510" width="392.5" height="80" as="geometry" />
        </mxCell>
        <mxCell id="cOOqguh06IZceh5hziDc-35" style="edgeStyle=orthogonalEdgeStyle;rounded=0;orthogonalLoop=1;jettySize=auto;html=1;exitX=0.5;exitY=1;exitDx=0;exitDy=0;fontSize=14;labelBackgroundColor=none;fontColor=#000000;" parent="1" source="cOOqguh06IZceh5hziDc-33" target="cOOqguh06IZceh5hziDc-29" edge="1">
          <mxGeometry relative="1" as="geometry" />
        </mxCell>
        <mxCell id="cOOqguh06IZceh5hziDc-33" value="&lt;div style=&quot;&quot;&gt;&lt;pre style=&quot;font-family: &amp;quot;JetBrains Mono&amp;quot;, monospace;&quot;&gt;middleSign++;&lt;/pre&gt;&lt;/div&gt;" style="rounded=0;whiteSpace=wrap;html=1;fontSize=14;labelBackgroundColor=none;fontColor=#000000;" parent="1" vertex="1">
          <mxGeometry x="2333.42" y="2580" width="146.58" height="40" as="geometry" />
        </mxCell>
        <mxCell id="cOOqguh06IZceh5hziDc-41" style="edgeStyle=orthogonalEdgeStyle;rounded=0;orthogonalLoop=1;jettySize=auto;html=1;exitX=0.5;exitY=1;exitDx=0;exitDy=0;fontSize=14;labelBackgroundColor=none;fontColor=#000000;" parent="1" source="cOOqguh06IZceh5hziDc-39" target="5xs730mzjVMXNToaB0Cd-50" edge="1">
          <mxGeometry relative="1" as="geometry" />
        </mxCell>
        <mxCell id="cOOqguh06IZceh5hziDc-39" value="&lt;pre style=&quot;font-family: &amp;quot;JetBrains Mono&amp;quot;, monospace;&quot;&gt;&lt;pre style=&quot;font-family: &amp;quot;JetBrains Mono&amp;quot;, monospace;&quot;&gt;&lt;div&gt;&lt;pre style=&quot;font-family: &amp;quot;JetBrains Mono&amp;quot;, monospace;&quot;&gt;var variables = &lt;span style=&quot;&quot;&gt;new &lt;/span&gt;List&amp;lt;&lt;span style=&quot;&quot;&gt;string&lt;/span&gt;&amp;gt;();&lt;/pre&gt;&lt;/div&gt;&lt;/pre&gt;&lt;/pre&gt;" style="rounded=0;whiteSpace=wrap;html=1;fontSize=14;labelBackgroundColor=none;fontColor=#000000;" parent="1" vertex="1">
          <mxGeometry x="1261.8" y="3330" width="321.91" height="40" as="geometry" />
        </mxCell>
        <mxCell id="3" value="&lt;font style=&quot;font-size: 18px;&quot;&gt;begin&lt;/font&gt;" style="ellipse;whiteSpace=wrap;html=1;" vertex="1" parent="1">
          <mxGeometry x="-305.62" y="-965" width="122.5" height="60" as="geometry" />
        </mxCell>
        <mxCell id="4" style="edgeStyle=orthogonalEdgeStyle;rounded=0;orthogonalLoop=1;jettySize=auto;html=1;exitX=0.5;exitY=1;exitDx=0;exitDy=0;entryX=0.5;entryY=0;entryDx=0;entryDy=0;" edge="1" parent="1" source="3" target="FfjkxNWrbGcJP8TpGep8-14">
          <mxGeometry relative="1" as="geometry">
            <mxPoint x="-240" y="-880" as="targetPoint" />
          </mxGeometry>
        </mxCell>
        <mxCell id="5" value="&lt;font style=&quot;font-size: 18px;&quot;&gt;end&lt;/font&gt;" style="ellipse;whiteSpace=wrap;html=1;" vertex="1" parent="1">
          <mxGeometry x="120.19" y="190" width="122.5" height="60" as="geometry" />
        </mxCell>
        <mxCell id="7" value="&lt;font style=&quot;font-size: 18px;&quot;&gt;end&lt;/font&gt;" style="ellipse;whiteSpace=wrap;html=1;" vertex="1" parent="1">
          <mxGeometry x="206.45" y="550" width="122.5" height="60" as="geometry" />
        </mxCell>
        <mxCell id="9" value="&lt;font style=&quot;font-size: 18px;&quot;&gt;end&lt;/font&gt;" style="ellipse;whiteSpace=wrap;html=1;" vertex="1" parent="1">
          <mxGeometry x="-20" y="1190" width="122.5" height="60" as="geometry" />
        </mxCell>
        <mxCell id="11" value="&lt;font style=&quot;font-size: 18px;&quot;&gt;end&lt;/font&gt;" style="ellipse;whiteSpace=wrap;html=1;" vertex="1" parent="1">
          <mxGeometry x="-480.08" y="1400" width="122.5" height="60" as="geometry" />
        </mxCell>
        <mxCell id="14" style="edgeStyle=orthogonalEdgeStyle;rounded=0;orthogonalLoop=1;jettySize=auto;html=1;exitX=0.5;exitY=1;exitDx=0;exitDy=0;entryX=0.5;entryY=0;entryDx=0;entryDy=0;" edge="1" parent="1" source="13" target="FfjkxNWrbGcJP8TpGep8-381">
          <mxGeometry relative="1" as="geometry" />
        </mxCell>
        <mxCell id="13" value="&lt;font style=&quot;font-size: 18px;&quot;&gt;begin&lt;/font&gt;" style="ellipse;whiteSpace=wrap;html=1;" vertex="1" parent="1">
          <mxGeometry x="1220" y="-1890" width="122.5" height="60" as="geometry" />
        </mxCell>
        <mxCell id="15" value="&lt;font style=&quot;font-size: 18px;&quot;&gt;end&lt;/font&gt;" style="ellipse;whiteSpace=wrap;html=1;" vertex="1" parent="1">
          <mxGeometry x="1220" y="-1620" width="122.5" height="60" as="geometry" />
        </mxCell>
        <mxCell id="18" style="edgeStyle=orthogonalEdgeStyle;rounded=0;orthogonalLoop=1;jettySize=auto;html=1;exitX=0.5;exitY=1;exitDx=0;exitDy=0;entryX=0.5;entryY=0;entryDx=0;entryDy=0;" edge="1" parent="1" source="17" target="FfjkxNWrbGcJP8TpGep8-389">
          <mxGeometry relative="1" as="geometry" />
        </mxCell>
        <mxCell id="17" value="&lt;font style=&quot;font-size: 18px;&quot;&gt;begin&lt;/font&gt;" style="ellipse;whiteSpace=wrap;html=1;" vertex="1" parent="1">
          <mxGeometry x="1162.6" y="-1170" width="122.5" height="60" as="geometry" />
        </mxCell>
        <mxCell id="19" value="&lt;font style=&quot;font-size: 18px;&quot;&gt;end&lt;/font&gt;" style="ellipse;whiteSpace=wrap;html=1;" vertex="1" parent="1">
          <mxGeometry x="1408.1299999999999" y="-390" width="122.5" height="60" as="geometry" />
        </mxCell>
        <mxCell id="22" style="edgeStyle=orthogonalEdgeStyle;rounded=0;orthogonalLoop=1;jettySize=auto;html=1;exitX=0.5;exitY=1;exitDx=0;exitDy=0;entryX=0.5;entryY=0;entryDx=0;entryDy=0;" edge="1" parent="1" source="21" target="FfjkxNWrbGcJP8TpGep8-424">
          <mxGeometry relative="1" as="geometry" />
        </mxCell>
        <mxCell id="21" value="&lt;font style=&quot;font-size: 18px;&quot;&gt;begin&lt;/font&gt;" style="ellipse;whiteSpace=wrap;html=1;" vertex="1" parent="1">
          <mxGeometry x="1713.7399999999998" y="110" width="122.5" height="60" as="geometry" />
        </mxCell>
        <mxCell id="23" value="&lt;font style=&quot;font-size: 18px;&quot;&gt;end&lt;/font&gt;" style="ellipse;whiteSpace=wrap;html=1;" vertex="1" parent="1">
          <mxGeometry x="1833.75" y="1590" width="122.5" height="60" as="geometry" />
        </mxCell>
        <mxCell id="26" style="edgeStyle=orthogonalEdgeStyle;rounded=0;orthogonalLoop=1;jettySize=auto;html=1;exitX=0.5;exitY=1;exitDx=0;exitDy=0;" edge="1" parent="1" source="25" target="FfjkxNWrbGcJP8TpGep8-321">
          <mxGeometry relative="1" as="geometry" />
        </mxCell>
        <mxCell id="25" value="&lt;font style=&quot;font-size: 18px;&quot;&gt;begin&lt;/font&gt;" style="ellipse;whiteSpace=wrap;html=1;" vertex="1" parent="1">
          <mxGeometry x="-387.49000000000024" y="2440" width="122.5" height="60" as="geometry" />
        </mxCell>
        <mxCell id="27" value="&lt;font style=&quot;font-size: 18px;&quot;&gt;end&lt;/font&gt;" style="ellipse;whiteSpace=wrap;html=1;" vertex="1" parent="1">
          <mxGeometry x="228.75" y="3360" width="122.5" height="60" as="geometry" />
        </mxCell>
        <mxCell id="30" style="edgeStyle=orthogonalEdgeStyle;rounded=0;orthogonalLoop=1;jettySize=auto;html=1;exitX=0.5;exitY=1;exitDx=0;exitDy=0;entryX=0.5;entryY=0;entryDx=0;entryDy=0;" edge="1" parent="1" source="29" target="5xs730mzjVMXNToaB0Cd-30">
          <mxGeometry relative="1" as="geometry" />
        </mxCell>
        <mxCell id="29" value="&lt;font style=&quot;font-size: 18px;&quot;&gt;begin&lt;/font&gt;" style="ellipse;whiteSpace=wrap;html=1;" vertex="1" parent="1">
          <mxGeometry x="1323.7699999999998" y="2340" width="122.5" height="60" as="geometry" />
        </mxCell>
        <mxCell id="31" value="&lt;font style=&quot;font-size: 18px;&quot;&gt;end&lt;/font&gt;" style="ellipse;whiteSpace=wrap;html=1;" vertex="1" parent="1">
          <mxGeometry x="1322.46" y="2680" width="122.5" height="60" as="geometry" />
        </mxCell>
        <mxCell id="34" style="edgeStyle=orthogonalEdgeStyle;rounded=0;orthogonalLoop=1;jettySize=auto;html=1;exitX=0.5;exitY=1;exitDx=0;exitDy=0;entryX=0.5;entryY=0;entryDx=0;entryDy=0;" edge="1" parent="1" source="33" target="cOOqguh06IZceh5hziDc-25">
          <mxGeometry relative="1" as="geometry" />
        </mxCell>
        <mxCell id="33" value="&lt;font style=&quot;font-size: 18px;&quot;&gt;begin&lt;/font&gt;" style="ellipse;whiteSpace=wrap;html=1;" vertex="1" parent="1">
          <mxGeometry x="2082.17" y="2330" width="122.5" height="60" as="geometry" />
        </mxCell>
        <mxCell id="35" value="&lt;font style=&quot;font-size: 18px;&quot;&gt;end&lt;/font&gt;" style="ellipse;whiteSpace=wrap;html=1;" vertex="1" parent="1">
          <mxGeometry x="2082.18" y="2750" width="122.5" height="60" as="geometry" />
        </mxCell>
        <mxCell id="38" style="edgeStyle=orthogonalEdgeStyle;rounded=0;orthogonalLoop=1;jettySize=auto;html=1;exitX=0.5;exitY=1;exitDx=0;exitDy=0;entryX=0.5;entryY=0;entryDx=0;entryDy=0;" edge="1" parent="1" source="37" target="cOOqguh06IZceh5hziDc-39">
          <mxGeometry relative="1" as="geometry" />
        </mxCell>
        <mxCell id="37" value="&lt;font style=&quot;font-size: 18px;&quot;&gt;begin&lt;/font&gt;" style="ellipse;whiteSpace=wrap;html=1;" vertex="1" parent="1">
          <mxGeometry x="1361.4999999999998" y="3230" width="122.5" height="60" as="geometry" />
        </mxCell>
        <mxCell id="39" value="&lt;font style=&quot;font-size: 18px;&quot;&gt;end&lt;/font&gt;" style="ellipse;whiteSpace=wrap;html=1;" vertex="1" parent="1">
          <mxGeometry x="1072.99" y="3910" width="122.5" height="60" as="geometry" />
        </mxCell>
        <mxCell id="42" style="edgeStyle=orthogonalEdgeStyle;rounded=0;orthogonalLoop=1;jettySize=auto;html=1;exitX=0.5;exitY=1;exitDx=0;exitDy=0;entryX=0.5;entryY=0;entryDx=0;entryDy=0;" edge="1" parent="1" source="41" target="5xs730mzjVMXNToaB0Cd-80">
          <mxGeometry relative="1" as="geometry" />
        </mxCell>
        <mxCell id="41" value="&lt;font style=&quot;font-size: 18px;&quot;&gt;begin&lt;/font&gt;" style="ellipse;whiteSpace=wrap;html=1;" vertex="1" parent="1">
          <mxGeometry x="1575.94" y="4800" width="122.5" height="60" as="geometry" />
        </mxCell>
        <mxCell id="43" value="&lt;font style=&quot;font-size: 18px;&quot;&gt;end&lt;/font&gt;" style="ellipse;whiteSpace=wrap;html=1;" vertex="1" parent="1">
          <mxGeometry x="1576.25" y="5170" width="122.5" height="60" as="geometry" />
        </mxCell>
        <mxCell id="45" style="edgeStyle=orthogonalEdgeStyle;rounded=0;orthogonalLoop=1;jettySize=auto;html=1;exitX=0.5;exitY=1;exitDx=0;exitDy=0;entryX=0.5;entryY=0;entryDx=0;entryDy=0;" edge="1" parent="1" source="44" target="5xs730mzjVMXNToaB0Cd-105">
          <mxGeometry relative="1" as="geometry" />
        </mxCell>
        <mxCell id="44" value="&lt;font style=&quot;font-size: 18px;&quot;&gt;begin&lt;/font&gt;" style="ellipse;whiteSpace=wrap;html=1;" vertex="1" parent="1">
          <mxGeometry x="1267.82" y="5740" width="122.5" height="60" as="geometry" />
        </mxCell>
        <mxCell id="46" value="&lt;font style=&quot;font-size: 18px;&quot;&gt;end&lt;/font&gt;" style="ellipse;whiteSpace=wrap;html=1;" vertex="1" parent="1">
          <mxGeometry x="1265.31" y="7010" width="122.5" height="60" as="geometry" />
        </mxCell>
      </root>
    </mxGraphModel>
  </diagram>
</mxfile>
